<svg width="31" height="31" viewBox="0 0 31 31" fill="none" xmlns="http://www.w3.org/2000/svg">
<g filter="url(#filter0_i_71_621)">
<path d="M15.3496 30.3731C6.81693 30.4097 -0.199137 23.3909 0.00431624 14.8184C0.195439 6.65417 7.03887 -0.0904729 15.5469 0.000917977C23.9748 0.0923088 30.9477 7.02583 30.7196 15.6105C30.5038 23.7382 23.7159 30.4158 15.3496 30.3731ZM1.87239 15.2084C1.94021 22.8425 8.20411 28.722 15.6024 28.5941C22.7664 28.4661 28.8392 22.6963 28.8392 15.1901C28.8392 7.5559 22.526 1.65205 15.103 1.79218C7.939 1.92013 1.92171 7.70821 1.87239 15.2084Z" fill="#7167AC"/>
<path d="M11.9974 25.3406C11.9974 21.9866 11.9974 18.6611 11.9974 15.3015C11.2321 15.3015 10.4902 15.3015 9.73071 15.3015C9.73071 14.1626 9.73071 13.0579 9.73071 11.919C9.8308 11.9133 9.93089 11.9019 10.0369 11.9019C10.5844 11.9019 11.1379 11.8905 11.6854 11.9076C11.9268 11.9133 12.0092 11.8507 12.0033 11.6115C11.9916 10.746 11.9916 9.88613 11.9974 9.02059C12.0033 8.04686 12.2859 7.16423 13.0042 6.45814C13.699 5.77481 14.588 5.40468 15.5536 5.34774C17.1079 5.26232 18.6681 5.27371 20.2283 5.24524C20.246 5.24524 20.2636 5.26232 20.299 5.27941C20.299 6.42397 20.299 7.57423 20.299 8.75296C20.1871 8.75865 20.0811 8.76435 19.981 8.76435C19.2745 8.76435 18.568 8.76435 17.8615 8.76435C17.1491 8.77004 16.7311 9.18003 16.7311 9.85766C16.7311 10.5011 16.7311 11.1503 16.737 11.7937C16.737 11.8108 16.7487 11.8279 16.7664 11.8905C17.9322 11.8905 19.1097 11.8905 20.3461 11.8905C20.193 13.0465 20.0517 14.1512 19.8986 15.2958C18.833 15.2958 17.7909 15.2958 16.7193 15.2958C16.7193 18.6668 16.7193 22.0037 16.7193 25.352C15.1355 25.3406 13.593 25.3406 11.9974 25.3406Z" fill="#7167AC"/>
</g>
<defs>
<filter id="filter0_i_71_621" x="0" y="0" width="32.7251" height="32.3734" filterUnits="userSpaceOnUse" color-interpolation-filters="sRGB">
<feFlood flood-opacity="0" result="BackgroundImageFix"/>
<feBlend mode="normal" in="SourceGraphic" in2="BackgroundImageFix" result="shape"/>
<feColorMatrix in="SourceAlpha" type="matrix" values="0 0 0 0 0 0 0 0 0 0 0 0 0 0 0 0 0 0 127 0" result="hardAlpha"/>
<feOffset dx="2" dy="2"/>
<feGaussianBlur stdDeviation="1"/>
<feComposite in2="hardAlpha" operator="arithmetic" k2="-1" k3="1"/>
<feColorMatrix type="matrix" values="0 0 0 0 0 0 0 0 0 0 0 0 0 0 0 0 0 0 0.25 0"/>
<feBlend mode="normal" in2="shape" result="effect1_innerShadow_71_621"/>
</filter>
</defs>
</svg>
