<svg width="32" height="31" fill="none" xmlns="http://www.w3.org/2000/svg"><g filter="url(#a)" fill="#EDEDED"><path d="M16.106 30.373C7.673 30.41.74 23.391.94 14.818 1.13 6.654 7.893-.09 16.3.001c8.328.091 15.22 7.025 14.994 15.61-.214 8.127-6.922 14.805-15.19 14.762ZM2.786 15.208c.068 7.635 6.258 13.514 13.57 13.386 7.08-.128 13.08-5.898 13.08-13.404 0-7.634-6.238-13.538-13.574-13.398-7.08.128-13.026 5.916-13.075 13.416Z"/><path d="M12.793 25.34V15.301h-2.24V11.92c.099-.006.198-.017.302-.017.541 0 1.088-.012 1.63.006.238.005.32-.057.314-.297-.012-.865-.012-1.725-.006-2.59.006-.974.285-1.857.995-2.563a3.838 3.838 0 0 1 2.52-1.11c1.535-.086 3.077-.074 4.619-.103.017 0 .035.017.07.034v3.474c-.11.006-.216.011-.314.011h-2.095c-.704.006-1.117.416-1.117 1.094 0 .643 0 1.292.006 1.936 0 .017.011.034.029.096h3.537c-.151 1.156-.29 2.261-.442 3.406h-3.142v10.056c-1.565-.012-3.09-.012-4.666-.012Z"/></g><defs><filter id="a" x=".937" y="0" width="32.364" height="32.373" filterUnits="userSpaceOnUse" color-interpolation-filters="sRGB"><feFlood flood-opacity="0" result="BackgroundImageFix"/><feBlend in="SourceGraphic" in2="BackgroundImageFix" result="shape"/><feColorMatrix in="SourceAlpha" values="0 0 0 0 0 0 0 0 0 0 0 0 0 0 0 0 0 0 127 0" result="hardAlpha"/><feOffset dx="2" dy="2"/><feGaussianBlur stdDeviation="1"/><feComposite in2="hardAlpha" operator="arithmetic" k2="-1" k3="1"/><feColorMatrix values="0 0 0 0 0 0 0 0 0 0 0 0 0 0 0 0 0 0 0.25 0"/><feBlend in2="shape" result="effect1_innerShadow_1_540"/></filter></defs></svg>