<svg width="120" height="120" viewBox="0 0 120 120" fill="none" xmlns="http://www.w3.org/2000/svg">
<circle cx="60" cy="60" r="59" fill="#261D3A" stroke="#62B791" stroke-width="2"/>
<g filter="url(#filter0_d_1_556)">
<path d="M101.912 32C100.855 32 100.02 32.8094 99.8481 33.8716H79.1133V32.9105H40.8375V33.8716H20.1764C20.029 32.8094 19.1692 32 18.1128 32C16.9335 32 16 32.9864 16 34.1752C16 35.3639 16.9581 36.3503 18.1128 36.3503C18.383 36.3503 18.6533 36.2997 18.8744 36.1985L28.775 53.9033L27.9888 54.3585L47.1268 88.5033L47.8638 88.0734L59.091 108.156C58.5997 108.56 58.2803 109.142 58.2803 109.825C58.2803 111.039 59.2384 112 60.3931 112C61.5723 112 62.5059 111.014 62.5059 109.825C62.5059 109.117 62.1619 108.535 61.6706 108.13L72.6276 88.1745L73.4383 88.6298L92.3551 54.1562L91.5444 53.6756L101.126 36.1985C101.371 36.2997 101.617 36.3503 101.887 36.3503C103.066 36.3503 104 35.3639 104 34.1752C104 32.9864 103.066 32 101.912 32ZM99.8481 34.504C99.8727 34.7063 99.8973 34.9086 99.971 35.0857L70.4165 52.7145L60.737 35.4398H79.1133V34.504H99.8481ZM59.6806 61.4404L59.7543 69.5087H42.9257L51.2049 54.4344L58.0101 58.5065C57.9118 58.7594 57.8626 59.0376 57.8626 59.3158C57.8626 60.4034 58.6488 61.2887 59.6806 61.4404ZM60.2948 61.4151C61.3021 61.2381 62.0882 60.3781 62.0882 59.3158C62.0882 59.0376 62.0391 58.7594 61.9408 58.5065L68.5986 54.5356L77.0006 69.534H60.3931L60.2948 61.4151ZM61.5969 57.9753C61.2038 57.4695 60.6387 57.1407 59.9754 57.1407C59.3121 57.1407 58.7471 57.4695 58.354 57.9753L51.5243 53.878L59.7789 38.829L68.2792 54.0044L61.5969 57.9753ZM58.7962 35.4398L49.3869 52.5881L20.0782 34.9845C20.1273 34.8328 20.1519 34.6557 20.1764 34.4787H40.8375V35.4398H58.7962ZM19.4149 35.8697C19.5377 35.7686 19.636 35.6674 19.7588 35.5409L49.1167 53.1698L39.7566 70.2169L30.1753 53.1192L29.3646 53.5997L19.4149 35.8697ZM48.4288 87.7445L49.2887 87.2387L40.7638 72.0379H59.7789L60.0983 107.7C59.9509 107.726 59.7789 107.726 59.6561 107.801L48.4288 87.7445ZM61.1792 107.776C61.0318 107.726 60.8599 107.7 60.7125 107.675L60.3931 72.0379H79.7275L71.3255 87.3652L72.1362 87.8204L61.1792 107.776ZM91.0285 53.3721L90.2178 52.9169L80.4646 70.6974L70.7113 53.2962L100.315 35.6168C100.413 35.718 100.511 35.7939 100.61 35.895L91.0285 53.3721Z" fill="#62B791"/>
</g>
<defs>
<filter id="filter0_d_1_556" x="16" y="32" width="92" height="84" filterUnits="userSpaceOnUse" color-interpolation-filters="sRGB">
<feFlood flood-opacity="0" result="BackgroundImageFix"/>
<feColorMatrix in="SourceAlpha" type="matrix" values="0 0 0 0 0 0 0 0 0 0 0 0 0 0 0 0 0 0 127 0" result="hardAlpha"/>
<feOffset dx="2" dy="2"/>
<feGaussianBlur stdDeviation="1"/>
<feComposite in2="hardAlpha" operator="out"/>
<feColorMatrix type="matrix" values="0 0 0 0 0 0 0 0 0 0 0 0 0 0 0 0 0 0 1 0"/>
<feBlend mode="normal" in2="BackgroundImageFix" result="effect1_dropShadow_1_556"/>
<feBlend mode="normal" in="SourceGraphic" in2="effect1_dropShadow_1_556" result="shape"/>
</filter>
</defs>
</svg>
