<svg xmlns="http://www.w3.org/2000/svg" width="24" height="24"><path style="fill:none;stroke-width:2;stroke-linecap:butt;stroke-linejoin:miter;stroke:#353535;stroke-opacity:1;stroke-miterlimit:10" d="M42.266 30.266c0 6.351-5.149 11.5-11.5 11.5-6.352 0-11.5-5.149-11.5-11.5 0-6.352 5.148-11.5 11.5-11.5 6.351 0 11.5 5.148 11.5 11.5Zm0 0" transform="scale(.5)"/><path style="fill:none;stroke-width:2;stroke-linecap:round;stroke-linejoin:round;stroke:#353535;stroke-opacity:1;stroke-miterlimit:4" d="m38.688 38.688 8.335 8.335M21.492 42c-11.32 0-20.5-9.18-20.5-20.5S10.172 1 21.492 1c11.328 0 20.5 9.18 20.5 20.5" transform="scale(.5)"/><path style="fill:none;stroke-width:2;stroke-linecap:round;stroke-linejoin:miter;stroke:#353535;stroke-opacity:1;stroke-miterlimit:10" d="M21.492 1v17.375" transform="scale(.5)"/><path style="fill:none;stroke-width:2;stroke-linecap:round;stroke-linejoin:round;stroke:#353535;stroke-opacity:1;stroke-miterlimit:4" d="M16.734 31.914A41.57 41.57 0 0 0 5.36 34.117" transform="scale(.5)"/><path style="fill:none;stroke-width:2;stroke-linecap:butt;stroke-linejoin:miter;stroke:#353535;stroke-opacity:1;stroke-miterlimit:10" d="M5.36 8.883c3.75 1.437 9.578 2.367 16.132 2.367 6.563 0 12.39-.93 16.14-2.367" transform="scale(.5)"/><path style="fill:none;stroke-width:2;stroke-linecap:round;stroke-linejoin:round;stroke:#353535;stroke-opacity:1;stroke-miterlimit:4" d="M33.305 15.766C31.82 7.234 27.094 1 21.492 1 14.703 1 9.195 10.18 9.195 21.5S14.703 42 21.492 42M18.75 21.5H.812" transform="scale(.5)"/></svg>