<svg xmlns="http://www.w3.org/2000/svg" xml:space="preserve" style="enable-background:new 0 0 24 24" viewBox="0 0 24 24"><path d="M20.37 10.55c1-.64 1.68-1.75 1.68-3.02 0-1.98-1.61-3.58-3.58-3.58s-3.58 1.61-3.58 3.58c0 1.23.63 2.32 1.58 2.97-.71.29-1.37.74-1.91 1.3a2.934 2.934 0 0 0-2.26-1.07c-.99 0-1.86.49-2.4 1.24a5.616 5.616 0 0 0-2.08-1.46c.96-.64 1.6-1.74 1.6-2.98 0-1.98-1.61-3.58-3.58-3.58s-3.61 1.6-3.61 3.58c0 1.24.63 2.33 1.58 2.97-2.01.8-3.43 2.76-3.43 5.05h1a4.44 4.44 0 0 1 4.43-4.44c1.39 0 2.77.73 3.6 1.87-.06.23-.1.46-.1.71 0 .97.48 1.83 1.2 2.37a4.194 4.194 0 0 0-2.43 3.8h1c0-1.76 1.44-3.2 3.2-3.2 1.76 0 3.2 1.44 3.2 3.2h1c0-1.68-1-3.13-2.43-3.8.72-.54 1.2-1.4 1.2-2.37 0-.35-.07-.68-.18-.99.85-1.02 2.13-1.63 3.39-1.59 2.1.06 4.45 1.97 4.45 4.44h1c-.01-2.28-1.64-4.18-3.54-5zm-14.56-.44a2.58 2.58 0 1 1 0-5.16c1.42 0 2.59 1.15 2.59 2.58 0 1.42-1.16 2.58-2.59 2.58zm6.47 5.56c-1.08 0-1.97-.88-1.97-1.97s.88-1.97 1.97-1.97 1.97.88 1.97 1.97-.88 1.97-1.97 1.97zm6.19-5.56a2.58 2.58 0 1 1 0-5.16 2.58 2.58 0 0 1 0 5.16z" style="fill:#777"/></svg>