<svg xmlns="http://www.w3.org/2000/svg" width="24" height="24"><path style="stroke:none;fill-rule:nonzero;fill:#777;fill-opacity:1" d="M15.203 9.695a4.59 4.59 0 0 0 1.399-3.297A4.606 4.606 0 0 0 12 1.801a4.606 4.606 0 0 0-4.602 4.597c0 1.293.54 2.461 1.399 3.297-2.754 1.242-4.598 4.02-4.598 7.106 0 .332.27.597.602.597a.598.598 0 0 0 .597-.597c0-2.5 1.434-4.762 3.602-5.871v2.09a1.797 1.797 0 0 0-1.602 1.78c0 .993.809 1.802 1.801 1.802.992 0 1.801-.809 1.801-1.801 0-.625-.32-1.172-.8-1.496v-2.672a4.607 4.607 0 0 0 3.6 0v2.46a2.193 2.193 0 0 0-1.6 2.106V16c0 .332.269.602.6.602.329 0 .598-.27.598-.602v-.8c0-.552.45-1 1-1 .551 0 1 .448 1 1v.8c0 .332.27.602.602.602.332 0 .598-.27.598-.602v-.8A2.19 2.19 0 0 0 15 13.093V10.93a6.616 6.616 0 0 1 3.598 5.87c0 .333.27.598.601.598a.598.598 0 0 0 .602-.597c0-3.086-1.848-5.863-4.598-7.106ZM9.2 15.398a.595.595 0 0 1-.597-.597.598.598 0 1 1 1.199 0c0 .332-.27.597-.602.597Zm-.597-9A3.403 3.403 0 0 1 12 3a3.403 3.403 0 0 1 3.398 3.398A3.404 3.404 0 0 1 12 9.801a3.404 3.404 0 0 1-3.398-3.403Zm0 0"/></svg>