<svg xmlns="http://www.w3.org/2000/svg" width="24" height="24" fill="none"><g fill="#777" clip-path="url(#a)"><path d="M4.2 22.416a.312.312 0 0 0 .315-.309v-1.786a.312.312 0 0 0-.315-.31H1.696a.312.312 0 0 0-.316.31v1.786c0 .17.141.309.316.309a.312.312 0 0 0 .315-.31V20.63h1.874v1.477c0 .17.141.309.315.309Zm3.564 0a.312.312 0 0 0 .316-.309v-3.266a.312.312 0 0 0-.316-.31H5.26a.312.312 0 0 0-.315.31v3.266c0 .17.14.309.315.309a.312.312 0 0 0 .315-.309V19.15h1.874v2.957c0 .17.141.309.315.309Zm3.567 0a.312.312 0 0 0 .315-.309v-5.172a.312.312 0 0 0-.315-.309H8.826a.312.312 0 0 0-.315.31v5.171c0 .17.141.309.315.309a.312.312 0 0 0 .315-.309v-4.86h1.875v4.86c0 .17.14.309.315.309Zm3.567 0a.312.312 0 0 0 .315-.309V14.74a.312.312 0 0 0-.315-.31h-2.505a.312.312 0 0 0-.315.31v7.367c0 .17.14.309.315.309a.312.312 0 0 0 .315-.309v-7.058h1.874v7.058c0 .17.141.309.316.309Zm3.563 0a.312.312 0 0 0 .315-.309v-10.07a.312.312 0 0 0-.314-.309h-2.505a.312.312 0 0 0-.316.31v10.069c0 .17.142.309.316.309a.312.312 0 0 0 .315-.309v-9.761h1.874v9.758c0 .17.141.31.315.31v.002Zm3.567 0a.312.312 0 0 0 .315-.309V8.123a.312.312 0 0 0-.315-.31h-2.505a.312.312 0 0 0-.315.31v13.984c0 .17.14.309.315.309a.312.312 0 0 0 .315-.31V8.433h1.875v13.675c0 .17.14.309.315.309Zm1.615.916H.358a.312.312 0 0 0-.315.31c0 .17.14.308.315.308h23.285a.312.312 0 0 0 .315-.309.312.312 0 0 0-.315-.309ZM.247 18.551a.307.307 0 0 0-.188.396.318.318 0 0 0 .404.184c.041-.014 4.117-1.485 8.684-4.117 2.687-1.548 5.018-3.19 6.929-4.882 2.4-2.125 4.144-4.337 5.178-6.57a.308.308 0 0 0-.127-.396.33.33 0 0 0-.127-.052l-1.018-.165L21.5 1.025l1.12 2.761a.316.316 0 0 0 .41.174.307.307 0 0 0 .176-.401L21.882.292a.318.318 0 0 0-.542-.076L19.16 2.978a.298.298 0 0 0-.044.301.32.32 0 0 0 .24.193l1.15.187c-1.014 2.035-2.645 4.055-4.849 6.007-1.877 1.661-4.172 3.28-6.82 4.805-4.518 2.605-8.549 4.06-8.59 4.075v.005Z"/><path d="M4.712 4.456c2.228 0 4.039 1.778 4.039 3.96s-1.814 3.96-4.04 3.96c-2.225 0-4.039-1.778-4.039-3.96s1.814-3.96 4.04-3.96Zm0 8.54c2.576 0 4.672-2.054 4.672-4.58 0-2.526-2.096-4.581-4.672-4.581-2.577 0-4.673 2.055-4.673 4.58 0 2.527 2.096 4.582 4.673 4.582Z"/><path d="M3.67 7.247c.044-.347.16-.672.652-.772V7.9c-.658-.204-.652-.648-.652-.654Zm2.148 2.361c0 .288-.238.694-.863.797V8.66c.373.105.863.36.863.948Zm-1.496 1.415v.371c0 .171.141.31.315.31a.312.312 0 0 0 .315-.31v-.366c.512-.062.84-.265 1.034-.439.293-.263.46-.62.46-.98 0-.361-.139-.727-.388-1.004-.262-.292-.636-.487-1.108-.585V6.48a.872.872 0 0 1 .489.344c.15.21.193.431.193.437.03.168.191.282.363.252a.31.31 0 0 0 .26-.355 1.79 1.79 0 0 0-.282-.664 1.504 1.504 0 0 0-1.023-.645v-.355a.312.312 0 0 0-.315-.31.312.312 0 0 0-.316.31v.355c-.43.06-.76.238-.984.528-.232.304-.276.648-.293.794-.025.193.03.5.26.784.268.339.666.504 1.02.585v1.852c-.6-.158-.746-.74-.746-.838a.312.312 0 0 0-.316-.309.312.312 0 0 0-.315.309c0 .225.114.588.37.897a1.61 1.61 0 0 0 1.01.572h-.003Z"/></g><defs><clipPath id="a"><path fill="#fff" d="M0 0h24v24H0z"/></clipPath></defs></svg>