<svg width="24" height="24" fill="none" xmlns="http://www.w3.org/2000/svg"><g clip-path="url(#a)" fill="#777"><path d="m23.45 20.798-4.54-4.542a11.306 11.306 0 0 1-2.652 2.653l4.541 4.54a1.874 1.874 0 1 0 2.652-2.65ZM19.499 9.75c0-5.385-4.365-9.75-9.75-9.75C4.366 0 0 4.365 0 9.75c0 5.384 4.365 9.75 9.75 9.75 5.383 0 9.749-4.366 9.749-9.75Zm-9.75 7.5c-4.135 0-7.5-3.365-7.5-7.5 0-4.136 3.365-7.5 7.5-7.5 4.136 0 7.5 3.364 7.5 7.5 0 4.135-3.363 7.5-7.5 7.5Z"/><path d="M13.499 11.25h-.75a1.5 1.5 0 0 1-1.5-1.5v-.095c.68-.802 1.126-2.013 1.126-2.905 0-1.26-.287-2.591-1.834-2.92-.263-.035-.52-.08-.791-.08s-.529.045-.791.08c-1.547.329-1.834 1.66-1.834 2.92 0 .892.445 2.103 1.125 2.905v.095c0 .83-.671 1.5-1.5 1.5H6s-.807.231-1.585 1.191c.989 1.955 2.994 3.309 5.335 3.309 2.34 0 4.344-1.354 5.334-3.309-.777-.96-1.585-1.191-1.585-1.191Z"/></g><defs><clipPath id="a"><path fill="#fff" d="M0 0h24v24H0z"/></clipPath></defs></svg>