<svg xmlns="http://www.w3.org/2000/svg" xml:space="preserve" id="Слой_1" x="0" y="0" style="enable-background:new 0 0 24 24" version="1.1" viewBox="0 0 24 24"><style>.st0{fill:#777}</style><path d="M21.07 5.72a4.29 4.29 0 0 0-4.29-4.29c-1.24 0-2.34.53-3.13 1.37L8.09 8.36l6.06 6.06 5.65-5.65c.78-.78 1.27-1.86 1.27-3.05zM14.15 13 9.5 8.36l4.88-4.88c.63-.68 1.48-1.05 2.4-1.05 1.81 0 3.29 1.48 3.29 3.29 0 .88-.35 1.71-.98 2.34L14.15 13zM1.9 14.58c-.78.78-1.27 1.85-1.27 3.05a4.29 4.29 0 0 0 4.29 4.29c1.24 0 2.34-.53 3.13-1.37l5.56-5.56-6.06-6.06-5.65 5.65zm.27 4.01c-.26-.1-.53-.43-.62-.82-.03-.12-.12-.55.01-1.08.13-.5.4-.85.46-.93.32-.39.63-.62.88-.77.31-.19.38.04.29.46-.06.28-.16.47-.28.76-.12.3-.03.54.16.77.19.22.29.62.29.9 0 .14-.05.44-.31.61-.22.13-.59.21-.88.1zm1.32 2.29c-.38.01-.63-.28-.72-.38-.1-.11-.25-.33-.19-.5.02-.06.12-.1.26.01.12.09.22.07.41.12.18.05.28.09.32.33.04.17.24.41-.08.42zM18.82 12.8c-2.52 0-4.56 2.04-4.56 4.56 0 1.12.42 2.13 1.09 2.92l6.39-6.39a4.516 4.516 0 0 0-2.92-1.09zM22.29 14.43l-6.39 6.39c.79.67 1.8 1.09 2.92 1.09 2.52 0 4.56-2.04 4.56-4.56-.01-1.11-.43-2.12-1.09-2.92z" class="st0"/></svg>