<svg xmlns="http://www.w3.org/2000/svg" width="24" height="24" fill="none"><g clip-path="url(#a)"><path fill="#777" d="M12.167.467a6.027 6.027 0 1 0-.001 12.053 6.027 6.027 0 0 0 0-12.053Zm-.472 5.6h.926a1.566 1.566 0 0 1 .003 3.13v.772a.507.507 0 1 1-1.012 0V9.2h-1.056a.506.506 0 0 1 0-1.013h2.065a.553.553 0 1 0 0-1.107h-.926a1.642 1.642 0 0 1-.083-3.282v-.78a.505.505 0 1 1 1.012 0v.772h1.153a.506.506 0 0 1 0 1.012h-2.082a.633.633 0 0 0 0 1.266Zm-6.03 7.709h-2.46a.39.39 0 0 0-.39.391v8.393a.391.391 0 0 0 .39.391h2.46a.853.853 0 0 0 .853-.853v-7.47a.853.853 0 0 0-.853-.852Zm15.458.985a1.427 1.427 0 0 0-1.194-.643h-.964a2.081 2.081 0 0 0-1.93 1.29 2.16 2.16 0 0 1-.383.608 3.142 3.142 0 0 1-2.507 1.425h-2.854a.507.507 0 0 1 0-1.013h2.84c.366-.01.72-.123 1.022-.329v-.017a1.957 1.957 0 0 0-1.957-1.964h-2.094a2.901 2.901 0 0 0-2.062.851l-.053.053c-.396.396-.905.66-1.457.755v5.592h7.639a5.787 5.787 0 0 0 5.321-3.505l.753-1.752a1.427 1.427 0 0 0-.12-1.35Z"/></g><defs><clipPath id="a"><path fill="#fff" d="M0 0h24v24H0z"/></clipPath></defs></svg>