<svg xmlns="http://www.w3.org/2000/svg" width="24" height="24"><path style="stroke:none;fill-rule:nonzero;fill:#777;fill-opacity:1" d="M17.766 5.438a.47.47 0 0 0-.47.468.47.47 0 0 0 .938 0 .47.47 0 0 0-.468-.468ZM8.109 19.5a.47.47 0 0 0-.468.469c0 .258.21.468.468.468a.47.47 0 0 0 .47-.468.47.47 0 0 0-.47-.469ZM6.234 5.437a.47.47 0 0 0-.468.47c0 .257.21.468.468.468a.47.47 0 0 0 .47-.469.47.47 0 0 0-.47-.468Zm5.766 0a.47.47 0 0 1-.469-.468A.47.47 0 0 1 12 4.5c.168 0 .34.086.508.246.183.18.48.176.66-.012a.47.47 0 0 0-.008-.664 1.793 1.793 0 0 0-.691-.43v-.546A.47.47 0 0 0 12 2.625a.47.47 0 0 0-.469.469v.55A1.405 1.405 0 0 0 12 6.376a.47.47 0 0 1 .469.469.47.47 0 0 1-.469.468c-.2 0-.418-.125-.61-.355a.466.466 0 0 0-.66-.055.47.47 0 0 0-.058.66c.254.297.547.504.86.61v.547c0 .258.21.469.468.469a.47.47 0 0 0 .469-.47v-.55A1.405 1.405 0 0 0 12 5.438Zm0 0"/><path style="stroke:none;fill-rule:nonzero;fill:#777;fill-opacity:1" d="M23.926 9.574a1.4 1.4 0 0 0-.297-.504l-.012-.011-2.57-2.641v-5.2a.47.47 0 0 0-.469-.468H3.422a.47.47 0 0 0-.469.469v5.199l-2.57 2.64-.012.012a1.4 1.4 0 0 0-.371.953v11.375c0 .579.262 1.114.719 1.465.004.004.008.004.008.008.003 0 .003.004.007.004.32.246.707.375 1.118.375h20.296a1.84 1.84 0 0 0 1.2-.441l.011-.012c.004 0 .004 0 .008-.004.403-.352.633-.855.633-1.395V10.023c0-.152-.023-.304-.074-.449Zm-2.88 1.02V7.762l1.81 1.86-1.81 1.554Zm-.937-8.906v1.558a3.282 3.282 0 0 1-1.558-1.558Zm-2.57 0a4.194 4.194 0 0 0 2.57 2.57v3.297a4.194 4.194 0 0 0-2.57 2.57h-3.633c.172-.191.336-.414.485-.664.574-.957.89-2.219.89-3.555 0-1.336-.316-2.597-.89-3.554a4.218 4.218 0 0 0-.485-.664Zm2.57 6.878v1.559h-1.558a3.282 3.282 0 0 1 1.558-1.559ZM12 1.687c1.27 0 2.344 1.934 2.344 4.22 0 2.284-1.074 4.218-2.344 4.218-1.27 0-2.344-1.934-2.344-4.219S10.73 1.688 12 1.688Zm-8.11 0h1.56a3.282 3.282 0 0 1-1.56 1.56Zm0 2.57a4.194 4.194 0 0 0 2.57-2.57h3.634a4.218 4.218 0 0 0-.485.665c-.574.957-.89 2.218-.89 3.554 0 1.336.316 2.598.89 3.555.149.25.313.473.485.664H6.46a4.194 4.194 0 0 0-2.57-2.57Zm0 4.31a3.282 3.282 0 0 1 1.56 1.558H3.89Zm0 2.495H20.11v.918l-.023.02H3.914l-.023-.023Zm2.208 2.813-1.09-.938h13.984l-1.09.938Zm10.71.938-1.09.937H8.282l-1.09-.938ZM2.954 7.761v3.41l-1.808-1.55ZM1.047 21.836a.931.931 0 0 1-.11-.438V10.68l6.477 5.558Zm21.101.477H1.922l6.402-5.625h7.39l6.454 5.625h-.02Zm.915-.915a.893.893 0 0 1-.083.38l-6.375-5.555 6.457-5.543Zm0 0"/><path style="stroke:none;fill-rule:nonzero;fill:#777;fill-opacity:1" d="M15.89 19.5h-5.765a.47.47 0 0 0-.469.469c0 .258.211.468.469.468h5.766a.47.47 0 0 0 .468-.468.47.47 0 0 0-.468-.469Zm0 0"/></svg>