<svg xmlns="http://www.w3.org/2000/svg" width="24" height="24"><path d="M23.5 12c0 6.352-5.148 11.5-11.5 11.5S.5 18.352.5 12 5.648.5 12 .5 23.5 5.648 23.5 12Zm0 0" style="fill:none;stroke-width:1;stroke-linecap:round;stroke-linejoin:miter;stroke:#777;stroke-opacity:1;stroke-miterlimit:10"/><path d="M13.414 13.414a2.003 2.003 0 0 1-2.805-.023 2.003 2.003 0 0 1-.023-2.805c.781-.781 8.133-5.3 8.133-5.3s-4.52 7.347-5.305 8.128Zm0 0" style="fill:none;stroke-width:1;stroke-linecap:round;stroke-linejoin:round;stroke:#777;stroke-opacity:1;stroke-miterlimit:4"/><path d="M3.5 12H5M5.988 5.988l1.063 1.063M12 3.5V5M20.5 12H19M20.633 19.602A14.704 14.704 0 0 0 12 17a14.704 14.704 0 0 0-8.633 2.602" style="fill:none;stroke-width:1;stroke-linecap:round;stroke-linejoin:miter;stroke:#777;stroke-opacity:1;stroke-miterlimit:10"/></svg>