<svg width="24" height="24" fill="none" xmlns="http://www.w3.org/2000/svg"><g clip-path="url(#a)"><path d="M19.506 7.96A16.027 16.027 0 0 1 7.96 19.506C5.819 20.051 4 18.21 4 16v-1c0-.552.449-.995.998-1.05a9.94 9.94 0 0 0 2.656-.639l1.52 1.52a12.049 12.049 0 0 0 5.657-5.657l-1.52-1.52a9.94 9.94 0 0 0 .64-2.656C14.005 4.448 14.448 4 15 4h1c2.21 0 4.051 1.819 3.506 3.96Z" stroke="#777" stroke-width="2" stroke-linecap="round" stroke-linejoin="round"/></g><defs><clipPath id="a"><path fill="#fff" d="M0 0h24v24H0z"/></clipPath></defs></svg>