<svg xmlns="http://www.w3.org/2000/svg" width="24" height="24">
<path d="M25.101 24.998H3.998c-1.397 0-2.596-1.199-2.596-2.596V6.5c0-1.401 1.199-2.6 2.596-2.6H25.1c1.397 0 2.601 1.199 2.601 2.6v15.902c-.104 1.397-1.204 2.596-2.6 2.596ZM2.101 9.2h25.497M2.1 14.501h24.8m-24.8 5.3h24.8M6.599 9.202v15.797m5.3-15.798v15.798M17.101 9.2v15.798m5.3-15v15M6.6 1.002v2.2m15.802-2.2v2.2" style="fill-rule:nonzero;fill:#000;fill-opacity:0;stroke-width:2;stroke-linecap:round;stroke-linejoin:miter;stroke:#777;stroke-opacity:1;stroke-miterlimit:10" transform="matrix(.82759 0 0 .82759 0 1.241)"/></svg>