<svg xmlns="http://www.w3.org/2000/svg" width="24" height="24">
<path style="fill-rule:nonzero;fill:#000;fill-opacity:0;stroke-width:2;stroke-linecap:butt;stroke-linejoin:miter;stroke:#777;stroke-opacity:1;stroke-miterlimit:10" d="M23.301 25H4.7c-1.9 0-3.5-1.6-3.5-3.5V9.3c0-1.9 1.6-3.5 3.5-3.5H23.3c1.9 0 3.5 1.6 3.5 3.5v12.2c0 1.9-1.6 3.5-3.5 3.5ZM20.398 5.8H7.602V3c0-1.103.897-2 2-2h8.796c1.103 0 2 .897 2 2ZM2.001 13.801h24.8" transform="matrix(.85714 0 0 .85714 0 .857)"/><path style="fill-rule:nonzero;fill:#000;fill-opacity:1;stroke-width:2;stroke-linecap:round;stroke-linejoin:miter;stroke:#777;stroke-opacity:1;stroke-miterlimit:10" d="M6.8 12.198v4.001m14.4-4.001v4.001" transform="matrix(.85714 0 0 .85714 0 .857)"/></svg>