<svg width="24" height="24" fill="none" xmlns="http://www.w3.org/2000/svg"><path d="M21.216 10.284c.599 0 1.088-.49 1.088-1.088V8.052h.591a1.09 1.09 0 0 0 1.088-1.088V3.879c0-.501-.34-.936-.821-1.057L12.266.082a1.113 1.113 0 0 0-.532 0L.838 2.821a1.085 1.085 0 0 0-.822 1.057V6.96c0 .599.49 1.088 1.089 1.088h.59v1.144c0 .598.49 1.088 1.089 1.088h.325v7.47h-.325c-.599 0-1.088.489-1.088 1.088v1.143h-.592c-.599 0-1.088.49-1.088 1.088v1.833c0 .599.49 1.088 1.088 1.088h21.792c.599 0 1.088-.49 1.088-1.088V21.07c0-.6-.49-1.089-1.088-1.089h-.591v-1.143c0-.599-.49-1.088-1.089-1.088h-.325v-7.466h.325Zm.364-1.092c0 .2-.165.364-.364.364H17.37a.366.366 0 0 1-.364-.364V8.048h4.569v1.144h.004Zm-4.209 8.562a1.09 1.09 0 0 0-1.088 1.088v1.143H7.717v-1.143c0-.6-.49-1.088-1.089-1.088h-.325v-7.47h.325c.6 0 1.089-.49 1.089-1.089V8.052h8.566v1.143c0 .6.49 1.089 1.088 1.089h.325v7.47h-.325ZM.74 6.96V3.879c0-.169.113-.314.274-.353L11.909.786a.337.337 0 0 1 .18 0l10.896 2.74a.36.36 0 0 1 .274.353v3.08c0 .2-.165.365-.364.365H1.104a.369.369 0 0 1-.365-.364ZM2.42 9.19V8.048h4.568v1.143c0 .2-.164.364-.364.364h-3.84a.366.366 0 0 1-.365-.364Zm1.417 1.093h1.742v7.47H3.837v-7.47Zm-1.418 8.558c0-.2.165-.364.364-.364h3.845c.2 0 .364.164.364.364v1.143H2.42v-1.143Zm20.84 2.236v1.832c0 .2-.164.364-.364.364H1.104a.366.366 0 0 1-.364-.364v-1.832c0-.2.164-.365.364-.365h21.799c.192 0 .356.161.356.364Zm-1.68-2.236v1.143h-4.568v-1.143c0-.2.164-.364.364-.364h3.844c.196 0 .36.164.36.364Zm-1.413-1.088h-1.742v-7.47h1.742v7.47Z" fill="#777"/><path d="M12 9.967a4.262 4.262 0 0 0-4.256 4.255A4.262 4.262 0 0 0 12 18.478a4.262 4.262 0 0 0 4.255-4.256A4.262 4.262 0 0 0 12 9.967Zm0 7.787a3.53 3.53 0 0 1-3.528-3.527A3.53 3.53 0 0 1 12 10.699a3.534 3.534 0 0 1 3.531 3.528A3.534 3.534 0 0 1 12 17.754Z" fill="#777"/><path d="M12 13.862a.558.558 0 0 1-.556-.556.557.557 0 0 1 1.1-.117.366.366 0 0 0 .43.282.368.368 0 0 0 .283-.43 1.285 1.285 0 0 0-.893-.96v-.2a.363.363 0 1 0-.728 0v.2a1.28 1.28 0 0 0 .364 2.51c.305 0 .556.25.556.556 0 .305-.25.555-.556.555a.558.558 0 0 1-.544-.442.36.36 0 0 0-.427-.282.359.359 0 0 0-.282.427c.098.47.45.834.893.967v.2a.363.363 0 1 0 .728 0v-.204a1.28 1.28 0 0 0 .92-1.226A1.29 1.29 0 0 0 12 13.862Zm0-7.446a2.37 2.37 0 0 0 0-4.737A2.372 2.372 0 0 0 9.63 4.047 2.372 2.372 0 0 0 12 6.416Zm0-4.01c.904 0 1.64.737 1.64 1.641 0 .905-.736 1.64-1.64 1.64-.905 0-1.64-.735-1.64-1.64 0-.904.735-1.64 1.64-1.64Z" fill="#777"/></svg>