<svg width="31" height="31" viewBox="0 0 31 31" fill="none" xmlns="http://www.w3.org/2000/svg">
<g filter="url(#filter0_i_71_613)">
<path d="M15.3617 30.3733C6.81667 30.4159 -0.193223 23.3971 0.00406506 14.8307C0.189023 6.66648 7.03862 -0.0964427 15.5652 0.00104087C23.9869 0.0985245 30.9413 7.03204 30.7194 15.5984C30.5098 23.7261 23.728 30.4098 15.3617 30.3733ZM1.87214 15.2024C1.93996 22.8366 8.18536 28.7039 15.5713 28.5942C22.7354 28.4845 28.839 22.7208 28.8451 15.1902C28.8451 7.56211 22.5504 1.66435 15.1459 1.78621C7.96958 1.90197 1.92146 7.67787 1.87214 15.2024Z" fill="#7167AC"/>
<rect x="7.58337" y="7.5" width="16.2024" height="16" rx="4.5" stroke="#7167AC"/>
<path d="M19.7382 15.5C19.7382 17.7036 17.929 19.5 15.6847 19.5C13.4404 19.5 11.6311 17.7036 11.6311 15.5C11.6311 13.2964 13.4404 11.5 15.6847 11.5C17.929 11.5 19.7382 13.2964 19.7382 15.5Z" stroke="#7167AC"/>
<ellipse cx="20.2382" cy="11" rx="1.0119" ry="1" fill="#7167AC"/>
</g>
<defs>
<filter id="filter0_i_71_613" x="0" y="0" width="32.7245" height="32.3735" filterUnits="userSpaceOnUse" color-interpolation-filters="sRGB">
<feFlood flood-opacity="0" result="BackgroundImageFix"/>
<feBlend mode="normal" in="SourceGraphic" in2="BackgroundImageFix" result="shape"/>
<feColorMatrix in="SourceAlpha" type="matrix" values="0 0 0 0 0 0 0 0 0 0 0 0 0 0 0 0 0 0 127 0" result="hardAlpha"/>
<feOffset dx="2" dy="2"/>
<feGaussianBlur stdDeviation="1"/>
<feComposite in2="hardAlpha" operator="arithmetic" k2="-1" k3="1"/>
<feColorMatrix type="matrix" values="0 0 0 0 0 0 0 0 0 0 0 0 0 0 0 0 0 0 0.25 0"/>
<feBlend mode="normal" in2="shape" result="effect1_innerShadow_71_613"/>
</filter>
</defs>
</svg>
