<svg width="253" height="97" viewBox="0 0 253 97" fill="none" xmlns="http://www.w3.org/2000/svg">
<g filter="url(#filter0_d_155_138)">
<path d="M19.1711 84.6246H19.8439V88.7357L22.8555 84.6246H23.6084V89.7956H22.9356V85.7006L19.924 89.7956H19.1711V84.6246Z" fill="url(#paint0_linear_155_138)"/>
<path d="M31.2493 88.3342L31.9701 88.1576C32.0182 88.3985 32.1623 88.6554 32.4026 88.9124C32.6429 89.1693 32.9473 89.2978 33.3477 89.2978C33.7322 89.2978 34.0365 89.2014 34.2768 89.0248C34.5171 88.8481 34.6292 88.6233 34.6292 88.3503C34.6292 88.0612 34.5011 87.8364 34.2608 87.6758C34.0205 87.5152 33.6841 87.4189 33.2837 87.4189H32.9312V86.8247C33.2676 86.8247 33.54 86.8087 33.7162 86.7765C33.8924 86.7444 34.0526 86.6481 34.1967 86.5035C34.3409 86.359 34.421 86.1824 34.421 85.9896C34.421 85.7809 34.3249 85.5882 34.1487 85.4115C33.9725 85.2349 33.7001 85.1546 33.3638 85.1546C33.0914 85.1546 32.8511 85.2188 32.6589 85.3312C32.4667 85.4436 32.3225 85.6203 32.2264 85.8291C32.1303 86.0378 32.0983 86.2145 32.0983 86.359L31.3774 86.2145C31.5536 85.1225 32.2104 84.5604 33.3638 84.5604C33.9244 84.5604 34.3569 84.7049 34.6773 84.9779C34.9977 85.267 35.1579 85.5882 35.1579 85.9575C35.1579 86.4393 34.9176 86.8087 34.421 87.0817C34.7093 87.1619 34.9496 87.3065 35.1418 87.5313C35.3341 87.7561 35.4302 88.0291 35.4302 88.3342C35.4302 88.7839 35.238 89.1532 34.8535 89.4584C34.437 89.7314 33.9404 89.892 33.3317 89.892C32.2585 89.892 31.5696 89.3781 31.2493 88.3342Z" fill="url(#paint1_linear_155_138)"/>
<path d="M43.0232 89.7956V84.6246H44.1445L45.4901 88.2861L45.7624 89.0569C45.8265 88.8642 45.9226 88.5912 46.0668 88.2218L47.4124 84.6246H48.4215V89.7956H47.7007V85.4758L46.0508 89.7956H45.378L43.744 85.3955V89.7956H43.0232Z" fill="url(#paint2_linear_155_138)"/>
<path d="M56.3508 89.7956V84.6246H60.4356V85.2349H57.1037V86.8086H60.2274V87.4189H57.1037V89.1854H60.5638V89.7956H56.3508Z" fill="url(#paint3_linear_155_138)"/>
<path d="M68.3169 89.7956V84.6246H69.0698V86.7444H72.0012V84.6246H72.7541V89.7956H72.0012V87.3546H69.0698V89.7956H68.3169Z" fill="url(#paint4_linear_155_138)"/>
<path d="M80.7474 84.6246H81.4202V88.7357L84.4318 84.6246H85.1847V89.7956H84.5119V85.7006L81.5003 89.7956H80.7474V84.6246Z" fill="url(#paint5_linear_155_138)"/>
<path d="M106.057 87.9809L106.81 88.1576C106.65 88.7357 106.346 89.1693 105.945 89.4584C105.513 89.7474 105.016 89.8919 104.423 89.8919C103.895 89.8919 103.462 89.7956 103.078 89.6029C102.709 89.4102 102.405 89.1051 102.165 88.6715C101.925 88.2379 101.812 87.7401 101.812 87.178C101.812 86.6159 101.925 86.1342 102.165 85.7327C102.405 85.3312 102.725 85.0422 103.126 84.8334C103.526 84.6246 103.975 84.5283 104.472 84.5283C105.016 84.5283 105.481 84.6567 105.881 84.9137C106.282 85.1706 106.554 85.54 106.698 86.0378L105.961 86.1984C105.705 85.4758 105.208 85.1225 104.455 85.1225C104.071 85.1225 103.751 85.1867 103.478 85.3473C103.206 85.5079 102.982 85.7166 102.822 86.0218C102.661 86.3269 102.581 86.7123 102.581 87.178C102.581 87.8846 102.741 88.4145 103.078 88.7678C103.414 89.1211 103.847 89.2978 104.407 89.2978C104.808 89.2978 105.16 89.1854 105.465 88.9766C105.753 88.7518 105.961 88.4306 106.057 87.9809Z" fill="url(#paint6_linear_155_138)"/>
<path d="M114.435 89.7956V84.6246H116.55C116.982 84.6246 117.319 84.6728 117.575 84.7692C117.831 84.8655 118.039 85.0261 118.184 85.2349C118.328 85.4436 118.424 85.6845 118.424 85.9415C118.424 86.1823 118.36 86.3911 118.216 86.5838C118.071 86.7765 117.879 86.9211 117.639 87.0495C117.959 87.1459 118.232 87.2904 118.408 87.4992C118.6 87.7079 118.696 87.9809 118.696 88.3021C118.696 88.6233 118.616 88.8963 118.44 89.1211C118.264 89.362 118.039 89.5226 117.751 89.635C117.463 89.7474 117.078 89.7956 116.582 89.7956H114.435ZM115.188 86.7926H116.406C116.726 86.7926 116.95 86.7765 117.094 86.7444C117.287 86.6962 117.431 86.6159 117.543 86.5035C117.655 86.3911 117.703 86.2305 117.703 86.0218C117.703 85.829 117.655 85.6845 117.559 85.556C117.463 85.4276 117.335 85.3473 117.174 85.2991C117.014 85.2509 116.726 85.2349 116.325 85.2349H115.188V86.7926ZM115.188 89.1854H116.598C116.902 89.1854 117.142 89.1693 117.287 89.1211C117.495 89.0569 117.655 88.9605 117.767 88.816C117.879 88.6715 117.927 88.4948 117.927 88.2861C117.927 88.0934 117.879 87.9328 117.767 87.7882C117.655 87.6598 117.511 87.5473 117.335 87.4992C117.158 87.4349 116.87 87.4028 116.486 87.4028H115.188V89.1854Z" fill="url(#paint7_linear_155_138)"/>
<path d="M126.241 87.2743C126.241 86.3911 126.498 85.7166 127.01 85.2349C127.523 84.7531 128.163 84.5283 128.932 84.5283C129.429 84.5283 129.877 84.6407 130.294 84.8495C130.71 85.0582 131.031 85.3633 131.271 85.7648C131.511 86.1663 131.624 86.6481 131.624 87.2101C131.624 87.9809 131.399 88.6072 130.935 89.089C130.422 89.6189 129.749 89.8919 128.932 89.8919C128.099 89.8919 127.427 89.6189 126.93 89.0729C126.465 88.5751 126.241 87.9809 126.241 87.2743ZM127.01 87.2904C127.01 87.9328 127.202 88.4306 127.571 88.7678C127.939 89.1211 128.404 89.2978 128.932 89.2978C129.477 89.2978 129.942 89.1211 130.31 88.7678C130.678 88.4145 130.871 87.8846 130.871 87.194C130.871 86.7444 130.775 86.359 130.582 86.0057C130.438 85.7327 130.214 85.5239 129.926 85.3633C129.621 85.2027 129.301 85.1225 128.948 85.1225C128.388 85.1225 127.923 85.2991 127.555 85.6524C127.186 86.0057 127.01 86.5517 127.01 87.2904Z" fill="url(#paint8_linear_155_138)"/>
<path d="M139.344 84.6246H140.097V86.9532H141.203C141.251 86.2145 141.523 85.6364 141.988 85.2028C142.452 84.7692 143.045 84.5443 143.734 84.5443C144.438 84.5443 145.047 84.7692 145.544 85.2349C146.04 85.7006 146.281 86.3429 146.281 87.1941C146.281 88.0291 146.04 88.7036 145.56 89.1693C145.079 89.635 144.454 89.892 143.685 89.892C142.949 89.892 142.356 89.6671 141.939 89.2335C141.523 88.7999 141.267 88.2379 141.187 87.5634H140.081V89.8117H139.328V84.6246H139.344ZM141.923 87.2422C141.923 87.9006 142.084 88.3985 142.42 88.7678C142.756 89.1372 143.173 89.3138 143.702 89.3138C144.246 89.3138 144.679 89.1372 145.015 88.7678C145.351 88.3985 145.496 87.8846 145.496 87.2101C145.496 86.5517 145.335 86.0378 145.015 85.6845C144.695 85.3152 144.262 85.1385 143.718 85.1385C143.173 85.1385 142.74 85.3152 142.404 85.6845C142.084 86.0378 141.923 86.5517 141.923 87.2422Z" fill="url(#paint9_linear_155_138)"/>
<path d="M166.929 87.9809L167.682 88.1576C167.522 88.7357 167.217 89.1693 166.817 89.4584C166.4 89.7474 165.904 89.8919 165.311 89.8919C164.782 89.8919 164.35 89.7956 163.965 89.6029C163.597 89.4102 163.293 89.1051 163.052 88.6715C162.812 88.2379 162.7 87.7401 162.7 87.178C162.7 86.6159 162.812 86.1342 163.052 85.7327C163.293 85.3312 163.613 85.0422 164.013 84.8334C164.414 84.6246 164.862 84.5283 165.359 84.5283C165.904 84.5283 166.368 84.6567 166.769 84.9137C167.169 85.1706 167.442 85.54 167.586 86.0378L166.849 86.1984C166.593 85.4758 166.096 85.1225 165.343 85.1225C164.959 85.1225 164.638 85.1867 164.366 85.3473C164.094 85.5079 163.869 85.7166 163.709 86.0218C163.549 86.3269 163.469 86.7123 163.469 87.178C163.469 87.8846 163.629 88.4145 163.965 88.7678C164.302 89.1211 164.734 89.2978 165.295 89.2978C165.695 89.2978 166.048 89.1854 166.352 88.9766C166.625 88.7518 166.817 88.4306 166.929 87.9809Z" fill="url(#paint10_linear_155_138)"/>
<path d="M174.762 84.6246H175.515L177.357 87.7882L178.959 84.6246H179.712L177.597 88.6394C177.325 89.1532 177.101 89.4905 176.925 89.635C176.748 89.7795 176.524 89.8598 176.22 89.8598C176.012 89.8598 175.771 89.8117 175.499 89.7314V89.1532C175.691 89.2656 175.915 89.3138 176.14 89.3138C176.332 89.3138 176.476 89.2656 176.62 89.1532C176.748 89.0408 176.893 88.7999 177.053 88.4145L174.762 84.6246Z" fill="url(#paint11_linear_155_138)"/>
<path d="M187.577 84.6246H191.005V89.1854H191.518V91H190.845V89.7956H187.113V91H186.44V89.1854H186.872C187.337 88.5591 187.561 87.2904 187.561 85.3794V84.6246H187.577ZM190.268 85.2349H188.298V85.4918C188.298 85.9254 188.25 86.5196 188.17 87.2904C188.09 88.0452 187.914 88.6875 187.657 89.1854H190.252V85.2349H190.268Z" fill="url(#paint12_linear_155_138)"/>
<path d="M199.159 84.6246H199.912V86.8408H201.257C201.754 86.8408 202.138 86.8889 202.443 86.9692C202.731 87.0495 202.971 87.2262 203.148 87.451C203.324 87.6919 203.42 87.9649 203.42 88.2861C203.42 88.6875 203.276 89.0408 202.971 89.3299C202.667 89.635 202.122 89.7795 201.305 89.7795H199.159V84.6246ZM199.896 89.2175H201.257C201.722 89.2175 202.058 89.1532 202.266 89.0087C202.475 88.8642 202.587 88.6233 202.587 88.3021C202.587 88.0933 202.523 87.9006 202.395 87.7722C202.266 87.6276 202.106 87.5473 201.914 87.4992C201.722 87.451 201.369 87.4349 200.889 87.4349H199.896V89.2175Z" fill="url(#paint13_linear_155_138)"/>
<path d="M211.061 84.6246H214.729V85.2349H211.814V86.8247H213.159C213.656 86.8247 214.056 86.8729 214.345 86.9532C214.633 87.0335 214.873 87.2101 215.049 87.451C215.226 87.6919 215.322 87.9649 215.322 88.2861C215.322 88.5912 215.242 88.8642 215.065 89.1051C214.889 89.3459 214.681 89.5226 214.425 89.635C214.152 89.7314 213.768 89.7956 213.271 89.7956H211.061V84.6246ZM211.814 89.2175H213.303C213.688 89.2175 213.992 89.1532 214.2 89.0087C214.409 88.8642 214.521 88.6394 214.521 88.3182C214.521 88.0934 214.457 87.9167 214.345 87.7722C214.232 87.6276 214.056 87.5313 213.864 87.4992C213.656 87.451 213.319 87.4349 212.823 87.4349H211.83V89.2175H211.814Z" fill="url(#paint14_linear_155_138)"/>
<path d="M222.354 84.6246H223.107L224.949 87.7882L226.551 84.6246H227.304L225.189 88.6394C224.917 89.1532 224.693 89.4905 224.517 89.635C224.34 89.7795 224.116 89.8598 223.812 89.8598C223.603 89.8598 223.363 89.8117 223.091 89.7314V89.1532C223.283 89.2656 223.507 89.3138 223.732 89.3138C223.924 89.3138 224.068 89.2656 224.212 89.1532C224.34 89.0408 224.484 88.7999 224.645 88.4145L222.354 84.6246Z" fill="url(#paint15_linear_155_138)"/>
<path d="M8.02544 62.7685H6.67986L1.8742 76.7718L0 77.0609V77.9602H1.47373H2.53098H5.15807V77.0609L2.94747 76.7558L4.21295 73.0301H9.45111L10.7166 76.7879L8.48998 77.0609V77.9602H11.1171H13.1995H14.5451V77.0609L12.8151 76.8521L8.02544 62.7685ZM4.56537 72.0023L6.85606 65.2576L9.11472 72.0023H4.56537Z" fill="url(#paint16_linear_155_138)"/>
<path d="M21.5776 62.8809H19.7674H18.6942H17.6209H15.5385V63.7802L17.6209 64.0211C17.6529 65.9642 17.669 67.9234 17.669 69.8504V70.9746C17.669 72.9498 17.6529 74.8929 17.6209 76.8039L15.5385 77.0448V77.9441H17.6049H19.7514H21.8178V77.0448L19.7354 76.8039C19.7034 75.182 19.6873 73.6082 19.6873 71.9863H20.9048C25.4862 71.9863 27.2162 69.8665 27.2162 67.3453C27.2162 64.7277 25.3099 62.8809 21.5776 62.8809ZM21.2412 70.9585H19.6873V69.8504C19.6873 67.8431 19.7034 65.8518 19.7354 63.9087H21.145C23.8682 63.9087 25.0697 65.1612 25.0697 67.3453C25.0857 69.4971 23.9964 70.9585 21.2412 70.9585Z" fill="url(#paint17_linear_155_138)"/>
<path d="M35.418 69.8023L39.1183 64.0532L41.1207 63.7802V62.8809H39.8872H38.6217H35.9626V63.7802L37.8849 64.0853L34.8733 68.903L31.9419 64.0211L33.9763 63.7802V62.8809H31.2691H29.0265H27.6969V63.7802L29.6992 64.0211L33.6719 70.6373L29.6672 76.7558L27.4886 77.0609V77.9602H28.8823H30.1478H32.6627V77.0609L30.8846 76.7879L34.2166 71.5206L37.4043 76.82L35.3058 77.0609V77.9602H38.0931H40.3358H41.5852V77.0609L39.663 76.8361L35.418 69.8023Z" fill="url(#paint18_linear_155_138)"/>
<path d="M54.5443 62.8809H52.4138V63.7802L54.5443 64.0211V64.9364L46.9674 74.2506V69.8504C46.9674 67.8752 46.9834 65.9321 47.0154 64.0211L49.0979 63.7802V62.8809H47.0314H44.8849H42.8185V63.7802L44.9009 64.0211C44.933 65.9642 44.949 67.9234 44.949 69.8504V70.9746C44.949 72.9498 44.933 74.8929 44.9009 76.8039L42.8185 77.0448V77.9441H44.8849H46.9674H49.0979V77.0448L46.9674 76.8039V75.8565L54.5443 66.5905V70.5249C54.5443 72.8695 54.5443 74.8769 54.4962 76.8039L52.4138 77.0448V77.9441H54.4802H56.6267H58.6931V77.0448L56.6107 76.8039C56.5787 74.8608 56.5626 72.9016 56.5626 70.9746V69.8504C56.5626 67.8752 56.5787 65.9321 56.6107 64.0211L58.6931 63.7802V62.8809H56.6267H54.5443Z" fill="url(#paint19_linear_155_138)"/>
<path d="M67.5354 62.8809H65.3889H60.343L60.1667 66.8795H61.4162L61.9288 64.005H65.4049C65.4369 65.9481 65.453 67.9073 65.453 69.8504V70.9746C65.453 72.9498 65.4369 74.8929 65.4049 76.8039L63.0982 77.0448V77.9441H65.3889H67.5354H69.8261V77.0448L67.5194 76.8039C67.4874 74.8608 67.4713 72.9177 67.4713 70.9746V69.8504C67.4713 67.8752 67.4874 65.916 67.5194 64.005H70.9955L71.5081 66.8795H72.7575L72.5813 62.8809H67.5354Z" fill="url(#paint20_linear_155_138)"/>
<path d="M84.2112 76.8361H78.3964C78.3644 74.909 78.3483 72.9337 78.3483 70.7819H81.7443L82.0327 72.9177H83.0419V67.5861H82.0327L81.7283 69.738H78.3483C78.3483 67.7949 78.3644 65.8839 78.3964 64.005H83.7467L84.2433 66.8795H85.5088L85.3486 62.8809H78.4124H77.3392H76.2659H74.1995V63.7802L76.2819 64.0211C76.3139 65.9642 76.33 67.9234 76.33 69.8504V70.9746C76.33 72.9498 76.3139 74.8929 76.2819 76.8039L74.1995 77.0448V77.9441H76.2659H77.3392H78.4124H85.7971L85.9573 73.9455H84.6918L84.2112 76.8361Z" fill="url(#paint21_linear_155_138)"/>
<path d="M97.7471 73.1425C97.2345 71.6169 96.2414 70.7658 94.5594 70.4125C95.4564 69.995 96.0652 69.192 96.8501 67.4095C97.3467 66.2693 97.7151 65.5145 98.1316 64.8401C98.468 64.8883 98.8364 64.9364 99.2048 64.9364C100.278 64.9364 100.759 64.262 100.759 63.6999C100.759 63.1378 100.358 62.5758 99.6213 62.5115C98.2758 62.6882 97.3146 63.459 95.921 66.9598C94.8637 69.6417 94.255 69.9789 92.6211 69.9789H91.9323C91.9323 67.8431 91.9323 65.9 91.9803 64.0371L94.0788 63.7962V62.8969H92.0124H89.8659H87.7994V63.7962L89.8819 64.0371C89.9139 65.9803 89.9299 67.9394 89.9299 69.8665V70.9906C89.9299 72.9659 89.9139 74.909 89.8819 76.82L87.7994 77.0609V77.9602H89.8659H92.0124H94.0788V77.0609L91.9964 76.82C91.9643 74.9411 91.9483 73.0301 91.9483 70.9906H92.9094C94.4633 70.9906 95.3123 71.4563 95.6967 72.741L96.9142 76.7879C97.2345 77.8478 97.9394 78.185 99.3811 78.185C100.054 78.185 100.967 78.0886 101.383 77.9602V77.0609L99.0447 76.82L97.7471 73.1425Z" fill="url(#paint22_linear_155_138)"/>
<path d="M109.152 62.8809H107.006H101.96L101.784 66.8795H103.033L103.546 64.005H107.022C107.054 65.9481 107.07 67.9073 107.07 69.8504V70.9746C107.07 72.9498 107.054 74.8929 107.022 76.8039L104.715 77.0448V77.9441H107.006H109.152H111.443V77.0448L109.136 76.8039C109.104 74.8608 109.088 72.9177 109.088 70.9746V69.8504C109.088 67.8752 109.104 65.916 109.136 64.005H112.613L113.125 66.8795H114.375L114.198 62.8809H109.152Z" fill="url(#paint23_linear_155_138)"/>
<path d="M126.181 62.8809H123.842V63.7802L125.7 64.0532L122.416 72.1308L118.924 64.005L120.878 63.7641V62.8648H118.427H116.185H115.128V63.7641L116.697 63.9729L121.471 74.4112C121.055 75.3426 120.67 76.0813 120.238 76.6112C119.613 76.0171 119.18 75.8083 118.604 75.8083C117.931 75.8083 117.498 76.0331 117.21 76.4828C117.21 77.8799 117.947 78.2814 118.876 78.2814C120.446 78.2814 121.263 77.1733 121.904 75.6798L126.981 64.0532L128.792 63.7802V62.8809H127.494H126.181Z" fill="url(#paint24_linear_155_138)"/>
<path d="M141.671 67.3613C141.671 64.7277 139.764 62.8809 136.032 62.8809H134.222H133.149H132.075H130.009V63.7802L132.091 64.0211C132.124 65.9642 132.14 67.9234 132.14 69.8504V70.9746C132.14 72.9498 132.124 74.8929 132.091 76.8039L130.009 77.0448V77.9441H132.075H134.222H136.288V77.0448L134.206 76.8039C134.174 75.182 134.158 73.6082 134.158 71.9863H135.375C139.941 72.0023 141.671 69.8826 141.671 67.3613ZM134.158 70.9585V69.8504C134.158 67.8431 134.174 65.8518 134.206 63.9087H135.616C138.339 63.9087 139.54 65.1612 139.54 67.3453C139.54 69.4811 138.467 70.9425 135.696 70.9425H134.158V70.9585Z" fill="url(#paint25_linear_155_138)"/>
<path d="M148.975 62.7685H147.63L142.824 76.7718L140.934 77.0609V77.9602H142.408H143.465H146.092V77.0609L143.881 76.7558L145.147 73.0301H150.401L151.667 76.7879L149.44 77.0609V77.9602H152.067H154.149H155.495V77.0609L153.765 76.8521L148.975 62.7685ZM145.515 72.0023L147.806 65.2576L150.065 72.0023H145.515Z" fill="url(#paint26_linear_155_138)"/>
<path d="M178.706 73.1746C178.226 71.7936 177.425 70.83 175.615 70.4286C176.528 69.995 177.185 69.1599 177.953 67.4095C178.45 66.2854 178.802 65.5306 179.219 64.8722C179.523 64.9204 179.844 64.9364 180.148 64.9364C181.221 64.9364 181.702 64.262 181.702 63.6999C181.702 63.1378 181.253 62.5758 180.516 62.5115C179.283 62.7203 178.386 63.459 176.976 66.9598C175.951 69.5453 175.182 69.9789 173.612 69.9789H173.068C173.068 67.811 173.068 65.8839 173.116 64.0371L175.198 63.7962V62.8969H173.132H171.113H169.047V63.7962L171.129 64.0371C171.161 65.916 171.177 67.8431 171.177 69.9789H170.633C169.111 69.9789 168.326 69.5774 167.269 66.9598C165.859 63.443 164.962 62.7042 163.729 62.5115C162.992 62.5758 162.543 63.1378 162.543 63.6999C162.543 64.262 163.008 64.9364 164.097 64.9364C164.401 64.9364 164.722 64.9043 165.026 64.8722C165.443 65.5306 165.795 66.2854 166.292 67.4095C167.061 69.1599 167.717 69.995 168.63 70.4286C166.82 70.83 166.019 71.7936 165.539 73.1746L164.257 76.8361L161.919 77.0769V77.9762C162.319 78.1047 163.248 78.2011 163.921 78.2011C165.363 78.2011 166.067 77.8638 166.388 76.8039L167.621 72.7732C168.022 71.4885 168.919 70.9906 170.377 70.9906H171.177C171.177 73.0462 171.161 74.9572 171.129 76.82L169.047 77.0609V77.9602H171.113H173.132H175.198V77.0609L173.116 76.82C173.084 74.9251 173.068 73.014 173.068 70.9906H173.869C175.326 70.9906 176.223 71.4885 176.624 72.7732L177.857 76.8039C178.178 77.8638 178.883 78.2011 180.324 78.2011C180.997 78.2011 181.91 78.1047 182.327 77.9762V77.0769L179.988 76.8361L178.706 73.1746Z" fill="url(#paint27_linear_155_138)"/>
<path d="M195.094 62.8809H192.963V63.7802L195.094 64.0211V64.9364L187.517 74.2506V69.8504C187.517 67.8752 187.533 65.9321 187.565 64.0211L189.647 63.7802V62.8809H187.581H185.434H183.368V63.7802L185.45 64.0211C185.482 65.9642 185.498 67.9234 185.498 69.8504V70.9746C185.498 72.9498 185.482 74.8929 185.45 76.8039L183.368 77.0448V77.9441H185.434H187.517H189.647V77.0448L187.517 76.8039V75.8565L195.094 66.5905V70.5249C195.094 72.8695 195.094 74.8769 195.046 76.8039L192.963 77.0448V77.9441H195.03H197.176H199.242V77.0448L197.16 76.8039C197.128 74.8608 197.112 72.9016 197.112 70.9746V69.8504C197.112 67.8752 197.128 65.9321 197.16 64.0211L199.242 63.7802V62.8809H197.176H195.094Z" fill="url(#paint28_linear_155_138)"/>
<path d="M207.797 70.1234C209.879 69.5774 211.128 68.084 211.128 66.5102C211.128 63.9729 209.126 62.5436 206.131 62.5436C204.449 62.5436 202.831 62.9451 201.838 63.5072L201.966 66.5423H203.311L203.76 64.005C204.433 63.7802 205.121 63.6678 205.906 63.6678C207.797 63.6678 209.094 64.6152 209.094 66.5744C209.094 68.4212 208.069 69.6095 205.634 69.6095H204.801V70.7337H205.682C208.501 70.7337 209.414 71.9863 209.414 73.6564C209.414 75.9528 208.069 77.1733 205.57 77.1733C205.057 77.1733 204.417 77.1412 203.696 76.9324L203.407 75.9046C203.087 74.7644 202.847 74.2345 202.062 74.2345C201.565 74.2345 201.181 74.4754 200.892 74.9732C201.325 77.3178 203.343 78.2813 205.826 78.2813C209.35 78.2813 211.529 76.4667 211.529 73.8491C211.545 71.9541 210.408 70.541 207.797 70.1234Z" fill="url(#paint29_linear_155_138)"/>
<path d="M224.488 62.8809H222.422V63.7802L224.504 64.0211C224.536 65.916 224.552 67.827 224.552 69.722H217.152C217.152 67.7949 217.168 65.9 217.2 64.0211L219.282 63.7802V62.8809H217.216H215.069H213.003V63.7802L215.085 64.0211C215.117 65.9642 215.133 67.9234 215.133 69.8504V70.9746C215.133 72.9498 215.117 74.8929 215.085 76.8039L213.003 77.0448V77.9441H215.069H217.216H219.282V77.0448L217.2 76.8039C217.168 74.909 217.152 72.9659 217.152 70.7497H224.552C224.552 72.998 224.552 74.9411 224.504 76.8039L222.422 77.0448V77.9441H224.488H226.635H228.701V77.0448L226.619 76.8039C226.587 74.8608 226.571 72.9016 226.571 70.9746V69.8504C226.571 67.8752 226.587 65.9321 226.619 64.0211L228.701 63.7802V62.8809H226.635H224.488Z" fill="url(#paint30_linear_155_138)"/>
<path d="M244.528 64.0211L246.61 63.7802V62.8809H244.544H242.461H240.331V63.7802L242.461 64.0211V64.9364L234.884 74.2506V69.8504C234.884 67.8752 234.9 65.9321 234.932 64.0211L237.015 63.7802V62.8809H234.948H232.802H230.735V63.7802L232.818 64.0211C232.85 65.9642 232.866 67.9234 232.866 69.8504V70.9746C232.866 72.9498 232.85 74.8929 232.818 76.8039L230.735 77.0448V77.9441H232.802H234.884H237.015V77.0448L234.884 76.8039V75.8565L242.461 66.5905V70.5249C242.461 72.8695 242.461 74.8769 242.413 76.8039L240.331 77.0448V77.9441H242.397H244.544H246.61V77.0448L244.528 76.8039C244.496 74.8608 244.48 72.9016 244.48 70.9746V69.8504C244.48 67.8913 244.48 65.9481 244.528 64.0211Z" fill="url(#paint31_linear_155_138)"/>
<path d="M150.566 0.294861C149.877 0.294861 149.333 0.808745 149.221 1.48322H135.701V0.872981H110.743V1.48322H97.2715C97.1754 0.808745 96.6148 0.294861 95.926 0.294861C95.1571 0.294861 94.5483 0.921157 94.5483 1.67592C94.5483 2.43069 95.1731 3.05699 95.926 3.05699C96.1022 3.05699 96.2784 3.02487 96.4225 2.96064L102.878 14.2019L102.366 14.4909L114.844 36.1704L115.325 35.8974L122.645 48.6482C122.325 48.9051 122.117 49.2744 122.117 49.708C122.117 50.4789 122.741 51.0891 123.494 51.0891C124.263 51.0891 124.872 50.4628 124.872 49.708C124.872 49.2584 124.648 48.889 124.327 48.6321L131.472 35.9616L132 36.2507L144.335 14.3624L143.806 14.0573L150.054 2.96064C150.214 3.02487 150.374 3.05699 150.55 3.05699C151.319 3.05699 151.928 2.43069 151.928 1.67592C151.928 0.921157 151.319 0.294861 150.566 0.294861ZM149.221 1.88469C149.237 2.01316 149.253 2.14163 149.301 2.25404L130.03 13.4471L123.719 2.47887H135.701V1.88469H149.221ZM123.03 18.9874L123.078 24.1102H112.105L117.503 14.5391L121.941 17.1246C121.876 17.2852 121.844 17.4618 121.844 17.6385C121.844 18.329 122.357 18.891 123.03 18.9874ZM123.43 18.9713C124.087 18.8589 124.6 18.3129 124.6 17.6385C124.6 17.4618 124.568 17.2852 124.504 17.1246L128.845 14.6033L134.323 24.1262H123.494L123.43 18.9713ZM124.279 16.7873C124.023 16.4662 123.655 16.2574 123.222 16.2574C122.79 16.2574 122.421 16.4662 122.165 16.7873L117.712 14.1858L123.094 4.63076L128.636 14.2661L124.279 16.7873ZM122.453 2.47887L116.318 13.3668L97.2075 2.18981C97.2395 2.09346 97.2555 1.98104 97.2715 1.86863H110.743V2.47887H122.453ZM96.775 2.75187C96.8551 2.68763 96.9191 2.6234 96.9992 2.5431L116.142 13.7361L110.039 24.5598L103.791 13.704L103.263 14.0091L96.775 2.75187ZM115.693 35.6886L116.254 35.3675L110.695 25.7161H123.094L123.302 48.3591C123.206 48.3752 123.094 48.3751 123.014 48.4233L115.693 35.6886ZM124.007 48.4073C123.911 48.3751 123.799 48.3591 123.703 48.343L123.494 25.7161H136.101L130.623 35.4478L131.151 35.7368L124.007 48.4073ZM143.47 13.8646L142.941 13.5756L136.582 24.865L130.222 13.8164L149.525 2.59128C149.589 2.65552 149.653 2.70369 149.717 2.76793L143.47 13.8646Z" fill="url(#paint32_linear_155_138)"/>
</g>
<defs>
<filter id="filter0_d_155_138" x="0" y="0.294861" width="252.61" height="96.7051" filterUnits="userSpaceOnUse" color-interpolation-filters="sRGB">
<feFlood flood-opacity="0" result="BackgroundImageFix"/>
<feColorMatrix in="SourceAlpha" type="matrix" values="0 0 0 0 0 0 0 0 0 0 0 0 0 0 0 0 0 0 127 0" result="hardAlpha"/>
<feOffset dx="3" dy="3"/>
<feGaussianBlur stdDeviation="1.5"/>
<feComposite in2="hardAlpha" operator="out"/>
<feColorMatrix type="matrix" values="0 0 0 0 0 0 0 0 0 0 0 0 0 0 0 0 0 0 0.25 0"/>
<feBlend mode="normal" in2="BackgroundImageFix" result="effect1_dropShadow_155_138"/>
<feBlend mode="normal" in="SourceGraphic" in2="effect1_dropShadow_155_138" result="shape"/>
</filter>
<linearGradient id="paint0_linear_155_138" x1="0.28301" y1="87.2472" x2="245.371" y2="86.8514" gradientUnits="userSpaceOnUse">
<stop offset="0.00261016" stop-color="#7167AC"/>
<stop offset="0.4939" stop-color="#6893AB"/>
<stop offset="0.9982" stop-color="#62B791"/>
</linearGradient>
<linearGradient id="paint1_linear_155_138" x1="0.282955" y1="87.2646" x2="245.371" y2="86.8688" gradientUnits="userSpaceOnUse">
<stop offset="0.00261016" stop-color="#7167AC"/>
<stop offset="0.4939" stop-color="#6893AB"/>
<stop offset="0.9982" stop-color="#62B791"/>
</linearGradient>
<linearGradient id="paint2_linear_155_138" x1="0.283162" y1="87.2866" x2="245.371" y2="86.8908" gradientUnits="userSpaceOnUse">
<stop offset="0.00261016" stop-color="#7167AC"/>
<stop offset="0.4939" stop-color="#6893AB"/>
<stop offset="0.9982" stop-color="#62B791"/>
</linearGradient>
<linearGradient id="paint3_linear_155_138" x1="0.283127" y1="87.3073" x2="245.371" y2="86.9115" gradientUnits="userSpaceOnUse">
<stop offset="0.00261016" stop-color="#7167AC"/>
<stop offset="0.4939" stop-color="#6893AB"/>
<stop offset="0.9982" stop-color="#62B791"/>
</linearGradient>
<linearGradient id="paint4_linear_155_138" x1="0.283121" y1="87.3269" x2="245.371" y2="86.9311" gradientUnits="userSpaceOnUse">
<stop offset="0.00261016" stop-color="#7167AC"/>
<stop offset="0.4939" stop-color="#6893AB"/>
<stop offset="0.9982" stop-color="#62B791"/>
</linearGradient>
<linearGradient id="paint5_linear_155_138" x1="0.283049" y1="87.3471" x2="245.371" y2="86.9513" gradientUnits="userSpaceOnUse">
<stop offset="0.00261016" stop-color="#7167AC"/>
<stop offset="0.4939" stop-color="#6893AB"/>
<stop offset="0.9982" stop-color="#62B791"/>
</linearGradient>
<linearGradient id="paint6_linear_155_138" x1="0.283289" y1="87.38" x2="245.372" y2="86.9842" gradientUnits="userSpaceOnUse">
<stop offset="0.00261016" stop-color="#7167AC"/>
<stop offset="0.4939" stop-color="#6893AB"/>
<stop offset="0.9982" stop-color="#62B791"/>
</linearGradient>
<linearGradient id="paint7_linear_155_138" x1="0.2832" y1="87.3999" x2="245.372" y2="87.0041" gradientUnits="userSpaceOnUse">
<stop offset="0.00261016" stop-color="#7167AC"/>
<stop offset="0.4939" stop-color="#6893AB"/>
<stop offset="0.9982" stop-color="#62B791"/>
</linearGradient>
<linearGradient id="paint8_linear_155_138" x1="0.283471" y1="87.4197" x2="245.372" y2="87.0239" gradientUnits="userSpaceOnUse">
<stop offset="0.00261016" stop-color="#7167AC"/>
<stop offset="0.4939" stop-color="#6893AB"/>
<stop offset="0.9982" stop-color="#62B791"/>
</linearGradient>
<linearGradient id="paint9_linear_155_138" x1="0.283153" y1="87.4438" x2="245.372" y2="87.048" gradientUnits="userSpaceOnUse">
<stop offset="0.00261016" stop-color="#7167AC"/>
<stop offset="0.4939" stop-color="#6893AB"/>
<stop offset="0.9982" stop-color="#62B791"/>
</linearGradient>
<linearGradient id="paint10_linear_155_138" x1="0.283496" y1="87.4788" x2="245.372" y2="87.083" gradientUnits="userSpaceOnUse">
<stop offset="0.00261016" stop-color="#7167AC"/>
<stop offset="0.4939" stop-color="#6893AB"/>
<stop offset="0.9982" stop-color="#62B791"/>
</linearGradient>
<linearGradient id="paint11_linear_155_138" x1="0.283651" y1="87.5326" x2="245.372" y2="87.1368" gradientUnits="userSpaceOnUse">
<stop offset="0.00261016" stop-color="#7167AC"/>
<stop offset="0.4939" stop-color="#6893AB"/>
<stop offset="0.9982" stop-color="#62B791"/>
</linearGradient>
<linearGradient id="paint12_linear_155_138" x1="0.284672" y1="88.1234" x2="245.373" y2="87.7276" gradientUnits="userSpaceOnUse">
<stop offset="0.00261016" stop-color="#7167AC"/>
<stop offset="0.4939" stop-color="#6893AB"/>
<stop offset="0.9982" stop-color="#62B791"/>
</linearGradient>
<linearGradient id="paint13_linear_155_138" x1="0.283251" y1="87.5374" x2="245.372" y2="87.1416" gradientUnits="userSpaceOnUse">
<stop offset="0.00261016" stop-color="#7167AC"/>
<stop offset="0.4939" stop-color="#6893AB"/>
<stop offset="0.9982" stop-color="#62B791"/>
</linearGradient>
<linearGradient id="paint14_linear_155_138" x1="0.28309" y1="87.5568" x2="245.372" y2="87.161" gradientUnits="userSpaceOnUse">
<stop offset="0.00261016" stop-color="#7167AC"/>
<stop offset="0.4939" stop-color="#6893AB"/>
<stop offset="0.9982" stop-color="#62B791"/>
</linearGradient>
<linearGradient id="paint15_linear_155_138" x1="0.283818" y1="87.6098" x2="245.372" y2="87.214" gradientUnits="userSpaceOnUse">
<stop offset="0.00261016" stop-color="#7167AC"/>
<stop offset="0.4939" stop-color="#6893AB"/>
<stop offset="0.9982" stop-color="#62B791"/>
</linearGradient>
<linearGradient id="paint16_linear_155_138" x1="1.41254" y1="70.3675" x2="243.723" y2="70.3675" gradientUnits="userSpaceOnUse">
<stop offset="0.00261016" stop-color="#7167AC"/>
<stop offset="0.4948" stop-color="#6893AB"/>
<stop offset="1" stop-color="#62B791"/>
</linearGradient>
<linearGradient id="paint17_linear_155_138" x1="1.41272" y1="70.4236" x2="243.723" y2="70.4236" gradientUnits="userSpaceOnUse">
<stop offset="0.00261016" stop-color="#7167AC"/>
<stop offset="0.4939" stop-color="#6893AB"/>
<stop offset="0.9982" stop-color="#62B791"/>
</linearGradient>
<linearGradient id="paint18_linear_155_138" x1="1.41287" y1="70.4236" x2="243.724" y2="70.4236" gradientUnits="userSpaceOnUse">
<stop offset="0.00261016" stop-color="#7167AC"/>
<stop offset="0.4939" stop-color="#6893AB"/>
<stop offset="0.9982" stop-color="#62B791"/>
</linearGradient>
<linearGradient id="paint19_linear_155_138" x1="1.41268" y1="70.4236" x2="243.723" y2="70.4236" gradientUnits="userSpaceOnUse">
<stop offset="0.00261016" stop-color="#7167AC"/>
<stop offset="0.4939" stop-color="#6893AB"/>
<stop offset="0.9982" stop-color="#62B791"/>
</linearGradient>
<linearGradient id="paint20_linear_155_138" x1="1.41257" y1="70.4236" x2="243.723" y2="70.4236" gradientUnits="userSpaceOnUse">
<stop offset="0.00261016" stop-color="#7167AC"/>
<stop offset="0.4939" stop-color="#6893AB"/>
<stop offset="0.9982" stop-color="#62B791"/>
</linearGradient>
<linearGradient id="paint21_linear_155_138" x1="1.41275" y1="70.4236" x2="243.723" y2="70.4236" gradientUnits="userSpaceOnUse">
<stop offset="0.00261016" stop-color="#7167AC"/>
<stop offset="0.4939" stop-color="#6893AB"/>
<stop offset="0.9982" stop-color="#62B791"/>
</linearGradient>
<linearGradient id="paint22_linear_155_138" x1="1.41274" y1="70.3452" x2="243.723" y2="70.3452" gradientUnits="userSpaceOnUse">
<stop offset="0.00261016" stop-color="#7167AC"/>
<stop offset="0.4939" stop-color="#6893AB"/>
<stop offset="0.9982" stop-color="#62B791"/>
</linearGradient>
<linearGradient id="paint23_linear_155_138" x1="1.41267" y1="70.4236" x2="243.723" y2="70.4236" gradientUnits="userSpaceOnUse">
<stop offset="0.00261016" stop-color="#7167AC"/>
<stop offset="0.4939" stop-color="#6893AB"/>
<stop offset="0.9982" stop-color="#62B791"/>
</linearGradient>
<linearGradient id="paint24_linear_155_138" x1="1.41276" y1="70.5922" x2="243.723" y2="70.5922" gradientUnits="userSpaceOnUse">
<stop offset="0.00261016" stop-color="#7167AC"/>
<stop offset="0.4939" stop-color="#6893AB"/>
<stop offset="0.9982" stop-color="#62B791"/>
</linearGradient>
<linearGradient id="paint25_linear_155_138" x1="1.41272" y1="70.4236" x2="243.723" y2="70.4236" gradientUnits="userSpaceOnUse">
<stop offset="0.00261016" stop-color="#7167AC"/>
<stop offset="0.4939" stop-color="#6893AB"/>
<stop offset="0.9982" stop-color="#62B791"/>
</linearGradient>
<linearGradient id="paint26_linear_155_138" x1="1.41285" y1="70.3675" x2="243.723" y2="70.3675" gradientUnits="userSpaceOnUse">
<stop offset="0.00261016" stop-color="#7167AC"/>
<stop offset="0.4939" stop-color="#6893AB"/>
<stop offset="0.9982" stop-color="#62B791"/>
</linearGradient>
<linearGradient id="paint27_linear_155_138" x1="1.41278" y1="70.3452" x2="243.723" y2="70.3452" gradientUnits="userSpaceOnUse">
<stop offset="0.00261016" stop-color="#7167AC"/>
<stop offset="0.4939" stop-color="#6893AB"/>
<stop offset="0.9982" stop-color="#62B791"/>
</linearGradient>
<linearGradient id="paint28_linear_155_138" x1="1.41277" y1="70.4236" x2="243.723" y2="70.4236" gradientUnits="userSpaceOnUse">
<stop offset="0.00261016" stop-color="#7167AC"/>
<stop offset="0.4939" stop-color="#6893AB"/>
<stop offset="0.9982" stop-color="#62B791"/>
</linearGradient>
<linearGradient id="paint29_linear_155_138" x1="1.41277" y1="70.4236" x2="243.723" y2="70.4236" gradientUnits="userSpaceOnUse">
<stop offset="0.00261016" stop-color="#7167AC"/>
<stop offset="0.4939" stop-color="#6893AB"/>
<stop offset="0.9982" stop-color="#62B791"/>
</linearGradient>
<linearGradient id="paint30_linear_155_138" x1="1.41273" y1="70.4236" x2="243.723" y2="70.4236" gradientUnits="userSpaceOnUse">
<stop offset="0.00261016" stop-color="#7167AC"/>
<stop offset="0.4939" stop-color="#6893AB"/>
<stop offset="0.9982" stop-color="#62B791"/>
</linearGradient>
<linearGradient id="paint31_linear_155_138" x1="1.41259" y1="70.4236" x2="243.723" y2="70.4236" gradientUnits="userSpaceOnUse">
<stop offset="0.00261016" stop-color="#7167AC"/>
<stop offset="0.4939" stop-color="#6893AB"/>
<stop offset="0.9982" stop-color="#62B791"/>
</linearGradient>
<linearGradient id="paint32_linear_155_138" x1="19.4227" y1="25.688" x2="229.578" y2="25.688" gradientUnits="userSpaceOnUse">
<stop offset="0.00261016" stop-color="#7167AC"/>
<stop offset="0.4939" stop-color="#6893AB"/>
<stop offset="0.9982" stop-color="#62B791"/>
</linearGradient>
</defs>
</svg>
