<svg width="257" height="101" viewBox="0 0 257 101" fill="none" xmlns="http://www.w3.org/2000/svg">
<g filter="url(#filter0_d_155_138)">
<path d="M21.1711 86.6246H21.8439V90.7357L24.8555 86.6246H25.6084V91.7956H24.9356V87.7006L21.924 91.7956H21.1711V86.6246Z" fill="url(#paint0_linear_155_138)"/>
<path d="M33.2493 90.3342L33.9701 90.1576C34.0182 90.3985 34.1623 90.6554 34.4026 90.9124C34.6429 91.1693 34.9473 91.2978 35.3477 91.2978C35.7322 91.2978 36.0365 91.2014 36.2768 91.0248C36.5171 90.8481 36.6292 90.6233 36.6292 90.3503C36.6292 90.0612 36.5011 89.8364 36.2608 89.6758C36.0205 89.5152 35.6841 89.4189 35.2837 89.4189H34.9312V88.8247C35.2676 88.8247 35.54 88.8087 35.7162 88.7765C35.8924 88.7444 36.0526 88.6481 36.1967 88.5035C36.3409 88.359 36.421 88.1824 36.421 87.9896C36.421 87.7809 36.3249 87.5882 36.1487 87.4115C35.9725 87.2349 35.7001 87.1546 35.3638 87.1546C35.0914 87.1546 34.8511 87.2188 34.6589 87.3312C34.4667 87.4436 34.3225 87.6203 34.2264 87.8291C34.1303 88.0378 34.0983 88.2145 34.0983 88.359L33.3774 88.2145C33.5536 87.1225 34.2104 86.5604 35.3638 86.5604C35.9244 86.5604 36.3569 86.7049 36.6773 86.9779C36.9977 87.267 37.1579 87.5882 37.1579 87.9575C37.1579 88.4393 36.9176 88.8087 36.421 89.0817C36.7093 89.1619 36.9496 89.3065 37.1418 89.5313C37.3341 89.7561 37.4302 90.0291 37.4302 90.3342C37.4302 90.7839 37.238 91.1532 36.8535 91.4584C36.437 91.7314 35.9404 91.892 35.3317 91.892C34.2585 91.892 33.5696 91.3781 33.2493 90.3342Z" fill="url(#paint1_linear_155_138)"/>
<path d="M45.0232 91.7956V86.6246H46.1445L47.4901 90.2861L47.7624 91.0569C47.8265 90.8642 47.9226 90.5912 48.0668 90.2218L49.4124 86.6246H50.4215V91.7956H49.7007V87.4758L48.0508 91.7956H47.378L45.744 87.3955V91.7956H45.0232Z" fill="url(#paint2_linear_155_138)"/>
<path d="M58.3508 91.7956V86.6246H62.4356V87.2349H59.1037V88.8086H62.2274V89.4189H59.1037V91.1854H62.5638V91.7956H58.3508Z" fill="url(#paint3_linear_155_138)"/>
<path d="M70.3169 91.7956V86.6246H71.0698V88.7444H74.0012V86.6246H74.7541V91.7956H74.0012V89.3546H71.0698V91.7956H70.3169Z" fill="url(#paint4_linear_155_138)"/>
<path d="M82.7474 86.6246H83.4202V90.7357L86.4318 86.6246H87.1847V91.7956H86.5119V87.7006L83.5003 91.7956H82.7474V86.6246Z" fill="url(#paint5_linear_155_138)"/>
<path d="M108.057 89.9809L108.81 90.1576C108.65 90.7357 108.346 91.1693 107.945 91.4584C107.513 91.7474 107.016 91.8919 106.423 91.8919C105.895 91.8919 105.462 91.7956 105.078 91.6029C104.709 91.4102 104.405 91.1051 104.165 90.6715C103.925 90.2379 103.812 89.7401 103.812 89.178C103.812 88.6159 103.925 88.1342 104.165 87.7327C104.405 87.3312 104.725 87.0422 105.126 86.8334C105.526 86.6246 105.975 86.5283 106.472 86.5283C107.016 86.5283 107.481 86.6567 107.881 86.9137C108.282 87.1706 108.554 87.54 108.698 88.0378L107.961 88.1984C107.705 87.4758 107.208 87.1225 106.455 87.1225C106.071 87.1225 105.751 87.1867 105.478 87.3473C105.206 87.5079 104.982 87.7166 104.822 88.0218C104.661 88.3269 104.581 88.7123 104.581 89.178C104.581 89.8846 104.741 90.4145 105.078 90.7678C105.414 91.1211 105.847 91.2978 106.407 91.2978C106.808 91.2978 107.16 91.1854 107.465 90.9766C107.753 90.7518 107.961 90.4306 108.057 89.9809Z" fill="url(#paint6_linear_155_138)"/>
<path d="M116.435 91.7956V86.6246H118.55C118.982 86.6246 119.319 86.6728 119.575 86.7692C119.831 86.8655 120.039 87.0261 120.184 87.2349C120.328 87.4436 120.424 87.6845 120.424 87.9415C120.424 88.1823 120.36 88.3911 120.216 88.5838C120.071 88.7765 119.879 88.9211 119.639 89.0495C119.959 89.1459 120.232 89.2904 120.408 89.4992C120.6 89.7079 120.696 89.9809 120.696 90.3021C120.696 90.6233 120.616 90.8963 120.44 91.1211C120.264 91.362 120.039 91.5226 119.751 91.635C119.463 91.7474 119.078 91.7956 118.582 91.7956H116.435ZM117.188 88.7926H118.406C118.726 88.7926 118.95 88.7765 119.094 88.7444C119.287 88.6962 119.431 88.6159 119.543 88.5035C119.655 88.3911 119.703 88.2305 119.703 88.0218C119.703 87.829 119.655 87.6845 119.559 87.556C119.463 87.4276 119.335 87.3473 119.174 87.2991C119.014 87.2509 118.726 87.2349 118.325 87.2349H117.188V88.7926ZM117.188 91.1854H118.598C118.902 91.1854 119.142 91.1693 119.287 91.1211C119.495 91.0569 119.655 90.9605 119.767 90.816C119.879 90.6715 119.927 90.4948 119.927 90.2861C119.927 90.0934 119.879 89.9328 119.767 89.7882C119.655 89.6598 119.511 89.5473 119.335 89.4992C119.158 89.4349 118.87 89.4028 118.486 89.4028H117.188V91.1854Z" fill="url(#paint7_linear_155_138)"/>
<path d="M128.241 89.2743C128.241 88.3911 128.498 87.7166 129.01 87.2349C129.523 86.7531 130.163 86.5283 130.932 86.5283C131.429 86.5283 131.877 86.6407 132.294 86.8495C132.71 87.0582 133.031 87.3633 133.271 87.7648C133.511 88.1663 133.624 88.6481 133.624 89.2101C133.624 89.9809 133.399 90.6072 132.935 91.089C132.422 91.6189 131.749 91.8919 130.932 91.8919C130.099 91.8919 129.427 91.6189 128.93 91.0729C128.465 90.5751 128.241 89.9809 128.241 89.2743ZM129.01 89.2904C129.01 89.9328 129.202 90.4306 129.571 90.7678C129.939 91.1211 130.404 91.2978 130.932 91.2978C131.477 91.2978 131.942 91.1211 132.31 90.7678C132.678 90.4145 132.871 89.8846 132.871 89.194C132.871 88.7444 132.775 88.359 132.582 88.0057C132.438 87.7327 132.214 87.5239 131.926 87.3633C131.621 87.2027 131.301 87.1225 130.948 87.1225C130.388 87.1225 129.923 87.2991 129.555 87.6524C129.186 88.0057 129.01 88.5517 129.01 89.2904Z" fill="url(#paint8_linear_155_138)"/>
<path d="M141.344 86.6246H142.097V88.9532H143.203C143.251 88.2145 143.523 87.6364 143.988 87.2028C144.452 86.7692 145.045 86.5443 145.734 86.5443C146.438 86.5443 147.047 86.7692 147.544 87.2349C148.04 87.7006 148.281 88.3429 148.281 89.1941C148.281 90.0291 148.04 90.7036 147.56 91.1693C147.079 91.635 146.454 91.892 145.685 91.892C144.949 91.892 144.356 91.6671 143.939 91.2335C143.523 90.7999 143.267 90.2379 143.187 89.5634H142.081V91.8117H141.328V86.6246H141.344ZM143.923 89.2422C143.923 89.9006 144.084 90.3985 144.42 90.7678C144.756 91.1372 145.173 91.3138 145.702 91.3138C146.246 91.3138 146.679 91.1372 147.015 90.7678C147.351 90.3985 147.496 89.8846 147.496 89.2101C147.496 88.5517 147.335 88.0378 147.015 87.6845C146.695 87.3152 146.262 87.1385 145.718 87.1385C145.173 87.1385 144.74 87.3152 144.404 87.6845C144.084 88.0378 143.923 88.5517 143.923 89.2422Z" fill="url(#paint9_linear_155_138)"/>
<path d="M168.929 89.9809L169.682 90.1576C169.522 90.7357 169.217 91.1693 168.817 91.4584C168.4 91.7474 167.904 91.8919 167.311 91.8919C166.782 91.8919 166.35 91.7956 165.965 91.6029C165.597 91.4102 165.293 91.1051 165.052 90.6715C164.812 90.2379 164.7 89.7401 164.7 89.178C164.7 88.6159 164.812 88.1342 165.052 87.7327C165.293 87.3312 165.613 87.0422 166.013 86.8334C166.414 86.6246 166.862 86.5283 167.359 86.5283C167.904 86.5283 168.368 86.6567 168.769 86.9137C169.169 87.1706 169.442 87.54 169.586 88.0378L168.849 88.1984C168.593 87.4758 168.096 87.1225 167.343 87.1225C166.959 87.1225 166.638 87.1867 166.366 87.3473C166.094 87.5079 165.869 87.7166 165.709 88.0218C165.549 88.3269 165.469 88.7123 165.469 89.178C165.469 89.8846 165.629 90.4145 165.965 90.7678C166.302 91.1211 166.734 91.2978 167.295 91.2978C167.695 91.2978 168.048 91.1854 168.352 90.9766C168.625 90.7518 168.817 90.4306 168.929 89.9809Z" fill="url(#paint10_linear_155_138)"/>
<path d="M176.762 86.6246H177.515L179.357 89.7882L180.959 86.6246H181.712L179.597 90.6394C179.325 91.1532 179.101 91.4905 178.925 91.635C178.748 91.7795 178.524 91.8598 178.22 91.8598C178.012 91.8598 177.771 91.8117 177.499 91.7314V91.1532C177.691 91.2656 177.915 91.3138 178.14 91.3138C178.332 91.3138 178.476 91.2656 178.62 91.1532C178.748 91.0408 178.893 90.7999 179.053 90.4145L176.762 86.6246Z" fill="url(#paint11_linear_155_138)"/>
<path d="M189.577 86.6246H193.005V91.1854H193.518V93H192.845V91.7956H189.113V93H188.44V91.1854H188.872C189.337 90.5591 189.561 89.2904 189.561 87.3794V86.6246H189.577ZM192.268 87.2349H190.298V87.4918C190.298 87.9254 190.25 88.5196 190.17 89.2904C190.09 90.0452 189.914 90.6875 189.657 91.1854H192.252V87.2349H192.268Z" fill="url(#paint12_linear_155_138)"/>
<path d="M201.159 86.6246H201.912V88.8408H203.257C203.754 88.8408 204.138 88.8889 204.443 88.9692C204.731 89.0495 204.971 89.2262 205.148 89.451C205.324 89.6919 205.42 89.9649 205.42 90.2861C205.42 90.6875 205.276 91.0408 204.971 91.3299C204.667 91.635 204.122 91.7795 203.305 91.7795H201.159V86.6246ZM201.896 91.2175H203.257C203.722 91.2175 204.058 91.1532 204.266 91.0087C204.475 90.8642 204.587 90.6233 204.587 90.3021C204.587 90.0933 204.523 89.9006 204.395 89.7722C204.266 89.6276 204.106 89.5473 203.914 89.4992C203.722 89.451 203.369 89.4349 202.889 89.4349H201.896V91.2175Z" fill="url(#paint13_linear_155_138)"/>
<path d="M213.061 86.6246H216.729V87.2349H213.814V88.8247H215.159C215.656 88.8247 216.056 88.8729 216.345 88.9532C216.633 89.0335 216.873 89.2101 217.049 89.451C217.226 89.6919 217.322 89.9649 217.322 90.2861C217.322 90.5912 217.242 90.8642 217.065 91.1051C216.889 91.3459 216.681 91.5226 216.425 91.635C216.152 91.7314 215.768 91.7956 215.271 91.7956H213.061V86.6246ZM213.814 91.2175H215.303C215.688 91.2175 215.992 91.1532 216.2 91.0087C216.409 90.8642 216.521 90.6394 216.521 90.3182C216.521 90.0934 216.457 89.9167 216.345 89.7722C216.232 89.6276 216.056 89.5313 215.864 89.4992C215.656 89.451 215.319 89.4349 214.823 89.4349H213.83V91.2175H213.814Z" fill="url(#paint14_linear_155_138)"/>
<path d="M224.354 86.6246H225.107L226.949 89.7882L228.551 86.6246H229.304L227.189 90.6394C226.917 91.1532 226.693 91.4905 226.517 91.635C226.34 91.7795 226.116 91.8598 225.812 91.8598C225.603 91.8598 225.363 91.8117 225.091 91.7314V91.1532C225.283 91.2656 225.507 91.3138 225.732 91.3138C225.924 91.3138 226.068 91.2656 226.212 91.1532C226.34 91.0408 226.484 90.7999 226.645 90.4145L224.354 86.6246Z" fill="url(#paint15_linear_155_138)"/>
<path d="M10.0254 64.7685H8.67986L3.8742 78.7718L2 79.0609V79.9602H3.47373H4.53098H7.15807V79.0609L4.94747 78.7558L6.21295 75.0301H11.4511L12.7166 78.7879L10.49 79.0609V79.9602H13.1171H15.1995H16.5451V79.0609L14.8151 78.8521L10.0254 64.7685ZM6.56537 74.0023L8.85606 67.2576L11.1147 74.0023H6.56537Z" fill="url(#paint16_linear_155_138)"/>
<path d="M23.5776 64.8809H21.7674H20.6942H19.6209H17.5385V65.7802L19.6209 66.0211C19.6529 67.9642 19.669 69.9234 19.669 71.8504V72.9746C19.669 74.9498 19.6529 76.8929 19.6209 78.8039L17.5385 79.0448V79.9441H19.6049H21.7514H23.8178V79.0448L21.7354 78.8039C21.7034 77.182 21.6873 75.6082 21.6873 73.9863H22.9048C27.4862 73.9863 29.2162 71.8665 29.2162 69.3453C29.2162 66.7277 27.3099 64.8809 23.5776 64.8809ZM23.2412 72.9585H21.6873V71.8504C21.6873 69.8431 21.7034 67.8518 21.7354 65.9087H23.145C25.8682 65.9087 27.0697 67.1612 27.0697 69.3453C27.0857 71.4971 25.9964 72.9585 23.2412 72.9585Z" fill="url(#paint17_linear_155_138)"/>
<path d="M37.418 71.8023L41.1183 66.0532L43.1207 65.7802V64.8809H41.8872H40.6217H37.9626V65.7802L39.8849 66.0853L36.8733 70.903L33.9419 66.0211L35.9763 65.7802V64.8809H33.2691H31.0265H29.6969V65.7802L31.6992 66.0211L35.6719 72.6373L31.6672 78.7558L29.4886 79.0609V79.9602H30.8823H32.1478H34.6627V79.0609L32.8846 78.7879L36.2166 73.5206L39.4043 78.82L37.3058 79.0609V79.9602H40.0931H42.3358H43.5852V79.0609L41.663 78.8361L37.418 71.8023Z" fill="url(#paint18_linear_155_138)"/>
<path d="M56.5443 64.8809H54.4138V65.7802L56.5443 66.0211V66.9364L48.9674 76.2506V71.8504C48.9674 69.8752 48.9834 67.9321 49.0154 66.0211L51.0979 65.7802V64.8809H49.0314H46.8849H44.8185V65.7802L46.9009 66.0211C46.933 67.9642 46.949 69.9234 46.949 71.8504V72.9746C46.949 74.9498 46.933 76.8929 46.9009 78.8039L44.8185 79.0448V79.9441H46.8849H48.9674H51.0979V79.0448L48.9674 78.8039V77.8565L56.5443 68.5905V72.5249C56.5443 74.8695 56.5443 76.8769 56.4962 78.8039L54.4138 79.0448V79.9441H56.4802H58.6267H60.6931V79.0448L58.6107 78.8039C58.5787 76.8608 58.5626 74.9016 58.5626 72.9746V71.8504C58.5626 69.8752 58.5787 67.9321 58.6107 66.0211L60.6931 65.7802V64.8809H58.6267H56.5443Z" fill="url(#paint19_linear_155_138)"/>
<path d="M69.5354 64.8809H67.3889H62.343L62.1667 68.8795H63.4162L63.9288 66.005H67.4049C67.4369 67.9481 67.453 69.9073 67.453 71.8504V72.9746C67.453 74.9498 67.4369 76.8929 67.4049 78.8039L65.0982 79.0448V79.9441H67.3889H69.5354H71.8261V79.0448L69.5194 78.8039C69.4874 76.8608 69.4713 74.9177 69.4713 72.9746V71.8504C69.4713 69.8752 69.4874 67.916 69.5194 66.005H72.9955L73.5081 68.8795H74.7575L74.5813 64.8809H69.5354Z" fill="url(#paint20_linear_155_138)"/>
<path d="M86.2112 78.8361H80.3964C80.3644 76.909 80.3483 74.9337 80.3483 72.7819H83.7443L84.0327 74.9177H85.0419V69.5861H84.0327L83.7283 71.738H80.3483C80.3483 69.7949 80.3644 67.8839 80.3964 66.005H85.7467L86.2433 68.8795H87.5088L87.3486 64.8809H80.4124H79.3392H78.2659H76.1995V65.7802L78.2819 66.0211C78.3139 67.9642 78.33 69.9234 78.33 71.8504V72.9746C78.33 74.9498 78.3139 76.8929 78.2819 78.8039L76.1995 79.0448V79.9441H78.2659H79.3392H80.4124H87.7971L87.9573 75.9455H86.6918L86.2112 78.8361Z" fill="url(#paint21_linear_155_138)"/>
<path d="M99.7471 75.1425C99.2345 73.6169 98.2414 72.7658 96.5594 72.4125C97.4564 71.995 98.0652 71.192 98.8501 69.4095C99.3467 68.2693 99.7151 67.5145 100.132 66.8401C100.468 66.8883 100.836 66.9364 101.205 66.9364C102.278 66.9364 102.759 66.262 102.759 65.6999C102.759 65.1378 102.358 64.5758 101.621 64.5115C100.276 64.6882 99.3146 65.459 97.921 68.9598C96.8637 71.6417 96.255 71.9789 94.6211 71.9789H93.9323C93.9323 69.8431 93.9323 67.9 93.9803 66.0371L96.0788 65.7962V64.8969H94.0124H91.8659H89.7994V65.7962L91.8819 66.0371C91.9139 67.9803 91.9299 69.9394 91.9299 71.8665V72.9906C91.9299 74.9659 91.9139 76.909 91.8819 78.82L89.7994 79.0609V79.9602H91.8659H94.0124H96.0788V79.0609L93.9964 78.82C93.9643 76.9411 93.9483 75.0301 93.9483 72.9906H94.9094C96.4633 72.9906 97.3123 73.4563 97.6967 74.741L98.9142 78.7879C99.2345 79.8478 99.9394 80.185 101.381 80.185C102.054 80.185 102.967 80.0886 103.383 79.9602V79.0609L101.045 78.82L99.7471 75.1425Z" fill="url(#paint22_linear_155_138)"/>
<path d="M111.152 64.8809H109.006H103.96L103.784 68.8795H105.033L105.546 66.005H109.022C109.054 67.9481 109.07 69.9073 109.07 71.8504V72.9746C109.07 74.9498 109.054 76.8929 109.022 78.8039L106.715 79.0448V79.9441H109.006H111.152H113.443V79.0448L111.136 78.8039C111.104 76.8608 111.088 74.9177 111.088 72.9746V71.8504C111.088 69.8752 111.104 67.916 111.136 66.005H114.613L115.125 68.8795H116.375L116.198 64.8809H111.152Z" fill="url(#paint23_linear_155_138)"/>
<path d="M128.181 64.8809H125.842V65.7802L127.7 66.0532L124.416 74.1308L120.924 66.005L122.878 65.7641V64.8648H120.427H118.185H117.128V65.7641L118.697 65.9729L123.471 76.4112C123.055 77.3426 122.67 78.0813 122.238 78.6112C121.613 78.0171 121.18 77.8083 120.604 77.8083C119.931 77.8083 119.498 78.0331 119.21 78.4828C119.21 79.8799 119.947 80.2814 120.876 80.2814C122.446 80.2814 123.263 79.1733 123.904 77.6798L128.981 66.0532L130.792 65.7802V64.8809H129.494H128.181Z" fill="url(#paint24_linear_155_138)"/>
<path d="M143.671 69.3613C143.671 66.7277 141.764 64.8809 138.032 64.8809H136.222H135.149H134.075H132.009V65.7802L134.091 66.0211C134.124 67.9642 134.14 69.9234 134.14 71.8504V72.9746C134.14 74.9498 134.124 76.8929 134.091 78.8039L132.009 79.0448V79.9441H134.075H136.222H138.288V79.0448L136.206 78.8039C136.174 77.182 136.158 75.6082 136.158 73.9863H137.375C141.941 74.0023 143.671 71.8826 143.671 69.3613ZM136.158 72.9585V71.8504C136.158 69.8431 136.174 67.8518 136.206 65.9087H137.616C140.339 65.9087 141.54 67.1612 141.54 69.3453C141.54 71.4811 140.467 72.9425 137.696 72.9425H136.158V72.9585Z" fill="url(#paint25_linear_155_138)"/>
<path d="M150.975 64.7685H149.63L144.824 78.7718L142.934 79.0609V79.9602H144.408H145.465H148.092V79.0609L145.881 78.7558L147.147 75.0301H152.401L153.667 78.7879L151.44 79.0609V79.9602H154.067H156.149H157.495V79.0609L155.765 78.8521L150.975 64.7685ZM147.515 74.0023L149.806 67.2576L152.065 74.0023H147.515Z" fill="url(#paint26_linear_155_138)"/>
<path d="M180.706 75.1746C180.226 73.7936 179.425 72.83 177.615 72.4286C178.528 71.995 179.185 71.1599 179.953 69.4095C180.45 68.2854 180.802 67.5306 181.219 66.8722C181.523 66.9204 181.844 66.9364 182.148 66.9364C183.221 66.9364 183.702 66.262 183.702 65.6999C183.702 65.1378 183.253 64.5758 182.516 64.5115C181.283 64.7203 180.386 65.459 178.976 68.9598C177.951 71.5453 177.182 71.9789 175.612 71.9789H175.068C175.068 69.811 175.068 67.8839 175.116 66.0371L177.198 65.7962V64.8969H175.132H173.113H171.047V65.7962L173.129 66.0371C173.161 67.916 173.177 69.8431 173.177 71.9789H172.633C171.111 71.9789 170.326 71.5774 169.269 68.9598C167.859 65.443 166.962 64.7042 165.729 64.5115C164.992 64.5758 164.543 65.1378 164.543 65.6999C164.543 66.262 165.008 66.9364 166.097 66.9364C166.401 66.9364 166.722 66.9043 167.026 66.8722C167.443 67.5306 167.795 68.2854 168.292 69.4095C169.061 71.1599 169.717 71.995 170.63 72.4286C168.82 72.83 168.019 73.7936 167.539 75.1746L166.257 78.8361L163.919 79.0769V79.9762C164.319 80.1047 165.248 80.2011 165.921 80.2011C167.363 80.2011 168.067 79.8638 168.388 78.8039L169.621 74.7732C170.022 73.4885 170.919 72.9906 172.377 72.9906H173.177C173.177 75.0462 173.161 76.9572 173.129 78.82L171.047 79.0609V79.9602H173.113H175.132H177.198V79.0609L175.116 78.82C175.084 76.9251 175.068 75.014 175.068 72.9906H175.869C177.326 72.9906 178.223 73.4885 178.624 74.7732L179.857 78.8039C180.178 79.8638 180.883 80.2011 182.324 80.2011C182.997 80.2011 183.91 80.1047 184.327 79.9762V79.0769L181.988 78.8361L180.706 75.1746Z" fill="url(#paint27_linear_155_138)"/>
<path d="M197.094 64.8809H194.963V65.7802L197.094 66.0211V66.9364L189.517 76.2506V71.8504C189.517 69.8752 189.533 67.9321 189.565 66.0211L191.647 65.7802V64.8809H189.581H187.434H185.368V65.7802L187.45 66.0211C187.482 67.9642 187.498 69.9234 187.498 71.8504V72.9746C187.498 74.9498 187.482 76.8929 187.45 78.8039L185.368 79.0448V79.9441H187.434H189.517H191.647V79.0448L189.517 78.8039V77.8565L197.094 68.5905V72.5249C197.094 74.8695 197.094 76.8769 197.046 78.8039L194.963 79.0448V79.9441H197.03H199.176H201.242V79.0448L199.16 78.8039C199.128 76.8608 199.112 74.9016 199.112 72.9746V71.8504C199.112 69.8752 199.128 67.9321 199.16 66.0211L201.242 65.7802V64.8809H199.176H197.094Z" fill="url(#paint28_linear_155_138)"/>
<path d="M209.797 72.1234C211.879 71.5774 213.128 70.084 213.128 68.5102C213.128 65.9729 211.126 64.5436 208.131 64.5436C206.449 64.5436 204.831 64.9451 203.838 65.5072L203.966 68.5423H205.311L205.76 66.005C206.433 65.7802 207.121 65.6678 207.906 65.6678C209.797 65.6678 211.094 66.6152 211.094 68.5744C211.094 70.4212 210.069 71.6095 207.634 71.6095H206.801V72.7337H207.682C210.501 72.7337 211.414 73.9863 211.414 75.6564C211.414 77.9528 210.069 79.1733 207.57 79.1733C207.057 79.1733 206.417 79.1412 205.696 78.9324L205.407 77.9046C205.087 76.7644 204.847 76.2345 204.062 76.2345C203.565 76.2345 203.181 76.4754 202.892 76.9732C203.325 79.3178 205.343 80.2813 207.826 80.2813C211.35 80.2813 213.529 78.4667 213.529 75.8491C213.545 73.9541 212.408 72.541 209.797 72.1234Z" fill="url(#paint29_linear_155_138)"/>
<path d="M226.488 64.8809H224.422V65.7802L226.504 66.0211C226.536 67.916 226.552 69.827 226.552 71.722H219.152C219.152 69.7949 219.168 67.9 219.2 66.0211L221.282 65.7802V64.8809H219.216H217.069H215.003V65.7802L217.085 66.0211C217.117 67.9642 217.133 69.9234 217.133 71.8504V72.9746C217.133 74.9498 217.117 76.8929 217.085 78.8039L215.003 79.0448V79.9441H217.069H219.216H221.282V79.0448L219.2 78.8039C219.168 76.909 219.152 74.9659 219.152 72.7497H226.552C226.552 74.998 226.552 76.9411 226.504 78.8039L224.422 79.0448V79.9441H226.488H228.635H230.701V79.0448L228.619 78.8039C228.587 76.8608 228.571 74.9016 228.571 72.9746V71.8504C228.571 69.8752 228.587 67.9321 228.619 66.0211L230.701 65.7802V64.8809H228.635H226.488Z" fill="url(#paint30_linear_155_138)"/>
<path d="M246.528 66.0211L248.61 65.7802V64.8809H246.544H244.461H242.331V65.7802L244.461 66.0211V66.9364L236.884 76.2506V71.8504C236.884 69.8752 236.9 67.9321 236.932 66.0211L239.015 65.7802V64.8809H236.948H234.802H232.735V65.7802L234.818 66.0211C234.85 67.9642 234.866 69.9234 234.866 71.8504V72.9746C234.866 74.9498 234.85 76.8929 234.818 78.8039L232.735 79.0448V79.9441H234.802H236.884H239.015V79.0448L236.884 78.8039V77.8565L244.461 68.5905V72.5249C244.461 74.8695 244.461 76.8769 244.413 78.8039L242.331 79.0448V79.9441H244.397H246.544H248.61V79.0448L246.528 78.8039C246.496 76.8608 246.48 74.9016 246.48 72.9746V71.8504C246.48 69.8913 246.48 67.9481 246.528 66.0211Z" fill="url(#paint31_linear_155_138)"/>
<path d="M152.566 2.29486C151.877 2.29486 151.333 2.80875 151.221 3.48322H137.701V2.87298H112.743V3.48322H99.2715C99.1754 2.80875 98.6148 2.29486 97.926 2.29486C97.1571 2.29486 96.5483 2.92116 96.5483 3.67592C96.5483 4.43069 97.1731 5.05699 97.926 5.05699C98.1022 5.05699 98.2784 5.02487 98.4225 4.96064L104.878 16.2019L104.366 16.4909L116.844 38.1704L117.325 37.8974L124.645 50.6482C124.325 50.9051 124.117 51.2744 124.117 51.708C124.117 52.4789 124.741 53.0891 125.494 53.0891C126.263 53.0891 126.872 52.4628 126.872 51.708C126.872 51.2584 126.648 50.889 126.327 50.6321L133.472 37.9616L134 38.2507L146.335 16.3624L145.806 16.0573L152.054 4.96064C152.214 5.02487 152.374 5.05699 152.55 5.05699C153.319 5.05699 153.928 4.43069 153.928 3.67592C153.928 2.92116 153.319 2.29486 152.566 2.29486ZM151.221 3.88469C151.237 4.01316 151.253 4.14163 151.301 4.25404L132.03 15.4471L125.719 4.47887H137.701V3.88469H151.221ZM125.03 20.9874L125.078 26.1102H114.105L119.503 16.5391L123.941 19.1246C123.876 19.2852 123.844 19.4618 123.844 19.6385C123.844 20.329 124.357 20.891 125.03 20.9874ZM125.43 20.9713C126.087 20.8589 126.6 20.3129 126.6 19.6385C126.6 19.4618 126.568 19.2852 126.504 19.1246L130.845 16.6033L136.323 26.1262H125.494L125.43 20.9713ZM126.279 18.7873C126.023 18.4662 125.655 18.2574 125.222 18.2574C124.79 18.2574 124.421 18.4662 124.165 18.7873L119.712 16.1858L125.094 6.63076L130.636 16.2661L126.279 18.7873ZM124.453 4.47887L118.318 15.3668L99.2075 4.18981C99.2395 4.09346 99.2555 3.98104 99.2715 3.86863H112.743V4.47887H124.453ZM98.775 4.75187C98.8551 4.68763 98.9191 4.6234 98.9992 4.5431L118.142 15.7361L112.039 26.5598L105.791 15.704L105.263 16.0091L98.775 4.75187ZM117.693 37.6886L118.254 37.3675L112.695 27.7161H125.094L125.302 50.3591C125.206 50.3752 125.094 50.3751 125.014 50.4233L117.693 37.6886ZM126.007 50.4073C125.911 50.3751 125.799 50.3591 125.703 50.343L125.494 27.7161H138.101L132.623 37.4478L133.151 37.7368L126.007 50.4073ZM145.47 15.8646L144.941 15.5756L138.582 26.865L132.222 15.8164L151.525 4.59128C151.589 4.65552 151.653 4.70369 151.717 4.76793L145.47 15.8646Z" fill="url(#paint32_linear_155_138)"/>
</g>
<defs>
<filter id="filter0_d_155_138" x="0" y="0.294861" width="256.61" height="100.705" filterUnits="userSpaceOnUse" color-interpolation-filters="sRGB">
<feFlood flood-opacity="0" result="BackgroundImageFix"/>
<feColorMatrix in="SourceAlpha" type="matrix" values="0 0 0 0 0 0 0 0 0 0 0 0 0 0 0 0 0 0 127 0" result="hardAlpha"/>
<feOffset dx="3" dy="3"/>
<feGaussianBlur stdDeviation="2.5"/>
<feComposite in2="hardAlpha" operator="out"/>
<feColorMatrix type="matrix" values="0 0 0 0 0 0 0 0 0 0 0 0 0 0 0 0 0 0 0.25 0"/>
<feBlend mode="normal" in2="BackgroundImageFix" result="effect1_dropShadow_155_138"/>
<feBlend mode="normal" in="SourceGraphic" in2="effect1_dropShadow_155_138" result="shape"/>
</filter>
<linearGradient id="paint0_linear_155_138" x1="2.28301" y1="89.2472" x2="247.371" y2="88.8514" gradientUnits="userSpaceOnUse">
<stop offset="0.00261016" stop-color="#7167AC"/>
<stop offset="0.4939" stop-color="#6893AB"/>
<stop offset="0.9982" stop-color="#62B791"/>
</linearGradient>
<linearGradient id="paint1_linear_155_138" x1="2.28296" y1="89.2646" x2="247.371" y2="88.8688" gradientUnits="userSpaceOnUse">
<stop offset="0.00261016" stop-color="#7167AC"/>
<stop offset="0.4939" stop-color="#6893AB"/>
<stop offset="0.9982" stop-color="#62B791"/>
</linearGradient>
<linearGradient id="paint2_linear_155_138" x1="2.28316" y1="89.2866" x2="247.371" y2="88.8908" gradientUnits="userSpaceOnUse">
<stop offset="0.00261016" stop-color="#7167AC"/>
<stop offset="0.4939" stop-color="#6893AB"/>
<stop offset="0.9982" stop-color="#62B791"/>
</linearGradient>
<linearGradient id="paint3_linear_155_138" x1="2.28313" y1="89.3073" x2="247.371" y2="88.9115" gradientUnits="userSpaceOnUse">
<stop offset="0.00261016" stop-color="#7167AC"/>
<stop offset="0.4939" stop-color="#6893AB"/>
<stop offset="0.9982" stop-color="#62B791"/>
</linearGradient>
<linearGradient id="paint4_linear_155_138" x1="2.28312" y1="89.3269" x2="247.371" y2="88.9311" gradientUnits="userSpaceOnUse">
<stop offset="0.00261016" stop-color="#7167AC"/>
<stop offset="0.4939" stop-color="#6893AB"/>
<stop offset="0.9982" stop-color="#62B791"/>
</linearGradient>
<linearGradient id="paint5_linear_155_138" x1="2.28305" y1="89.3471" x2="247.371" y2="88.9513" gradientUnits="userSpaceOnUse">
<stop offset="0.00261016" stop-color="#7167AC"/>
<stop offset="0.4939" stop-color="#6893AB"/>
<stop offset="0.9982" stop-color="#62B791"/>
</linearGradient>
<linearGradient id="paint6_linear_155_138" x1="2.28329" y1="89.38" x2="247.372" y2="88.9842" gradientUnits="userSpaceOnUse">
<stop offset="0.00261016" stop-color="#7167AC"/>
<stop offset="0.4939" stop-color="#6893AB"/>
<stop offset="0.9982" stop-color="#62B791"/>
</linearGradient>
<linearGradient id="paint7_linear_155_138" x1="2.2832" y1="89.3999" x2="247.372" y2="89.0041" gradientUnits="userSpaceOnUse">
<stop offset="0.00261016" stop-color="#7167AC"/>
<stop offset="0.4939" stop-color="#6893AB"/>
<stop offset="0.9982" stop-color="#62B791"/>
</linearGradient>
<linearGradient id="paint8_linear_155_138" x1="2.28347" y1="89.4197" x2="247.372" y2="89.0239" gradientUnits="userSpaceOnUse">
<stop offset="0.00261016" stop-color="#7167AC"/>
<stop offset="0.4939" stop-color="#6893AB"/>
<stop offset="0.9982" stop-color="#62B791"/>
</linearGradient>
<linearGradient id="paint9_linear_155_138" x1="2.28315" y1="89.4438" x2="247.372" y2="89.048" gradientUnits="userSpaceOnUse">
<stop offset="0.00261016" stop-color="#7167AC"/>
<stop offset="0.4939" stop-color="#6893AB"/>
<stop offset="0.9982" stop-color="#62B791"/>
</linearGradient>
<linearGradient id="paint10_linear_155_138" x1="2.2835" y1="89.4788" x2="247.372" y2="89.083" gradientUnits="userSpaceOnUse">
<stop offset="0.00261016" stop-color="#7167AC"/>
<stop offset="0.4939" stop-color="#6893AB"/>
<stop offset="0.9982" stop-color="#62B791"/>
</linearGradient>
<linearGradient id="paint11_linear_155_138" x1="2.28365" y1="89.5326" x2="247.372" y2="89.1368" gradientUnits="userSpaceOnUse">
<stop offset="0.00261016" stop-color="#7167AC"/>
<stop offset="0.4939" stop-color="#6893AB"/>
<stop offset="0.9982" stop-color="#62B791"/>
</linearGradient>
<linearGradient id="paint12_linear_155_138" x1="2.28467" y1="90.1234" x2="247.373" y2="89.7276" gradientUnits="userSpaceOnUse">
<stop offset="0.00261016" stop-color="#7167AC"/>
<stop offset="0.4939" stop-color="#6893AB"/>
<stop offset="0.9982" stop-color="#62B791"/>
</linearGradient>
<linearGradient id="paint13_linear_155_138" x1="2.28325" y1="89.5374" x2="247.372" y2="89.1416" gradientUnits="userSpaceOnUse">
<stop offset="0.00261016" stop-color="#7167AC"/>
<stop offset="0.4939" stop-color="#6893AB"/>
<stop offset="0.9982" stop-color="#62B791"/>
</linearGradient>
<linearGradient id="paint14_linear_155_138" x1="2.28309" y1="89.5568" x2="247.372" y2="89.161" gradientUnits="userSpaceOnUse">
<stop offset="0.00261016" stop-color="#7167AC"/>
<stop offset="0.4939" stop-color="#6893AB"/>
<stop offset="0.9982" stop-color="#62B791"/>
</linearGradient>
<linearGradient id="paint15_linear_155_138" x1="2.28382" y1="89.6098" x2="247.372" y2="89.214" gradientUnits="userSpaceOnUse">
<stop offset="0.00261016" stop-color="#7167AC"/>
<stop offset="0.4939" stop-color="#6893AB"/>
<stop offset="0.9982" stop-color="#62B791"/>
</linearGradient>
<linearGradient id="paint16_linear_155_138" x1="3.41254" y1="72.3675" x2="245.723" y2="72.3675" gradientUnits="userSpaceOnUse">
<stop offset="0.00261016" stop-color="#7167AC"/>
<stop offset="0.4948" stop-color="#6893AB"/>
<stop offset="1" stop-color="#62B791"/>
</linearGradient>
<linearGradient id="paint17_linear_155_138" x1="3.41272" y1="72.4236" x2="245.723" y2="72.4236" gradientUnits="userSpaceOnUse">
<stop offset="0.00261016" stop-color="#7167AC"/>
<stop offset="0.4939" stop-color="#6893AB"/>
<stop offset="0.9982" stop-color="#62B791"/>
</linearGradient>
<linearGradient id="paint18_linear_155_138" x1="3.41287" y1="72.4236" x2="245.724" y2="72.4236" gradientUnits="userSpaceOnUse">
<stop offset="0.00261016" stop-color="#7167AC"/>
<stop offset="0.4939" stop-color="#6893AB"/>
<stop offset="0.9982" stop-color="#62B791"/>
</linearGradient>
<linearGradient id="paint19_linear_155_138" x1="3.41268" y1="72.4236" x2="245.723" y2="72.4236" gradientUnits="userSpaceOnUse">
<stop offset="0.00261016" stop-color="#7167AC"/>
<stop offset="0.4939" stop-color="#6893AB"/>
<stop offset="0.9982" stop-color="#62B791"/>
</linearGradient>
<linearGradient id="paint20_linear_155_138" x1="3.41257" y1="72.4236" x2="245.723" y2="72.4236" gradientUnits="userSpaceOnUse">
<stop offset="0.00261016" stop-color="#7167AC"/>
<stop offset="0.4939" stop-color="#6893AB"/>
<stop offset="0.9982" stop-color="#62B791"/>
</linearGradient>
<linearGradient id="paint21_linear_155_138" x1="3.41275" y1="72.4236" x2="245.723" y2="72.4236" gradientUnits="userSpaceOnUse">
<stop offset="0.00261016" stop-color="#7167AC"/>
<stop offset="0.4939" stop-color="#6893AB"/>
<stop offset="0.9982" stop-color="#62B791"/>
</linearGradient>
<linearGradient id="paint22_linear_155_138" x1="3.41274" y1="72.3452" x2="245.723" y2="72.3452" gradientUnits="userSpaceOnUse">
<stop offset="0.00261016" stop-color="#7167AC"/>
<stop offset="0.4939" stop-color="#6893AB"/>
<stop offset="0.9982" stop-color="#62B791"/>
</linearGradient>
<linearGradient id="paint23_linear_155_138" x1="3.41267" y1="72.4236" x2="245.723" y2="72.4236" gradientUnits="userSpaceOnUse">
<stop offset="0.00261016" stop-color="#7167AC"/>
<stop offset="0.4939" stop-color="#6893AB"/>
<stop offset="0.9982" stop-color="#62B791"/>
</linearGradient>
<linearGradient id="paint24_linear_155_138" x1="3.41276" y1="72.5922" x2="245.723" y2="72.5922" gradientUnits="userSpaceOnUse">
<stop offset="0.00261016" stop-color="#7167AC"/>
<stop offset="0.4939" stop-color="#6893AB"/>
<stop offset="0.9982" stop-color="#62B791"/>
</linearGradient>
<linearGradient id="paint25_linear_155_138" x1="3.41272" y1="72.4236" x2="245.723" y2="72.4236" gradientUnits="userSpaceOnUse">
<stop offset="0.00261016" stop-color="#7167AC"/>
<stop offset="0.4939" stop-color="#6893AB"/>
<stop offset="0.9982" stop-color="#62B791"/>
</linearGradient>
<linearGradient id="paint26_linear_155_138" x1="3.41285" y1="72.3675" x2="245.723" y2="72.3675" gradientUnits="userSpaceOnUse">
<stop offset="0.00261016" stop-color="#7167AC"/>
<stop offset="0.4939" stop-color="#6893AB"/>
<stop offset="0.9982" stop-color="#62B791"/>
</linearGradient>
<linearGradient id="paint27_linear_155_138" x1="3.41278" y1="72.3452" x2="245.723" y2="72.3452" gradientUnits="userSpaceOnUse">
<stop offset="0.00261016" stop-color="#7167AC"/>
<stop offset="0.4939" stop-color="#6893AB"/>
<stop offset="0.9982" stop-color="#62B791"/>
</linearGradient>
<linearGradient id="paint28_linear_155_138" x1="3.41277" y1="72.4236" x2="245.723" y2="72.4236" gradientUnits="userSpaceOnUse">
<stop offset="0.00261016" stop-color="#7167AC"/>
<stop offset="0.4939" stop-color="#6893AB"/>
<stop offset="0.9982" stop-color="#62B791"/>
</linearGradient>
<linearGradient id="paint29_linear_155_138" x1="3.41277" y1="72.4236" x2="245.723" y2="72.4236" gradientUnits="userSpaceOnUse">
<stop offset="0.00261016" stop-color="#7167AC"/>
<stop offset="0.4939" stop-color="#6893AB"/>
<stop offset="0.9982" stop-color="#62B791"/>
</linearGradient>
<linearGradient id="paint30_linear_155_138" x1="3.41273" y1="72.4236" x2="245.723" y2="72.4236" gradientUnits="userSpaceOnUse">
<stop offset="0.00261016" stop-color="#7167AC"/>
<stop offset="0.4939" stop-color="#6893AB"/>
<stop offset="0.9982" stop-color="#62B791"/>
</linearGradient>
<linearGradient id="paint31_linear_155_138" x1="3.41259" y1="72.4236" x2="245.723" y2="72.4236" gradientUnits="userSpaceOnUse">
<stop offset="0.00261016" stop-color="#7167AC"/>
<stop offset="0.4939" stop-color="#6893AB"/>
<stop offset="0.9982" stop-color="#62B791"/>
</linearGradient>
<linearGradient id="paint32_linear_155_138" x1="21.4227" y1="27.688" x2="231.578" y2="27.688" gradientUnits="userSpaceOnUse">
<stop offset="0.00261016" stop-color="#7167AC"/>
<stop offset="0.4939" stop-color="#6893AB"/>
<stop offset="0.9982" stop-color="#62B791"/>
</linearGradient>
</defs>
</svg>
