<svg width="457" height="405" fill="none" xmlns="http://www.w3.org/2000/svg"><path opacity=".05" d="M446.156 0c-5.487 0-9.824 4.097-10.717 9.475h-107.68V4.61H128.986v4.865H21.689C20.924 4.097 16.459 0 10.972 0 4.848 0 0 4.994 0 11.012c0 6.018 4.976 11.011 10.972 11.011 1.403 0 2.807-.256 3.955-.768l51.416 89.63-4.083 2.305 99.387 172.858 3.827-2.177 58.305 101.666c-2.551 2.049-4.21 4.994-4.21 8.451 0 6.146 4.976 11.012 10.972 11.012 6.124 0 10.972-4.994 10.972-11.012 0-3.585-1.786-6.53-4.337-8.579l56.901-101.026 4.211 2.305 98.238-174.522-4.21-2.433 49.757-88.478c1.276.512 2.551.768 3.955.768 6.124 0 10.972-4.993 10.972-11.011C457 4.994 452.152 0 446.156 0Zm-10.717 12.676c.127 1.025.255 2.049.637 2.945l-153.481 89.246-50.268-87.453h95.432v-4.738h107.68ZM226.841 149.042l.383 40.846H139.83l42.996-76.314 35.34 20.615a11.131 11.131 0 0 0-.766 4.097c0 5.506 4.083 9.988 9.441 10.756Zm3.19-.128c5.231-.896 9.313-5.25 9.313-10.628a11.13 11.13 0 0 0-.765-4.097l34.575-20.103 43.633 75.93h-86.246l-.51-41.102Zm6.762-17.414c-2.041-2.561-4.976-4.225-8.421-4.225-3.444 0-6.379 1.664-8.42 4.225l-35.468-20.743 42.868-76.185 44.143 76.825-34.702 20.103ZM222.249 17.414l-48.865 86.813L21.179 15.109c.255-.768.382-1.665.51-2.56h107.297v4.865h93.263ZM17.734 19.59c.638-.513 1.148-1.025 1.786-1.665l152.461 89.246-48.609 86.301-49.757-86.557-4.21 2.433-51.671-89.758Zm150.675 262.616 4.465-2.561-44.271-76.954h98.749l1.658 180.541c-.765.128-1.658.128-2.296.512l-58.305-101.538Zm66.215 101.41c-.766-.256-1.659-.384-2.424-.512l-1.659-180.413h100.408l-43.634 77.594 4.211 2.305-56.902 101.026Zm155.013-275.421-4.211-2.304-50.65 90.014-50.65-88.094L437.863 18.31c.51.512 1.02.896 1.531 1.409l-49.757 88.477Z" fill="#000"/></svg>