<svg width="509" height="193" fill="none" xmlns="http://www.w3.org/2000/svg"><g filter="url(#a)"><path d="M16.866 127.375h-2.729l-9.743 28.392-3.8.586v1.823H11.052v-1.823l-4.482-.619 2.566-7.554h10.62l2.566 7.619-4.515.554v1.823h12.277v-1.823l-3.508-.424-9.71-28.554ZM9.85 146.097l4.645-13.675 4.579 13.675H9.85Z" fill="url(#b)"/><path d="M44.342 127.603H32.098v1.823l4.222.489c.065 3.939.097 7.911.097 11.819v2.279c0 4.005-.032 7.944-.097 11.819l-4.222.488v1.823H44.829v-1.823l-4.222-.488c-.065-3.289-.097-6.48-.097-9.768h2.468c9.288 0 12.796-4.298 12.796-9.41 0-5.307-3.865-9.051-11.432-9.051Zm-.682 16.377h-3.15v-2.246c0-4.07.032-8.108.097-12.047h2.858c5.521 0 7.957 2.539 7.957 6.967.033 4.363-2.176 7.326-7.762 7.326Z" fill="url(#c)"/><path d="m72.403 141.636 7.502-11.656 4.06-.554v-1.823H73.507v1.823l3.898.619-6.106 9.768-5.944-9.898 4.125-.489v-1.823H56.749v1.823l4.06.489 8.054 13.414-8.12 12.405-4.417.619v1.823h10.491v-1.823l-3.605-.554 6.755-10.679 6.463 10.744-4.254.489v1.823h12.731v-1.823l-3.897-.456-8.607-14.261Z" fill="url(#d)"/><path d="M111.182 127.603h-4.32v1.823l4.32.489v1.855L95.82 150.655v-8.921c0-4.005.032-7.945.097-11.819l4.222-.489v-1.823H87.408v1.823l4.222.489c.065 3.939.098 7.911.098 11.819v2.279c0 4.005-.033 7.944-.098 11.819l-4.222.488v1.823H100.139v-1.823l-4.32-.488v-1.921l15.363-18.787v7.977c0 4.754 0 8.824-.098 12.731l-4.222.488v1.823H119.594v-1.823l-4.222-.488c-.065-3.94-.098-7.912-.098-11.819v-2.279c0-4.005.033-7.945.098-11.819l4.222-.489v-1.823h-8.412Z" fill="url(#e)"/><path d="M137.521 127.603h-14.582l-.357 8.107h2.533l1.039-5.828h7.048c.065 3.94.097 7.912.097 11.852v2.279c0 4.005-.032 7.944-.097 11.819l-4.677.488v1.823h13.641v-1.823l-4.677-.488c-.065-3.94-.097-7.88-.097-11.819v-2.279c0-4.005.032-7.977.097-11.852h7.048l1.039 5.828h2.533l-.357-8.107h-10.231Z" fill="url(#f)"/><path d="M171.331 155.897h-11.789a731.23 731.23 0 0 1-.098-12.275h6.886l.584 4.33h2.046v-10.809h-2.046l-.617 4.363h-6.853c0-3.94.033-7.815.098-11.624h10.847l1.007 5.828h2.566l-.325-8.107h-22.605v1.823l4.223.489c.065 3.939.097 7.911.097 11.819v2.279c0 4.005-.032 7.944-.097 11.819l-4.223.488v1.823h23.515l.324-8.107h-2.565l-.975 5.861Z" fill="url(#g)"/><path d="M198.775 148.408c-1.039-3.093-3.053-4.819-6.463-5.535 1.819-.846 3.053-2.474 4.645-6.088 1.006-2.312 1.753-3.842 2.598-5.21.682.098 1.429.195 2.176.195 2.176 0 3.15-1.367 3.15-2.507 0-1.139-.812-2.279-2.306-2.409-2.728.358-4.677 1.921-7.502 9.019-2.144 5.437-3.378 6.121-6.691 6.121h-1.396c0-4.33 0-8.27.097-12.047l4.255-.488v-1.824H178.606v1.824l4.223.488c.065 3.94.097 7.912.097 11.819v2.279c0 4.005-.032 7.945-.097 11.819l-4.223.489v1.823H191.338v-1.823l-4.222-.489a687.542 687.542 0 0 1-.098-11.819h1.949c3.15 0 4.872.945 5.651 3.549l2.468 8.205c.65 2.149 2.079 2.833 5.002 2.833 1.364 0 3.215-.195 4.06-.456v-1.823l-4.742-.489-2.631-7.456Z" fill="url(#h)"/><path d="M221.9 127.603h-14.583l-.357 8.107h2.533l1.039-5.828h7.048c.065 3.94.097 7.912.097 11.852v2.279c0 4.005-.032 7.944-.097 11.819l-4.677.488v1.823h13.641v-1.823l-4.677-.488c-.065-3.94-.097-7.88-.097-11.819v-2.279c0-4.005.032-7.977.097-11.852h7.048l1.039 5.828h2.533l-.357-8.107H221.9Z" fill="url(#i)"/><path d="M256.424 127.603h-4.742v1.823l3.767.554-6.658 16.377-7.08-16.475 3.963-.488v-1.824h-11.66v1.824l3.183.423 9.678 21.163c-.844 1.889-1.624 3.387-2.501 4.461-1.266-1.205-2.143-1.628-3.312-1.628-1.364 0-2.241.456-2.826 1.368 0 2.832 1.494 3.646 3.378 3.646 3.183 0 4.839-2.246 6.138-5.274l10.296-23.573 3.67-.554v-1.823h-5.294Z" fill="url(#j)"/><path d="M287.83 136.687c0-5.34-3.865-9.084-11.432-9.084h-12.212v1.823l4.222.489c.065 3.939.098 7.911.098 11.819v2.279c0 4.005-.033 7.944-.098 11.819l-4.222.488v1.823H276.917v-1.823l-4.222-.488c-.065-3.289-.097-6.48-.097-9.768h2.468c9.256.033 12.764-4.265 12.764-9.377Zm-15.232 7.293v-2.246c0-4.07.032-8.108.097-12.047h2.858c5.522 0 7.957 2.539 7.957 6.967 0 4.331-2.176 7.294-7.794 7.294h-3.118v.032Z" fill="url(#k)"/><path d="M302.64 127.375h-2.728l-9.743 28.392-3.833.586v1.823H296.794v-1.823l-4.482-.619 2.566-7.554h10.653l2.565 7.619-4.514.554v1.823h12.277v-1.823l-3.508-.424-9.711-28.554Zm-7.015 18.722 4.644-13.675 4.58 13.675h-9.224Z" fill="url(#l)"/><path d="M362.919 148.473c-.974-2.8-2.598-4.753-6.268-5.567 1.851-.879 3.183-2.572 4.742-6.121 1.007-2.28 1.721-3.81 2.566-5.145.617.098 1.266.13 1.883.13 2.176 0 3.151-1.367 3.151-2.507 0-1.139-.91-2.279-2.404-2.409-2.5.423-4.319 1.921-7.177 9.019-2.079 5.242-3.638 6.121-6.821 6.121h-1.104c0-4.395 0-8.303.097-12.047l4.223-.488v-1.824H343.335v1.824l4.222.488c.065 3.81.098 7.717.098 12.047h-1.105c-3.085 0-4.676-.814-6.82-6.121-2.858-7.131-4.677-8.628-7.178-9.019-1.494.13-2.403 1.27-2.403 2.409 0 1.14.942 2.507 3.15 2.507.617 0 1.267-.065 1.884-.13.844 1.335 1.559 2.865 2.566 5.145 1.559 3.549 2.89 5.242 4.742 6.121-3.67.814-5.294 2.767-6.269 5.567l-2.598 7.424-4.742.488v1.824c.812.26 2.696.455 4.06.455 2.923 0 4.352-.683 5.002-2.832l2.501-8.173c.811-2.604 2.63-3.614 5.586-3.614h1.624c0 4.168-.033 8.042-.098 11.819l-4.222.489v1.823H355.807v-1.823l-4.223-.489a703.875 703.875 0 0 1-.097-11.819h1.624c2.955 0 4.774 1.01 5.586 3.614l2.501 8.173c.65 2.149 2.079 2.832 5.002 2.832 1.364 0 3.215-.195 4.059-.455v-1.824l-4.741-.488-2.599-7.424Z" fill="url(#m)"/><path d="M396.145 127.603h-4.32v1.823l4.32.489v1.855l-15.363 18.885v-8.921c0-4.005.033-7.945.098-11.819l4.222-.489v-1.823H372.371v1.823l4.222.489c.065 3.939.097 7.911.097 11.819v2.279c0 4.005-.032 7.944-.097 11.819l-4.222.488v1.823H385.102v-1.823l-4.32-.488v-1.921l15.363-18.787v7.977c0 4.754 0 8.824-.098 12.731l-4.222.488v1.823H404.556v-1.823l-4.222-.488c-.065-3.94-.097-7.912-.097-11.819v-2.279c0-4.005.032-7.945.097-11.819l4.222-.489v-1.823H396.145Z" fill="url(#n)"/><path d="M421.9 142.287c4.222-1.107 6.755-4.135 6.755-7.326 0-5.144-4.06-8.042-10.133-8.042-3.41 0-6.691.814-8.704 1.954l.26 6.153h2.728l.909-5.144c1.364-.456 2.761-.684 4.352-.684 3.833 0 6.463 1.921 6.463 5.894 0 3.744-2.078 6.153-7.015 6.153h-1.689v2.279h1.787c5.716 0 7.567 2.54 7.567 5.926 0 4.656-2.728 7.131-7.795 7.131-1.039 0-2.338-.065-3.8-.489l-.584-2.084c-.65-2.311-1.137-3.386-2.729-3.386-1.006 0-1.786.489-2.37 1.498.877 4.754 4.969 6.707 10.003 6.707 7.145 0 11.562-3.679 11.562-8.986.033-3.842-2.273-6.707-7.567-7.554Z" fill="url(#o)"/><path d="M455.742 127.603h-4.19v1.823l4.222.489c.065 3.842.098 7.716.098 11.558h-15.005c0-3.907.032-7.749.097-11.558l4.222-.489v-1.823H432.455v1.823l4.222.489c.065 3.939.098 7.911.098 11.819v2.279c0 4.005-.033 7.944-.098 11.819l-4.222.488v1.823H445.186v-1.823l-4.222-.488a714.976 714.976 0 0 1-.097-12.275h15.005c0 4.558 0 8.498-.098 12.275l-4.222.488v1.823H464.284v-1.823l-4.223-.488c-.065-3.94-.097-7.912-.097-11.819v-2.279c0-4.005.032-7.945.097-11.819l4.223-.489v-1.823H455.742Z" fill="url(#p)"/><path d="m496.372 129.915 4.222-.489v-1.823H487.863v1.823l4.319.489v1.855l-15.362 18.885v-8.921c0-4.005.033-7.945.097-11.819l4.223-.489v-1.823H468.408v1.823l4.222.489c.065 3.939.098 7.911.098 11.819v2.279c0 4.005-.033 7.944-.098 11.819l-4.222.488v1.823H481.14v-1.823l-4.32-.488v-1.921l15.362-18.787v7.977c0 4.754 0 8.824-.097 12.731l-4.222.488v1.823H500.594v-1.823l-4.222-.488c-.065-3.94-.098-7.912-.098-11.819v-2.279c0-3.973 0-7.912.098-11.819Z" fill="url(#q)"/><path d="M305.866.71c-1.397 0-2.501 1.042-2.728 2.41h-27.412V1.882h-50.601V3.12h-27.314c-.195-1.368-1.331-2.41-2.728-2.41a2.796 2.796 0 0 0-2.793 2.8c0 1.53 1.267 2.8 2.793 2.8.357 0 .715-.065 1.007-.195l13.089 22.792-1.04.585 25.301 43.956.974-.554 14.843 25.852c-.65.521-1.072 1.27-1.072 2.149 0 1.563 1.266 2.8 2.793 2.8a2.796 2.796 0 0 0 2.793-2.8c0-.912-.455-1.66-1.104-2.181l14.485-25.69 1.072.586 25.008-44.378-1.072-.619 12.667-22.498c.324.13.649.195 1.006.195a2.796 2.796 0 0 0 2.793-2.8c0-1.53-1.234-2.8-2.76-2.8Zm-2.728 3.224c.032.26.065.52.162.748l-39.071 22.694-12.796-22.238h24.293V3.934h27.412Zm-53.102 34.675.097 10.386h-22.247l10.945-19.405 8.997 5.242c-.13.326-.195.684-.195 1.042 0 1.4 1.039 2.54 2.403 2.735Zm.812-.032c1.332-.228 2.371-1.335 2.371-2.703 0-.358-.065-.716-.195-1.042l8.802-5.111 11.107 19.307h-21.955l-.13-10.451Zm1.721-4.428c-.519-.652-1.266-1.075-2.143-1.075-.877 0-1.624.423-2.144 1.075l-9.029-5.275L250.166 9.5l11.237 19.536-8.834 5.111Zm-3.702-29.01-12.439 22.074-38.747-22.66c.065-.196.098-.424.13-.652h27.314v1.237h23.742Zm-52.063.553c.163-.13.293-.26.455-.424l38.811 22.694-12.374 21.945-12.666-22.01-1.072.619-13.154-22.824Zm38.357 66.779 1.137-.651-11.27-19.568h25.138l.422 45.908c-.195.033-.422.033-.584.13l-14.843-25.82Zm16.856 25.787c-.195-.065-.422-.098-.617-.13l-.422-45.877h25.56l-11.107 19.731 1.071.587-14.485 25.689Zm39.461-70.035-1.072-.586-12.893 22.889-12.894-22.4 39.136-22.76c.13.13.26.228.39.358l-12.667 22.499Z" fill="url(#r)"/><path d="M39.463 171.688h1.364v8.335l6.106-8.335h1.527v10.484h-1.364v-8.302l-6.106 8.302h-1.527v-10.484Z" fill="url(#s)"/><path d="m63.952 179.209 1.461-.358c.098.489.39 1.01.877 1.53.487.521 1.104.782 1.916.782.78 0 1.397-.195 1.884-.554.487-.358.715-.814.715-1.367 0-.586-.26-1.042-.748-1.368-.487-.325-1.169-.521-1.98-.521h-.715v-1.204c.682 0 1.234-.033 1.591-.098.358-.065.682-.26.975-.553.292-.293.454-.652.454-1.042 0-.424-.195-.814-.552-1.172-.357-.359-.91-.521-1.591-.521-.552 0-1.04.13-1.43.358-.389.228-.681.586-.876 1.009-.195.423-.26.782-.26 1.075l-1.462-.293c.358-2.214 1.69-3.354 4.028-3.354 1.136 0 2.013.293 2.663.846.65.587.974 1.238.974 1.987 0 .976-.487 1.725-1.494 2.279a2.883 2.883 0 0 1 1.462.911c.39.456.584 1.01.584 1.628 0 .912-.39 1.661-1.169 2.28-.844.553-1.851.879-3.085.879-2.176 0-3.573-1.042-4.222-3.159Z" fill="url(#t)"/><path d="M87.823 182.172v-10.484h2.274l2.728 7.424.552 1.563c.13-.391.325-.945.617-1.694l2.728-7.293h2.046v10.484h-1.461v-8.758l-3.346 8.758h-1.364l-3.313-8.921v8.921h-1.461Z" fill="url(#u)"/><path d="M114.845 182.172v-10.484h8.282v1.237h-6.756v3.191h6.333v1.237h-6.333v3.582h7.015v1.237h-8.541Z" fill="url(#v)"/><path d="M139.106 182.172v-10.484h1.526v4.298h5.944v-4.298h1.526v10.484h-1.526v-4.949h-5.944v4.949h-1.526Z" fill="url(#w)"/><path d="M164.309 171.688h1.364v8.335l6.106-8.335h1.526v10.484h-1.364v-8.302l-6.106 8.302h-1.526v-10.484Z" fill="url(#x)"/><path d="m215.624 178.493 1.527.358c-.325 1.172-.942 2.051-1.754 2.637-.877.587-1.884.88-3.086.88-1.071 0-1.948-.196-2.728-.586-.747-.391-1.364-1.01-1.851-1.889-.487-.879-.714-1.888-.714-3.028 0-1.139.227-2.116.714-2.93a4.781 4.781 0 0 1 1.949-1.824c.812-.423 1.721-.618 2.728-.618 1.104 0 2.046.26 2.858.781.812.521 1.364 1.27 1.656 2.279l-1.494.326c-.519-1.465-1.526-2.182-3.053-2.182-.779 0-1.429.131-1.981.456-.552.326-1.007.749-1.331 1.368-.325.618-.487 1.4-.487 2.344 0 1.433.324 2.507 1.006 3.223.682.717 1.559 1.075 2.696 1.075.812 0 1.526-.228 2.144-.651.584-.456 1.006-1.107 1.201-2.019Z" fill="url(#y)"/><path d="M232.61 182.172v-10.484h4.287c.877 0 1.559.098 2.079.293.52.196.942.521 1.234.944.293.424.487.912.487 1.433 0 .488-.13.912-.422 1.302-.292.391-.682.684-1.169.945.65.195 1.202.488 1.559.911.39.424.585.977.585 1.628 0 .651-.163 1.205-.52 1.661-.357.488-.812.814-1.397 1.042-.584.228-1.364.325-2.371.325h-4.352Zm1.527-6.088h2.468c.65 0 1.104-.033 1.397-.098.389-.098.682-.26.909-.488.227-.228.325-.554.325-.977 0-.391-.098-.684-.292-.944-.195-.261-.455-.424-.78-.521-.325-.098-.909-.131-1.721-.131h-2.306v3.159Zm0 4.851h2.858c.617 0 1.104-.033 1.396-.13.423-.13.747-.326.975-.619.227-.293.325-.651.325-1.074 0-.391-.098-.717-.325-1.01-.228-.26-.52-.488-.877-.586-.357-.13-.942-.195-1.721-.195h-2.631v3.614Z" fill="url(#z)"/><path d="M256.547 177.06c0-1.79.519-3.158 1.559-4.135 1.039-.976 2.338-1.432 3.897-1.432 1.007 0 1.916.228 2.761.651a4.739 4.739 0 0 1 1.981 1.856c.487.814.714 1.791.714 2.93 0 1.563-.454 2.833-1.396 3.81-1.04 1.074-2.404 1.628-4.06 1.628-1.689 0-3.053-.554-4.06-1.661-.942-1.009-1.396-2.214-1.396-3.647Zm1.559.033c0 1.302.389 2.312 1.136 2.995.747.717 1.689 1.075 2.761 1.075 1.104 0 2.046-.358 2.793-1.075.747-.716 1.137-1.79 1.137-3.19 0-.912-.195-1.693-.585-2.41-.292-.553-.747-.977-1.331-1.302a4.15 4.15 0 0 0-1.982-.489c-1.136 0-2.078.359-2.825 1.075-.747.716-1.104 1.823-1.104 3.321Z" fill="url(#A)"/><path d="M283.114 171.688h1.526v4.721h2.241c.097-1.497.65-2.67 1.591-3.549.942-.879 2.144-1.335 3.541-1.335 1.429 0 2.663.456 3.67 1.4 1.006.945 1.494 2.247 1.494 3.973 0 1.693-.488 3.06-1.462 4.004-.974.945-2.241 1.466-3.8 1.466-1.494 0-2.696-.456-3.54-1.335-.844-.879-1.364-2.019-1.526-3.386h-2.241v4.558h-1.527v-10.517h.033Zm5.229 5.307c0 1.335.324 2.345 1.006 3.093.682.749 1.527 1.107 2.599 1.107 1.104 0 1.981-.358 2.663-1.107.682-.748.974-1.79.974-3.158 0-1.335-.325-2.377-.974-3.093-.65-.749-1.527-1.107-2.631-1.107-1.104 0-1.981.358-2.663 1.107-.65.716-.974 1.758-.974 3.158Z" fill="url(#B)"/><path d="m339.041 178.493 1.526.358c-.324 1.172-.941 2.051-1.753 2.637-.845.587-1.852.88-3.053.88-1.072 0-1.949-.196-2.728-.586-.747-.391-1.365-1.01-1.852-1.889-.487-.879-.714-1.888-.714-3.028 0-1.139.227-2.116.714-2.93a4.781 4.781 0 0 1 1.949-1.824c.812-.423 1.721-.618 2.728-.618 1.104 0 2.046.26 2.858.781.812.521 1.364 1.27 1.657 2.279l-1.494.326c-.52-1.465-1.527-2.182-3.053-2.182-.78 0-1.429.131-1.981.456-.553.326-1.007.749-1.332 1.368-.325.618-.487 1.4-.487 2.344 0 1.433.325 2.507 1.007 3.223.682.717 1.558 1.075 2.695 1.075.812 0 1.527-.228 2.144-.651.552-.456.942-1.107 1.169-2.019Z" fill="url(#C)"/><path d="M354.923 171.688h1.526l3.735 6.414 3.248-6.414h1.526l-4.287 8.14c-.552 1.042-1.007 1.726-1.364 2.019-.357.293-.812.455-1.429.455-.422 0-.909-.097-1.461-.26v-1.172c.389.228.844.325 1.299.325.389 0 .682-.097.974-.325.26-.228.552-.716.877-1.498l-4.644-7.684Z" fill="url(#D)"/><path d="M380.905 171.688h6.95v9.247h1.04v3.679h-1.364v-2.442h-7.568v2.442h-1.364v-3.679h.877c.942-1.27 1.397-3.842 1.397-7.717v-1.53h.032Zm5.456 1.237h-3.994v.521c0 .879-.098 2.084-.26 3.647-.163 1.53-.52 2.833-1.04 3.842h5.262v-8.01h.032Z" fill="url(#E)"/><path d="M404.387 171.688h1.526v4.493h2.728c1.007 0 1.787.098 2.404.261a2.769 2.769 0 0 1 1.429.977 2.78 2.78 0 0 1 .552 1.693c0 .814-.292 1.53-.909 2.116-.618.619-1.722.912-3.378.912h-4.352v-10.452Zm1.494 9.312h2.76c.942 0 1.624-.13 2.046-.423.423-.293.65-.782.65-1.433 0-.423-.13-.814-.39-1.074-.26-.293-.584-.456-.974-.554-.39-.097-1.104-.13-2.079-.13h-2.013V181Z" fill="url(#F)"/><path d="M428.518 171.688h7.438v1.237h-5.911v3.224h2.728c1.007 0 1.818.097 2.403.26a2.64 2.64 0 0 1 1.429 1.01 2.78 2.78 0 0 1 .552 1.693c0 .618-.162 1.172-.519 1.66-.358.489-.78.847-1.3 1.075-.552.195-1.331.325-2.338.325h-4.482v-10.484Zm1.527 9.312h3.02c.78 0 1.397-.13 1.819-.423.422-.293.649-.749.649-1.4 0-.456-.13-.814-.357-1.107-.227-.293-.585-.489-.974-.554-.422-.097-1.105-.13-2.111-.13h-2.014V181h-.032Z" fill="url(#G)"/><path d="M451.415 171.688h1.527l3.734 6.414 3.248-6.414h1.527l-4.287 8.14c-.552 1.042-1.007 1.726-1.364 2.019-.358.293-.812.455-1.429.455-.423 0-.91-.097-1.462-.26v-1.172c.39.228.844.325 1.299.325.39 0 .682-.097.975-.325.259-.228.552-.716.876-1.498l-4.644-7.684Z" fill="url(#H)"/></g><defs><linearGradient id="r" x1="39.973" y1="52.194" x2="466.061" y2="52.194" gradientUnits="userSpaceOnUse"><stop offset=".003" stop-color="#7167AC"/><stop offset=".494" stop-color="#6893AB"/><stop offset=".998" stop-color="#62B791"/></linearGradient><linearGradient id="H" x1="1.169" y1="177.741" x2="498.083" y2="176.938" gradientUnits="userSpaceOnUse"><stop offset=".003" stop-color="#7167AC"/><stop offset=".494" stop-color="#6893AB"/><stop offset=".998" stop-color="#62B791"/></linearGradient><linearGradient id="c" x1="3.458" y1="142.896" x2="494.741" y2="142.896" gradientUnits="userSpaceOnUse"><stop offset=".003" stop-color="#7167AC"/><stop offset=".494" stop-color="#6893AB"/><stop offset=".998" stop-color="#62B791"/></linearGradient><linearGradient id="d" x1="3.458" y1="142.896" x2="494.741" y2="142.896" gradientUnits="userSpaceOnUse"><stop offset=".003" stop-color="#7167AC"/><stop offset=".494" stop-color="#6893AB"/><stop offset=".998" stop-color="#62B791"/></linearGradient><linearGradient id="e" x1="3.458" y1="142.896" x2="494.741" y2="142.896" gradientUnits="userSpaceOnUse"><stop offset=".003" stop-color="#7167AC"/><stop offset=".494" stop-color="#6893AB"/><stop offset=".998" stop-color="#62B791"/></linearGradient><linearGradient id="f" x1="3.458" y1="142.896" x2="494.741" y2="142.896" gradientUnits="userSpaceOnUse"><stop offset=".003" stop-color="#7167AC"/><stop offset=".494" stop-color="#6893AB"/><stop offset=".998" stop-color="#62B791"/></linearGradient><linearGradient id="g" x1="3.458" y1="142.896" x2="494.741" y2="142.896" gradientUnits="userSpaceOnUse"><stop offset=".003" stop-color="#7167AC"/><stop offset=".494" stop-color="#6893AB"/><stop offset=".998" stop-color="#62B791"/></linearGradient><linearGradient id="h" x1="3.458" y1="142.737" x2="494.741" y2="142.737" gradientUnits="userSpaceOnUse"><stop offset=".003" stop-color="#7167AC"/><stop offset=".494" stop-color="#6893AB"/><stop offset=".998" stop-color="#62B791"/></linearGradient><linearGradient id="i" x1="3.458" y1="142.896" x2="494.741" y2="142.896" gradientUnits="userSpaceOnUse"><stop offset=".003" stop-color="#7167AC"/><stop offset=".494" stop-color="#6893AB"/><stop offset=".998" stop-color="#62B791"/></linearGradient><linearGradient id="j" x1="3.458" y1="143.238" x2="494.741" y2="143.238" gradientUnits="userSpaceOnUse"><stop offset=".003" stop-color="#7167AC"/><stop offset=".494" stop-color="#6893AB"/><stop offset=".998" stop-color="#62B791"/></linearGradient><linearGradient id="k" x1="3.458" y1="142.896" x2="494.741" y2="142.896" gradientUnits="userSpaceOnUse"><stop offset=".003" stop-color="#7167AC"/><stop offset=".494" stop-color="#6893AB"/><stop offset=".998" stop-color="#62B791"/></linearGradient><linearGradient id="l" x1="3.458" y1="142.782" x2="494.741" y2="142.782" gradientUnits="userSpaceOnUse"><stop offset=".003" stop-color="#7167AC"/><stop offset=".494" stop-color="#6893AB"/><stop offset=".998" stop-color="#62B791"/></linearGradient><linearGradient id="m" x1="3.458" y1="142.737" x2="494.741" y2="142.737" gradientUnits="userSpaceOnUse"><stop offset=".003" stop-color="#7167AC"/><stop offset=".494" stop-color="#6893AB"/><stop offset=".998" stop-color="#62B791"/></linearGradient><linearGradient id="n" x1="3.458" y1="142.896" x2="494.741" y2="142.896" gradientUnits="userSpaceOnUse"><stop offset=".003" stop-color="#7167AC"/><stop offset=".494" stop-color="#6893AB"/><stop offset=".998" stop-color="#62B791"/></linearGradient><linearGradient id="o" x1="3.458" y1="142.896" x2="494.741" y2="142.896" gradientUnits="userSpaceOnUse"><stop offset=".003" stop-color="#7167AC"/><stop offset=".494" stop-color="#6893AB"/><stop offset=".998" stop-color="#62B791"/></linearGradient><linearGradient id="p" x1="3.458" y1="142.896" x2="494.741" y2="142.896" gradientUnits="userSpaceOnUse"><stop offset=".003" stop-color="#7167AC"/><stop offset=".494" stop-color="#6893AB"/><stop offset=".998" stop-color="#62B791"/></linearGradient><linearGradient id="q" x1="3.458" y1="142.896" x2="494.741" y2="142.896" gradientUnits="userSpaceOnUse"><stop offset=".003" stop-color="#7167AC"/><stop offset=".494" stop-color="#6893AB"/><stop offset=".998" stop-color="#62B791"/></linearGradient><linearGradient id="b" x1="3.458" y1="142.782" x2="494.741" y2="142.782" gradientUnits="userSpaceOnUse"><stop offset=".003" stop-color="#7167AC"/><stop offset=".495" stop-color="#6893AB"/><stop offset="1" stop-color="#62B791"/></linearGradient><linearGradient id="s" x1="1.168" y1="177.005" x2="498.082" y2="176.203" gradientUnits="userSpaceOnUse"><stop offset=".003" stop-color="#7167AC"/><stop offset=".494" stop-color="#6893AB"/><stop offset=".998" stop-color="#62B791"/></linearGradient><linearGradient id="t" x1="1.168" y1="177.041" x2="498.082" y2="176.238" gradientUnits="userSpaceOnUse"><stop offset=".003" stop-color="#7167AC"/><stop offset=".494" stop-color="#6893AB"/><stop offset=".998" stop-color="#62B791"/></linearGradient><linearGradient id="u" x1="1.168" y1="177.085" x2="498.083" y2="176.283" gradientUnits="userSpaceOnUse"><stop offset=".003" stop-color="#7167AC"/><stop offset=".494" stop-color="#6893AB"/><stop offset=".998" stop-color="#62B791"/></linearGradient><linearGradient id="v" x1="1.168" y1="177.127" x2="498.083" y2="176.325" gradientUnits="userSpaceOnUse"><stop offset=".003" stop-color="#7167AC"/><stop offset=".494" stop-color="#6893AB"/><stop offset=".998" stop-color="#62B791"/></linearGradient><linearGradient id="w" x1="1.168" y1="177.167" x2="498.083" y2="176.364" gradientUnits="userSpaceOnUse"><stop offset=".003" stop-color="#7167AC"/><stop offset=".494" stop-color="#6893AB"/><stop offset=".998" stop-color="#62B791"/></linearGradient><linearGradient id="x" x1="1.168" y1="177.208" x2="498.083" y2="176.405" gradientUnits="userSpaceOnUse"><stop offset=".003" stop-color="#7167AC"/><stop offset=".494" stop-color="#6893AB"/><stop offset=".998" stop-color="#62B791"/></linearGradient><linearGradient id="y" x1="1.168" y1="177.275" x2="498.083" y2="176.472" gradientUnits="userSpaceOnUse"><stop offset=".003" stop-color="#7167AC"/><stop offset=".494" stop-color="#6893AB"/><stop offset=".998" stop-color="#62B791"/></linearGradient><linearGradient id="z" x1="1.168" y1="177.315" x2="498.083" y2="176.513" gradientUnits="userSpaceOnUse"><stop offset=".003" stop-color="#7167AC"/><stop offset=".494" stop-color="#6893AB"/><stop offset=".998" stop-color="#62B791"/></linearGradient><linearGradient id="A" x1="1.168" y1="177.355" x2="498.083" y2="176.553" gradientUnits="userSpaceOnUse"><stop offset=".003" stop-color="#7167AC"/><stop offset=".494" stop-color="#6893AB"/><stop offset=".998" stop-color="#62B791"/></linearGradient><linearGradient id="B" x1="1.168" y1="177.404" x2="498.083" y2="176.601" gradientUnits="userSpaceOnUse"><stop offset=".003" stop-color="#7167AC"/><stop offset=".494" stop-color="#6893AB"/><stop offset=".998" stop-color="#62B791"/></linearGradient><linearGradient id="C" x1="1.169" y1="177.475" x2="498.083" y2="176.672" gradientUnits="userSpaceOnUse"><stop offset=".003" stop-color="#7167AC"/><stop offset=".494" stop-color="#6893AB"/><stop offset=".998" stop-color="#62B791"/></linearGradient><linearGradient id="D" x1="1.169" y1="177.584" x2="498.083" y2="176.782" gradientUnits="userSpaceOnUse"><stop offset=".003" stop-color="#7167AC"/><stop offset=".494" stop-color="#6893AB"/><stop offset=".998" stop-color="#62B791"/></linearGradient><linearGradient id="E" x1="1.171" y1="178.782" x2="498.085" y2="177.979" gradientUnits="userSpaceOnUse"><stop offset=".003" stop-color="#7167AC"/><stop offset=".494" stop-color="#6893AB"/><stop offset=".998" stop-color="#62B791"/></linearGradient><linearGradient id="F" x1="1.168" y1="177.594" x2="498.083" y2="176.791" gradientUnits="userSpaceOnUse"><stop offset=".003" stop-color="#7167AC"/><stop offset=".494" stop-color="#6893AB"/><stop offset=".998" stop-color="#62B791"/></linearGradient><linearGradient id="G" x1="1.168" y1="177.633" x2="498.083" y2="176.831" gradientUnits="userSpaceOnUse"><stop offset=".003" stop-color="#7167AC"/><stop offset=".494" stop-color="#6893AB"/><stop offset=".998" stop-color="#62B791"/></linearGradient><filter id="a" x=".594" y=".71" width="508" height="191.904" filterUnits="userSpaceOnUse" color-interpolation-filters="sRGB"><feFlood flood-opacity="0" result="BackgroundImageFix"/><feColorMatrix in="SourceAlpha" values="0 0 0 0 0 0 0 0 0 0 0 0 0 0 0 0 0 0 127 0" result="hardAlpha"/><feOffset dx="4" dy="4"/><feGaussianBlur stdDeviation="2"/><feComposite in2="hardAlpha" operator="out"/><feColorMatrix values="0 0 0 0 0 0 0 0 0 0 0 0 0 0 0 0 0 0 0.5 0"/><feBlend in2="BackgroundImageFix" result="effect1_dropShadow_1_37"/><feBlend in="SourceGraphic" in2="effect1_dropShadow_1_37" result="shape"/></filter></defs></svg>