<svg width="46" height="42" fill="none" xmlns="http://www.w3.org/2000/svg"><path d="M44.908 0c-.552 0-.988.425-1.078.983H32.99V.478H12.983v.505h-10.8C2.106.425 1.657 0 1.104 0 .488 0 0 .518 0 1.142c0 .624.5 1.142 1.104 1.142a.972.972 0 0 0 .399-.08L6.678 11.5l-.411.24L16.27 29.663l.385-.226 5.869 10.544a1.126 1.126 0 0 0-.424.876c0 .637.5 1.142 1.105 1.142.616 0 1.104-.518 1.104-1.142 0-.372-.18-.677-.437-.89l5.728-10.476.424.239 9.888-18.099-.424-.252 5.009-9.176c.128.053.256.08.398.08.616 0 1.104-.518 1.104-1.142C46 .518 45.512 0 44.908 0ZM43.83 1.315c.013.106.025.212.064.305l-15.449 9.255-5.06-9.07h9.606v-.49H43.83ZM22.833 15.456l.039 4.236h-8.797l4.328-7.914 3.557 2.138a1.184 1.184 0 0 0-.077.425c0 .57.41 1.036.95 1.115Zm.321-.013c.527-.093.938-.544.938-1.102 0-.146-.026-.292-.077-.425l3.48-2.085 4.392 7.874h-8.681l-.052-4.262Zm.68-1.806c-.205-.266-.5-.438-.847-.438s-.642.172-.847.438l-3.57-2.151 4.314-7.9 4.444 7.966-3.493 2.085ZM22.372 1.806l-4.919 9.003-15.32-9.242c.025-.08.038-.173.051-.266h10.8v.505h9.388Zm-20.586.226c.064-.054.116-.107.18-.173l15.346 9.255-4.893 8.95-5.008-8.976-.424.252-5.201-9.308Zm15.166 27.234.45-.266-4.456-7.98h9.94l.166 18.723c-.077.013-.167.013-.23.053l-5.87-10.53Zm6.665 10.517c-.077-.027-.166-.04-.244-.054l-.166-18.71h10.106l-4.392 8.048.424.239-5.728 10.476ZM39.22 11.22l-.423-.239-5.099 9.335-5.098-9.135 15.475-9.282c.051.053.102.093.154.146l-5.009 9.175Z" fill="#62B791"/></svg>