<svg width="1042" height="921" viewBox="0 0 1042 921" fill="none" xmlns="http://www.w3.org/2000/svg">
<g style="mix-blend-mode:overlay" opacity="0.2">
<path d="M1016.83 0C1004.33 0 994.451 9.31774 992.416 21.5473H747.113V10.4825H294.291V21.5473H49.8597C48.1159 9.31774 37.9433 0 25.4457 0C11.4948 0 0.450439 11.356 0.450439 25.0414C0.450439 38.7268 11.7854 50.0828 25.4457 50.0828C28.6428 50.0828 31.8399 49.5005 34.4557 48.3358L151.585 252.161L142.284 257.402L368.696 650.495L377.415 645.544L510.239 876.741C504.426 881.4 500.648 888.097 500.648 895.959C500.648 909.935 511.983 921 525.643 921C539.594 921 550.638 909.644 550.638 895.959C550.638 887.806 546.569 881.108 540.757 876.45L670.383 646.709L679.975 651.95L903.77 255.073L894.179 249.541L1007.53 48.3358C1010.44 49.5005 1013.34 50.0828 1016.54 50.0828C1030.49 50.0828 1041.53 38.7268 1041.53 25.0414C1041.53 11.356 1030.49 0 1016.83 0ZM992.416 28.8267C992.707 31.1562 992.998 33.4856 993.869 35.5239L644.225 238.476L529.712 39.6004H747.113V28.8267H992.416ZM517.214 338.933L518.086 431.819H318.995L416.942 258.276L497.451 305.156C496.288 308.068 495.707 311.271 495.707 314.474C495.707 326.994 505.007 337.186 517.214 338.933ZM524.48 338.642C536.397 336.603 545.697 326.703 545.697 314.474C545.697 311.271 545.116 308.068 543.954 305.156L622.718 259.441L722.118 432.11H525.643L524.48 338.642ZM539.885 299.041C535.234 293.218 528.549 289.432 520.702 289.432C512.855 289.432 506.17 293.218 501.52 299.041L420.721 251.87L518.377 78.6184L618.939 253.326L539.885 299.041ZM506.751 39.6004L395.435 237.02L48.6972 34.3592C49.2785 32.6121 49.5691 30.5738 49.8597 28.5356H294.291V39.6004H506.751ZM40.8499 44.5504C42.3031 43.3857 43.4656 42.221 44.9188 40.7651L392.238 243.717L281.503 439.972L168.152 243.135L158.56 248.667L40.8499 44.5504ZM384.1 641.759L394.272 635.936L293.419 460.937H518.377L522.155 871.5C520.411 871.791 518.377 871.791 516.924 872.664L384.1 641.759ZM534.943 872.373C533.2 871.791 531.165 871.5 529.421 871.208L525.643 460.937H754.379L654.979 637.391L664.571 642.633L534.943 872.373ZM888.075 246.046L878.484 240.805L763.099 445.504L647.713 245.173L997.938 41.6386C999.101 42.8034 1000.26 43.6769 1001.43 44.8416L888.075 246.046Z" fill="white" fill-opacity="0.2"/>
</g>
</svg>
