<svg width="93" height="90" viewBox="0 0 93 90" fill="none" xmlns="http://www.w3.org/2000/svg">
<ellipse cx="46.0227" cy="45" rx="46.0227" ry="45" fill="white"/>
<path opacity="0.15" d="M45.2837 44.4602L38.3682 34.8778C37.6522 33.8858 38.3611 32.5 39.5845 32.5L53.4155 32.5C54.6389 32.5 55.3478 33.8858 54.6318 34.8778L47.7163 44.4602C47.1176 45.2898 45.8824 45.2898 45.2837 44.4602Z" stroke="#261D3A" stroke-linejoin="round"/>
<path opacity="0.5" d="M45.2837 52.4602L38.3682 42.8778C37.6522 41.8858 38.3611 40.5 39.5845 40.5L53.4155 40.5C54.6389 40.5 55.3478 41.8858 54.6318 42.8778L47.7163 52.4602C47.1176 53.2898 45.8824 53.2898 45.2837 52.4602Z" stroke="#261D3A" stroke-linejoin="round"/>
<path d="M45.2837 60.4602L38.3682 50.8778C37.6522 49.8858 38.3611 48.5 39.5845 48.5L53.4155 48.5C54.6389 48.5 55.3478 49.8858 54.6318 50.8778L47.7163 60.4602C47.1176 61.2898 45.8824 61.2898 45.2837 60.4602Z" stroke="#261D3A" stroke-linejoin="round"/>
</svg>
