<svg width="93" height="90" fill="none" xmlns="http://www.w3.org/2000/svg"><ellipse cx="46.023" cy="45" rx="46.023" ry="45" fill="#F5F5F5"/><path opacity=".15" d="m45.284 44.46-6.916-9.582c-.716-.992-.007-2.378 1.216-2.378h13.831c1.224 0 1.933 1.386 1.217 2.378l-6.916 9.582a1.5 1.5 0 0 1-2.432 0Z" stroke="#261D3A" stroke-linejoin="round"/><path opacity=".5" d="m45.284 52.46-6.916-9.582c-.716-.992-.007-2.378 1.216-2.378h13.831c1.224 0 1.933 1.386 1.217 2.378l-6.916 9.582a1.5 1.5 0 0 1-2.432 0Z" stroke="#261D3A" stroke-linejoin="round"/><path d="m45.284 60.46-6.916-9.582c-.716-.992-.007-2.378 1.216-2.378h13.831c1.224 0 1.933 1.386 1.217 2.378l-6.916 9.582a1.5 1.5 0 0 1-2.432 0Z" stroke="#261D3A" stroke-linejoin="round"/></svg>