<svg width="51" height="45" fill="none" xmlns="http://www.w3.org/2000/svg"><path d="M48.84 0c-.597 0-1.069.455-1.166 1.053H35.963v-.54h-21.62v.54H2.673C2.59.455 2.106 0 1.509 0 .842 0 .315.555.315 1.224c0 .668.54 1.223 1.193 1.223.153 0 .305-.028.43-.085L7.53 12.32l-.444.256 10.81 19.206.416-.242 6.342 11.296a1.203 1.203 0 0 0-.458.94c0 .682.54 1.223 1.193 1.223.666 0 1.193-.555 1.193-1.224 0-.398-.194-.725-.471-.953l6.188-11.225.458.256 10.685-19.391-.458-.27 5.412-9.831c.139.057.277.085.43.085.666 0 1.193-.555 1.193-1.223C50.02.554 49.492 0 48.84 0Zm-1.166 1.408c.014.114.028.228.07.328L31.05 11.652l-5.467-9.717h10.38v-.527h11.711ZM24.987 16.56l.041 4.539h-9.505l4.676-8.48 3.844 2.29a1.26 1.26 0 0 0-.083.456c0 .612.444 1.11 1.027 1.195Zm.347-.014a1.209 1.209 0 0 0 .93-1.636l3.76-2.234 4.745 8.437h-9.38l-.055-4.567Zm.735-1.935c-.222-.284-.541-.47-.916-.47-.374 0-.694.186-.916.47l-3.857-2.305 4.662-8.465 4.801 8.537-3.774 2.233ZM24.487 1.935l-5.314 9.646L2.617 1.679c.028-.086.042-.185.056-.285h11.67v.54h10.143Zm-22.244.242c.07-.057.125-.114.195-.185l16.582 9.916-5.287 9.589-5.412-9.617-.458.27-5.62-9.973Zm16.388 29.18.486-.285-4.815-8.55h10.74l.18 20.06c-.083.014-.18.014-.25.056l-6.34-11.282Zm7.202 11.267c-.083-.028-.18-.043-.264-.057l-.18-20.046h10.92l-4.745 8.622.458.256-6.189 11.225Zm16.86-30.602-.458-.256-5.51 10.001-5.508-9.788 16.72-9.945c.056.057.112.1.167.157l-5.411 9.83Z" fill="#695BC0"/></svg>