<svg width="51" height="45" fill="none" xmlns="http://www.w3.org/2000/svg"><path d="M49.298 0c-.597 0-1.068.455-1.166 1.053H36.422v-.54H14.8v.54H3.132C3.05.455 2.564 0 1.967 0 1.3 0 .773.555.773 1.224c0 .668.541 1.223 1.193 1.223.153 0 .306-.028.43-.085L7.99 12.32l-.444.256 10.81 19.206.415-.242 6.342 11.296a1.203 1.203 0 0 0-.458.94c0 .682.541 1.223 1.193 1.223.666 0 1.194-.555 1.194-1.224 0-.398-.195-.725-.472-.953l6.189-11.225.457.256L43.9 12.463l-.458-.27 5.412-9.831c.139.057.278.085.43.085.666 0 1.194-.555 1.194-1.223 0-.67-.528-1.224-1.18-1.224Zm-1.166 1.408c.014.114.028.228.07.328l-16.693 9.916-5.468-9.717h10.38v-.527h11.712ZM25.445 16.56l.041 4.539h-9.505l4.677-8.48 3.843 2.29a1.26 1.26 0 0 0-.083.456c0 .612.444 1.11 1.027 1.195Zm.347-.014a1.209 1.209 0 0 0 .93-1.636l3.76-2.234 4.746 8.437h-9.38l-.056-4.567Zm.735-1.935c-.222-.284-.541-.47-.916-.47-.374 0-.693.186-.916.47l-3.857-2.305L25.5 3.841l4.802 8.537-3.775 2.233ZM24.945 1.935l-5.314 9.646L3.076 1.679c.028-.086.042-.185.056-.285h11.67v.54h10.143Zm-22.243.242c.07-.057.125-.114.194-.185l16.582 9.916-5.287 9.589L8.78 11.88l-.458.27-5.62-9.973Zm16.388 29.18.485-.285-4.815-8.55H25.5l.18 20.06c-.082.014-.18.014-.249.056L19.09 31.356Zm7.201 11.267c-.083-.028-.18-.043-.263-.057l-.18-20.046h10.92l-4.746 8.622.458.256-6.189 11.225Zm16.86-30.602-.458-.256-5.509 10.001-5.509-9.788 16.721-9.945c.056.057.111.1.167.157l-5.412 9.83Z" fill="#61DBA4"/></svg>