<svg width="50" height="46" fill="none" xmlns="http://www.w3.org/2000/svg"><path d="M48.537.73c-.587 0-1.052.447-1.147 1.035H35.864v-.532H14.59v.532H3.106C3.024 1.177 2.546.73 1.959.73 1.303.73.784 1.275.784 1.933c0 .658.533 1.204 1.175 1.204.15 0 .3-.028.423-.084l5.503 9.8-.437.253 10.637 18.9.41-.238 6.24 11.117c-.273.224-.45.546-.45.924a1.19 1.19 0 0 0 1.174 1.204c.656 0 1.175-.546 1.175-1.204 0-.392-.192-.714-.465-.938l6.09-11.047.451.252 10.515-19.082-.45-.266L48.1 3.053c.136.056.273.084.423.084.655 0 1.174-.546 1.174-1.204 0-.658-.519-1.204-1.16-1.204ZM47.39 2.114c.013.112.027.224.068.322L31.03 12.196l-5.38-9.563h10.213v-.518H47.39Zm-22.327 14.91.041 4.467H15.75l4.602-8.344 3.783 2.254a1.24 1.24 0 0 0-.082.448c0 .602.437 1.092 1.01 1.176Zm.342-.013a1.19 1.19 0 0 0 .915-1.61l3.7-2.198 4.67 8.302h-9.23l-.055-4.494Zm.723-1.904c-.218-.28-.532-.462-.9-.462-.37 0-.684.182-.902.462L20.53 12.84l4.588-8.33 4.725 8.4-3.715 2.198ZM24.572 2.633l-5.23 9.493L3.05 2.38c.027-.084.04-.182.055-.28H14.59v.532h9.982Zm-21.89.238c.069-.056.123-.112.191-.182l16.319 9.759-5.203 9.436-5.326-9.464-.45.266-5.53-9.815ZM18.81 31.586l.478-.28-4.738-8.414h10.569l.177 19.74c-.082.015-.177.015-.245.057l-6.24-11.103Zm7.087 11.089c-.082-.028-.177-.042-.26-.056l-.177-19.727h10.747l-4.67 8.484.45.252-6.09 11.047ZM42.487 12.56l-.45-.252-5.421 9.842-5.422-9.632L47.65 2.73c.055.056.11.098.164.154l-5.326 9.675Z" fill="#48AEBF"/></svg>