<svg width="51" height="45" fill="none" xmlns="http://www.w3.org/2000/svg"><path d="M48.993 0c-.597 0-1.069.455-1.166 1.053H36.115v-.54H14.496v.54H2.826C2.743.455 2.258 0 1.661 0 .995 0 .468.555.468 1.224c0 .668.54 1.223 1.193 1.223.153 0 .305-.028.43-.085l5.592 9.959-.444.256 10.81 19.206.416-.242 6.341 11.296a1.203 1.203 0 0 0-.457.94c0 .682.54 1.223 1.193 1.223.666 0 1.193-.555 1.193-1.224 0-.398-.194-.725-.472-.953l6.19-11.225.457.256 10.685-19.391-.458-.27 5.412-9.831c.138.057.277.085.43.085.666 0 1.193-.555 1.193-1.223 0-.67-.527-1.224-1.18-1.224Zm-1.166 1.408c.014.114.028.228.07.328l-16.694 9.916-5.467-9.717h10.38v-.527h11.711ZM25.139 16.56l.042 4.539h-9.505l4.676-8.48 3.844 2.29a1.258 1.258 0 0 0-.083.456c0 .612.444 1.11 1.026 1.195Zm.347-.014a1.209 1.209 0 0 0 .93-1.636l3.76-2.234 4.746 8.437h-9.38l-.056-4.567Zm.736-1.935c-.222-.284-.541-.47-.916-.47s-.694.186-.916.47l-3.858-2.305 4.663-8.465 4.801 8.537-3.774 2.233ZM24.64 1.935l-5.315 9.646L2.771 1.679c.028-.086.042-.185.055-.285h11.67v.54H24.64Zm-22.244.242c.07-.057.125-.114.195-.185l16.582 9.916-5.287 9.589-5.412-9.617-.458.27-5.62-9.973Zm16.388 29.18.486-.285-4.815-8.55h10.74l.18 20.06c-.083.014-.18.014-.25.056l-6.34-11.282Zm7.202 11.267c-.083-.028-.18-.043-.264-.057l-.18-20.046h10.92l-4.745 8.622.458.256-6.19 11.225Zm16.86-30.602-.458-.256-5.51 10.001-5.508-9.788 16.72-9.945c.056.057.112.1.167.157l-5.411 9.83Z" fill="#6586D6"/></svg>