<svg width="65" height="70" viewBox="0 0 65 70" fill="none" xmlns="http://www.w3.org/2000/svg">
<g style="mix-blend-mode:overlay" opacity="0.75">
<path d="M-2.98719e-06 1.66108C-2.95046e-06 2.5014 0.657601 3.16582 1.52071 3.30261L1.52071 19.7962L0.739802 19.7962L0.739803 50.2429L1.52071 50.2429L1.52071 66.6778C0.657603 66.7951 -1.10193e-07 67.4791 -7.34622e-08 68.3194C-3.24599e-08 69.2574 0.801454 70 1.76731 70C2.73316 70 3.53462 69.2379 3.53462 68.3194C3.53462 68.1044 3.49352 67.8895 3.41132 67.7136L17.7964 59.8381L18.1663 60.4634L45.9089 45.2401L45.5596 44.6538L61.8764 35.7231C62.2052 36.1139 62.6778 36.368 63.2327 36.368C64.2191 36.368 65 35.6058 65 34.6873C65 33.7493 64.1985 33.0067 63.2327 33.0067C62.6573 33.0067 62.1846 33.2803 61.8558 33.6711L45.6418 24.9553L46.0117 24.3104L18.0019 9.26298L17.6114 9.90787L3.41132 2.28643C3.49352 2.091 3.53462 1.89559 3.53462 1.68063C3.53462 0.742599 2.73316 -1.1947e-07 1.76731 -7.72516e-08C0.801451 -3.50327e-08 -3.02734e-06 0.742599 -2.98719e-06 1.66108ZM2.03446 3.30261C2.19886 3.28307 2.36326 3.26354 2.50711 3.20491L16.8305 26.7141L2.79481 34.4137L2.79481 19.7962L2.03446 19.7962L2.03446 3.30261ZM23.9203 35.2541L30.4758 35.1954L30.4758 48.5818L18.2279 41.9961L21.5365 36.5829C21.742 36.6611 21.9681 36.7002 22.1941 36.7002C23.0778 36.7002 23.797 36.0748 23.9203 35.2541ZM23.8998 34.7655C23.7559 33.9643 23.0572 33.3389 22.1941 33.3389C21.9681 33.3389 21.742 33.378 21.5365 33.4562L18.3101 28.1602L30.4964 21.4768L30.4964 34.6873L23.8998 34.7655ZM21.105 33.7298C20.694 34.0424 20.4268 34.4919 20.4268 35.0195C20.4268 35.5472 20.694 35.9966 21.105 36.3093L17.7758 41.742L5.54853 35.1759L17.8786 28.4143L21.105 33.7298ZM2.79481 35.9576L16.7278 43.4422L2.42491 66.756C2.30161 66.7169 2.15776 66.6974 2.01391 66.6778L2.01391 50.2429L2.79481 50.2429L2.79481 35.9576ZM3.14417 67.2836C3.06197 67.1859 2.97977 67.1078 2.87702 67.0101L17.2004 43.6572L31.0512 51.1027L17.1593 58.7242L17.5498 59.3691L3.14417 67.2836ZM45.2924 44.2043L44.8814 43.5204L32.5308 50.3015L32.5308 35.1759L61.5065 34.9218C61.527 35.0391 61.527 35.1759 61.5887 35.2736L45.2924 44.2043ZM61.5681 34.062C61.527 34.1792 61.5065 34.316 61.4859 34.4333L32.5308 34.6873L32.5308 19.3076L44.9842 25.9911L45.3541 25.3462L61.5681 34.062ZM17.3648 10.3183L16.9949 10.9631L31.4417 18.7214L17.3032 26.4796L2.93866 2.93132C3.02086 2.85316 3.08251 2.77498 3.16471 2.69682L17.3648 10.3183Z" fill="white"/>
</g>
</svg>
