<svg width="94" height="94" fill="none" xmlns="http://www.w3.org/2000/svg"><circle cx="47" cy="47" r="47" fill="#F5F5F5"/><g opacity=".8" filter="url(#a)"><circle cx="47" cy="47" r="37.5" stroke="#69949D" stroke-width="5"/></g><g filter="url(#b)"><path d="M44.666 66.776V61.16h5.016v5.616h-5.016Zm0-38.472v-5.64h5.016v5.64h-5.016Zm2.76 34.416c-2.4 0-4.544-.432-6.432-1.296-1.888-.864-3.44-2.088-4.656-3.672-1.2-1.6-1.984-3.488-2.352-5.664l4.968-.792c.48 2.048 1.504 3.68 3.072 4.896 1.568 1.2 3.448 1.8 5.64 1.8 2.176 0 3.944-.52 5.304-1.56 1.376-1.04 2.064-2.368 2.064-3.984 0-1.152-.352-2.088-1.056-2.808-.688-.72-1.816-1.328-3.384-1.824l-8.112-2.496c-4.8-1.488-7.2-4.368-7.2-8.64 0-2.016.48-3.768 1.44-5.256.976-1.488 2.344-2.64 4.104-3.456 1.76-.816 3.816-1.224 6.168-1.224 2.256.032 4.256.448 6 1.248 1.76.8 3.216 1.952 4.368 3.456 1.168 1.504 1.976 3.312 2.424 5.424l-5.112.912c-.224-1.232-.696-2.32-1.416-3.264a7.242 7.242 0 0 0-2.688-2.208c-1.072-.528-2.28-.8-3.624-.816-1.264-.032-2.4.168-3.408.6-.992.416-1.784 1.008-2.376 1.776a4.111 4.111 0 0 0-.864 2.568c0 1.056.408 1.952 1.224 2.688.816.736 2.104 1.368 3.864 1.896l6.36 1.848c2.912.864 5.016 2.024 6.312 3.48 1.296 1.456 1.944 3.392 1.944 5.808 0 2.112-.528 3.96-1.584 5.544-1.04 1.568-2.504 2.8-4.392 3.696-1.888.88-4.088 1.32-6.6 1.32Z" fill="#85A7AF"/></g><defs><filter id="a" x="7" y="7" width="80" height="82" filterUnits="userSpaceOnUse" color-interpolation-filters="sRGB"><feFlood flood-opacity="0" result="BackgroundImageFix"/><feBlend in="SourceGraphic" in2="BackgroundImageFix" result="shape"/><feColorMatrix in="SourceAlpha" values="0 0 0 0 0 0 0 0 0 0 0 0 0 0 0 0 0 0 127 0" result="hardAlpha"/><feOffset dy="4"/><feGaussianBlur stdDeviation="1"/><feComposite in2="hardAlpha" operator="arithmetic" k2="-1" k3="1"/><feColorMatrix values="0 0 0 0 0 0 0 0 0 0 0 0 0 0 0 0 0 0 0.25 0"/><feBlend in2="shape" result="effect1_innerShadow_5_99"/></filter><filter id="b" x="33.986" y="22.664" width="26.016" height="46.112" filterUnits="userSpaceOnUse" color-interpolation-filters="sRGB"><feFlood flood-opacity="0" result="BackgroundImageFix"/><feBlend in="SourceGraphic" in2="BackgroundImageFix" result="shape"/><feColorMatrix in="SourceAlpha" values="0 0 0 0 0 0 0 0 0 0 0 0 0 0 0 0 0 0 127 0" result="hardAlpha"/><feOffset dy="4"/><feGaussianBlur stdDeviation="1"/><feComposite in2="hardAlpha" operator="arithmetic" k2="-1" k3="1"/><feColorMatrix values="0 0 0 0 0 0 0 0 0 0 0 0 0 0 0 0 0 0 0.25 0"/><feBlend in2="shape" result="effect1_innerShadow_5_99"/></filter></defs></svg>