<svg width="94" height="94" fill="none" xmlns="http://www.w3.org/2000/svg"><circle cx="47" cy="47" r="47" fill="#F5F5F5"/><g opacity=".8" filter="url(#a)"><circle cx="47" cy="47" r="37.5" stroke="#64B293" stroke-width="5"/></g><g filter="url(#b)" fill="#81BFA7"><path d="M24.833 46.433c.049-.538.146-1.574.224-2.61.02-.244-.01-.518-.117-.733-3.92-7.819.244-17.143 8.699-19.382 3.343-.889 6.578-.488 9.686 1.056.244.117.557.186.821.157 6.255-.694 11.905.81 16.811 4.779 4.574 3.704 7.253 8.523 8.054 14.377.264 1.936.244 3.861.01 5.796-.04.294.029.655.176.91 4.72 8.278-.284 18.765-9.696 20.241-3.304.518-6.412-.117-9.285-1.847a1.403 1.403 0 0 0-.763-.186c-9.451.91-18.052-3.812-22.324-12.256-1.466-2.903-2.248-6.265-2.296-10.302Zm1.896.508c.068 4.907 1.769 9.608 5.102 13.312 4.77 5.298 10.76 7.507 17.847 6.715.44-.049.802.02 1.183.274 3.05 2.013 6.353 2.531 9.842 1.505 7.38-2.18 10.624-10.761 6.578-17.33-.215-.341-.41-.664-.332-1.123.469-2.63.38-5.249-.206-7.859a20.209 20.209 0 0 0-22.577-15.53c-.567.078-1.027 0-1.525-.264-5.22-2.844-11.729-1.369-15.101 3.528-2.727 3.968-2.854 8.152-.655 12.413.157.313.244.596.196.958-.147 1.134-.245 2.267-.352 3.401Z"/><path d="M46.756 59.422c-2.004-.019-3.959-.263-5.816-1.075-1.134-.498-2.15-1.163-2.99-2.072-.773-.83-1.242-1.788-1.242-2.942-.01-1.837 1.828-2.942 3.43-2.033.382.215.714.567 1.027.89.332.342.626.704.909 1.085 1.33 1.759 3.186 2.19 5.249 2.072.977-.05 1.886-.323 2.687-.919.92-.694 1.388-1.593 1.183-2.756-.195-1.105-.997-1.652-1.984-1.926-1.916-.528-3.841-.997-5.767-1.476-1.505-.38-2.98-.801-4.261-1.74-1.535-1.114-2.346-2.638-2.444-4.515-.176-3.46 1.34-5.894 4.633-7.106 3.978-1.466 7.898-1.24 11.622.9.693.4 1.329.948 1.876 1.534.391.42.665 1.017.821 1.574.323 1.134-.01 1.984-.86 2.521-.958.606-2.17.587-3.01-.127-.558-.469-1.046-1.026-1.555-1.554a4.414 4.414 0 0 0-2.033-1.202c-1.348-.371-2.697-.43-4.046-.049-.83.235-1.505.694-1.896 1.496-.518 1.045-.313 2.052.694 2.629.772.45 1.642.792 2.512 1.016 1.818.48 3.685.821 5.503 1.3.87.235 1.74.567 2.531 1.007 2.63 1.456 3.519 3.91 3.206 6.695-.362 3.177-2.434 5.405-5.816 6.246-1.348.332-2.756.44-4.134.645-.02-.03-.02-.078-.03-.117Z"/></g><defs><filter id="a" x="7" y="7" width="80" height="82" filterUnits="userSpaceOnUse" color-interpolation-filters="sRGB"><feFlood flood-opacity="0" result="BackgroundImageFix"/><feBlend in="SourceGraphic" in2="BackgroundImageFix" result="shape"/><feColorMatrix in="SourceAlpha" values="0 0 0 0 0 0 0 0 0 0 0 0 0 0 0 0 0 0 127 0" result="hardAlpha"/><feOffset dy="4"/><feGaussianBlur stdDeviation="1"/><feComposite in2="hardAlpha" operator="arithmetic" k2="-1" k3="1"/><feColorMatrix values="0 0 0 0 0 0 0 0 0 0 0 0 0 0 0 0 0 0 0.25 0"/><feBlend in2="shape" result="effect1_innerShadow_5_100"/></filter><filter id="b" x="23.456" y="23.242" width="47.544" height="49.957" filterUnits="userSpaceOnUse" color-interpolation-filters="sRGB"><feFlood flood-opacity="0" result="BackgroundImageFix"/><feBlend in="SourceGraphic" in2="BackgroundImageFix" result="shape"/><feColorMatrix in="SourceAlpha" values="0 0 0 0 0 0 0 0 0 0 0 0 0 0 0 0 0 0 127 0" result="hardAlpha"/><feOffset dy="4"/><feGaussianBlur stdDeviation="1"/><feComposite in2="hardAlpha" operator="arithmetic" k2="-1" k3="1"/><feColorMatrix values="0 0 0 0 0 0 0 0 0 0 0 0 0 0 0 0 0 0 0.25 0"/><feBlend in2="shape" result="effect1_innerShadow_5_100"/></filter></defs></svg>