<svg width="94" height="94" fill="none" xmlns="http://www.w3.org/2000/svg"><circle cx="47" cy="47" r="47" fill="#F5F5F5"/><g opacity=".8" filter="url(#a)"><circle cx="47" cy="47" r="37.5" stroke="#6C83A3" stroke-width="5"/></g><g filter="url(#b)"><path fill-rule="evenodd" clip-rule="evenodd" d="M47.5 53.758c-7.121 0-12.894 5.928-12.894 13.242H29c0-10.493 8.283-19 18.5-19S66 56.507 66 67h-5.606c0-7.314-5.773-13.242-12.894-13.242Z" fill="#879AB3"/></g><g filter="url(#c)"><path fill-rule="evenodd" clip-rule="evenodd" d="M47.5 41.893a7.393 7.393 0 1 0 0-14.786 7.393 7.393 0 0 0 0 14.786Zm0 4.107C53.851 46 59 40.851 59 34.5S53.851 23 47.5 23 36 28.149 36 34.5 41.149 46 47.5 46Z" fill="#879AB3"/></g><defs><filter id="a" x="7" y="7" width="80" height="82" filterUnits="userSpaceOnUse" color-interpolation-filters="sRGB"><feFlood flood-opacity="0" result="BackgroundImageFix"/><feBlend in="SourceGraphic" in2="BackgroundImageFix" result="shape"/><feColorMatrix in="SourceAlpha" values="0 0 0 0 0 0 0 0 0 0 0 0 0 0 0 0 0 0 127 0" result="hardAlpha"/><feOffset dy="4"/><feGaussianBlur stdDeviation="1"/><feComposite in2="hardAlpha" operator="arithmetic" k2="-1" k3="1"/><feColorMatrix values="0 0 0 0 0 0 0 0 0 0 0 0 0 0 0 0 0 0 0.25 0"/><feBlend in2="shape" result="effect1_innerShadow_5_98"/></filter><filter id="b" x="29" y="48" width="37" height="21" filterUnits="userSpaceOnUse" color-interpolation-filters="sRGB"><feFlood flood-opacity="0" result="BackgroundImageFix"/><feBlend in="SourceGraphic" in2="BackgroundImageFix" result="shape"/><feColorMatrix in="SourceAlpha" values="0 0 0 0 0 0 0 0 0 0 0 0 0 0 0 0 0 0 127 0" result="hardAlpha"/><feOffset dy="4"/><feGaussianBlur stdDeviation="1"/><feComposite in2="hardAlpha" operator="arithmetic" k2="-1" k3="1"/><feColorMatrix values="0 0 0 0 0 0 0 0 0 0 0 0 0 0 0 0 0 0 0.25 0"/><feBlend in2="shape" result="effect1_innerShadow_5_98"/></filter><filter id="c" x="36" y="23" width="23" height="25" filterUnits="userSpaceOnUse" color-interpolation-filters="sRGB"><feFlood flood-opacity="0" result="BackgroundImageFix"/><feBlend in="SourceGraphic" in2="BackgroundImageFix" result="shape"/><feColorMatrix in="SourceAlpha" values="0 0 0 0 0 0 0 0 0 0 0 0 0 0 0 0 0 0 127 0" result="hardAlpha"/><feOffset dy="4"/><feGaussianBlur stdDeviation="1"/><feComposite in2="hardAlpha" operator="arithmetic" k2="-1" k3="1"/><feColorMatrix values="0 0 0 0 0 0 0 0 0 0 0 0 0 0 0 0 0 0 0.25 0"/><feBlend in2="shape" result="effect1_innerShadow_5_98"/></filter></defs></svg>