<svg width="31" height="31" viewBox="0 0 31 31" fill="none" xmlns="http://www.w3.org/2000/svg">
<g filter="url(#filter0_i_71_618)">
<path d="M0 30.4486C0.425403 29.1874 0.826145 28.0054 1.22689 26.8234C1.62763 25.6536 1.98521 24.4655 2.44144 23.314C2.67572 22.7291 2.60174 22.2904 2.30581 21.7421C0.690509 18.781 0.209619 15.6067 0.770657 12.3044C1.24538 9.50787 2.44761 7.03422 4.38966 4.93223C7.58943 1.47765 11.5845 -0.179567 16.3071 0.0154002C19.7658 0.155533 22.8238 1.40454 25.4317 3.66494C27.8608 5.76693 29.4453 8.38071 30.1789 11.488C30.7708 13.9921 30.703 16.484 29.9755 18.9516C29.0507 22.0772 27.2813 24.6544 24.6487 26.6162C20.9927 29.3458 16.8928 30.1927 12.423 29.3336C11.079 29.0777 9.79659 28.6025 8.5882 27.9566C8.39091 27.8531 8.22445 27.8287 8.00867 27.9018C5.71519 28.6329 3.41555 29.358 1.12208 30.083C0.776822 30.1927 0.425403 30.3084 0 30.4486ZM3.90261 26.6284C4.02591 26.598 4.0814 26.5858 4.13689 26.5675C5.57339 26.1166 7.0099 25.6597 8.45257 25.221C8.5882 25.1784 8.77316 25.2149 8.90263 25.2758C9.52532 25.5805 10.1234 25.946 10.7645 26.2141C13.4033 27.3169 16.1221 27.4936 18.8719 26.7381C22.1518 25.8303 24.6672 23.8989 26.3873 20.9805C27.8608 18.4824 28.3663 15.7834 27.9101 12.9442C27.3306 9.33118 25.4563 6.49197 22.3552 4.47527C19.6672 2.73276 16.7078 2.14176 13.5512 2.63527C10.8324 3.06176 8.50805 4.2864 6.59066 6.24826C4.94454 7.92985 3.84096 9.91608 3.36007 12.2008C2.67572 15.4726 3.18127 18.5677 5.01852 21.3887C5.38843 21.9553 5.3761 22.3879 5.15415 22.9667C4.70409 24.1548 4.32801 25.3672 3.90261 26.6284Z" fill="#7167AC"/>
<path d="M23.3354 19.1102C23.3169 20.2861 22.7559 21.1817 21.6215 21.7423C20.5055 22.2906 19.3711 22.4307 18.2059 21.9799C17.1578 21.5717 16.0974 21.1756 15.0863 20.6821C13.7546 20.0302 12.6633 19.0554 11.6646 17.977C10.561 16.7828 9.62387 15.4546 8.85321 14.035C8.3045 13.0297 7.97158 11.9634 8.08872 10.7936C8.21202 9.55071 8.79772 8.5576 9.78416 7.80819C9.98145 7.66197 10.2774 7.59495 10.5302 7.57058C10.8569 7.54621 11.1837 7.59495 11.5104 7.61932C11.7817 7.64369 11.9297 7.83256 12.0222 8.0519C12.2626 8.6368 12.4784 9.2217 12.7065 9.8127C12.8606 10.2087 12.9778 10.623 13.1627 11.0069C13.3908 11.4821 13.249 11.8781 12.9531 12.2437C12.7003 12.5544 12.4352 12.853 12.1455 13.121C11.905 13.3465 11.8619 13.578 12.0222 13.8522C12.7312 15.1012 13.5943 16.2222 14.7349 17.1301C15.487 17.7271 16.3193 18.1719 17.1825 18.5862C17.4352 18.7081 17.6819 18.6898 17.8791 18.4644C18.3045 17.983 18.7361 17.5078 19.1554 17.0204C19.4266 16.7097 19.5623 16.6487 19.926 16.8315C20.9803 17.3555 22.0222 17.8977 23.0703 18.44C23.3169 18.574 23.3786 18.7934 23.3354 19.1102Z" fill="#7167AC"/>
</g>
<defs>
<filter id="filter0_i_71_618" x="0" y="0" width="32.5771" height="32.4485" filterUnits="userSpaceOnUse" color-interpolation-filters="sRGB">
<feFlood flood-opacity="0" result="BackgroundImageFix"/>
<feBlend mode="normal" in="SourceGraphic" in2="BackgroundImageFix" result="shape"/>
<feColorMatrix in="SourceAlpha" type="matrix" values="0 0 0 0 0 0 0 0 0 0 0 0 0 0 0 0 0 0 127 0" result="hardAlpha"/>
<feOffset dx="2" dy="2"/>
<feGaussianBlur stdDeviation="1"/>
<feComposite in2="hardAlpha" operator="arithmetic" k2="-1" k3="1"/>
<feColorMatrix type="matrix" values="0 0 0 0 0 0 0 0 0 0 0 0 0 0 0 0 0 0 0.25 0"/>
<feBlend mode="normal" in2="shape" result="effect1_innerShadow_71_618"/>
</filter>
</defs>
</svg>
