<svg width="31" height="31" fill="none" xmlns="http://www.w3.org/2000/svg"><g filter="url(#a)" fill="#EDEDED"><path d="M0 30.449c.42-1.262.816-2.444 1.212-3.626.396-1.17.75-2.358 1.2-3.509.232-.585.16-1.024-.133-1.572C.682 18.781.207 15.607.762 12.304c.469-2.796 1.657-5.27 3.576-7.372C7.5 1.478 11.448-.18 16.115.015c3.418.14 6.44 1.39 9.018 3.65 2.4 2.102 3.966 4.716 4.69 7.823a14.49 14.49 0 0 1-.2 7.464c-.914 3.125-2.663 5.702-5.264 7.664-3.613 2.73-7.665 3.577-12.082 2.718a13.22 13.22 0 0 1-3.79-1.377c-.195-.104-.36-.128-.573-.055-2.266.73-4.539 1.456-6.805 2.181-.341.11-.689.225-1.109.366Zm3.857-3.82c.122-.031.176-.043.231-.062 1.42-.45 2.84-.907 4.265-1.346.134-.043.317-.006.445.055.615.305 1.206.67 1.84.938 2.608 1.103 5.294 1.28 8.012.524 3.241-.908 5.727-2.84 7.427-5.758 1.456-2.498 1.956-5.197 1.505-8.036-.573-3.613-2.425-6.452-5.49-8.469-2.656-1.742-5.58-2.333-8.7-1.84-2.687.427-4.984 1.651-6.879 3.613-1.627 1.682-2.717 3.668-3.192 5.953-.677 3.272-.177 6.367 1.638 9.188.366.566.354.999.135 1.578-.445 1.188-.817 2.4-1.237 3.661Z"/><path d="M23.06 19.11c-.017 1.176-.572 2.071-1.693 2.632-1.103.548-2.224.688-3.375.237-1.036-.408-2.084-.804-3.083-1.297-1.316-.652-2.395-1.627-3.382-2.705a19.516 19.516 0 0 1-2.778-3.943c-.542-1.005-.871-2.071-.755-3.24.121-1.244.7-2.237 1.675-2.986.195-.146.487-.214.737-.238.323-.024.646.024.97.049.267.024.413.213.505.432.237.585.45 1.17.676 1.761.152.396.268.81.45 1.194.226.476.086.872-.206 1.237-.25.311-.512.61-.798.878-.238.225-.28.457-.122.73.7 1.25 1.553 2.37 2.68 3.279.744.597 1.566 1.042 2.42 1.456.25.122.493.103.688-.122.42-.481.847-.957 1.261-1.444.268-.31.402-.372.762-.189 1.041.524 2.071 1.066 3.107 1.608.244.135.305.354.262.67Z"/></g><defs><filter id="a" x="0" y="0" width="32.218" height="32.448" filterUnits="userSpaceOnUse" color-interpolation-filters="sRGB"><feFlood flood-opacity="0" result="BackgroundImageFix"/><feBlend in="SourceGraphic" in2="BackgroundImageFix" result="shape"/><feColorMatrix in="SourceAlpha" values="0 0 0 0 0 0 0 0 0 0 0 0 0 0 0 0 0 0 127 0" result="hardAlpha"/><feOffset dx="2" dy="2"/><feGaussianBlur stdDeviation="1"/><feComposite in2="hardAlpha" operator="arithmetic" k2="-1" k3="1"/><feColorMatrix values="0 0 0 0 0 0 0 0 0 0 0 0 0 0 0 0 0 0 0.25 0"/><feBlend in2="shape" result="effect1_innerShadow_1_537"/></filter></defs></svg>