<svg width="32" height="31" fill="none" xmlns="http://www.w3.org/2000/svg"><g filter="url(#a)" fill="#EDEDED"><path d="M16.137 30.373C7.705 30.41.771 23.391.973 14.818 1.16 6.66 7.918-.09 16.333.001c8.328.091 15.219 7.025 14.994 15.603-.214 8.134-6.916 14.812-15.19 14.77ZM2.82 15.203c.067 7.621 6.226 13.483 13.501 13.391 7.086-.091 13.142-5.849 13.148-13.398.006-7.628-6.208-13.507-13.507-13.41-7.086.098-13.088 5.867-13.142 13.416Z"/><path d="M16.07 21.423c-2.06-.067-4.118-.128-6.178-.213a5.33 5.33 0 0 1-1.31-.232c-.999-.305-1.438-1.103-1.572-2.053a25.094 25.094 0 0 1-.268-3.242c-.012-1.456.08-2.918.159-4.38.036-.628.2-1.25.548-1.785.494-.774 1.267-1.036 2.133-1.085 4.015-.231 8.036-.244 12.05-.049.446.025.89.055 1.335.104 1 .122 1.725.646 1.999 1.62.2.726.34 1.487.365 2.243.055 1.639.043 3.284.006 4.929a9.714 9.714 0 0 1-.298 2.04c-.274 1.134-1.054 1.756-2.212 1.853-.993.08-1.986.134-2.98.152-1.254.025-2.516.006-3.777.006v.092Zm3.114-6.8c-1.706-.89-3.357-1.748-5.027-2.62v5.228c1.682-.871 3.333-1.724 5.027-2.608Z"/></g><defs><filter id="a" x=".968" y="0" width="32.364" height="32.373" filterUnits="userSpaceOnUse" color-interpolation-filters="sRGB"><feFlood flood-opacity="0" result="BackgroundImageFix"/><feBlend in="SourceGraphic" in2="BackgroundImageFix" result="shape"/><feColorMatrix in="SourceAlpha" values="0 0 0 0 0 0 0 0 0 0 0 0 0 0 0 0 0 0 127 0" result="hardAlpha"/><feOffset dx="2" dy="2"/><feGaussianBlur stdDeviation="1"/><feComposite in2="hardAlpha" operator="arithmetic" k2="-1" k3="1"/><feColorMatrix values="0 0 0 0 0 0 0 0 0 0 0 0 0 0 0 0 0 0 0.25 0"/><feBlend in2="shape" result="effect1_innerShadow_1_529"/></filter></defs></svg>