<svg width="31" height="31" viewBox="0 0 31 31" fill="none" xmlns="http://www.w3.org/2000/svg">
<g filter="url(#filter0_i_71_610)">
<path d="M15.3496 30.3731C6.81693 30.4097 -0.199137 23.3909 0.00431624 14.8184C0.195439 6.66026 7.03271 -0.0904737 15.5469 0.000917162C23.9748 0.092308 30.9477 7.02583 30.7196 15.6044C30.5038 23.7382 23.7221 30.4158 15.3496 30.3731ZM1.87239 15.2023C1.94021 22.8243 8.17328 28.6855 15.5346 28.5941C22.7048 28.5027 28.8331 22.7451 28.8392 15.1962C28.8454 7.56808 22.5568 1.6886 15.1708 1.78609C8.00065 1.88357 1.92788 7.65338 1.87239 15.2023Z" fill="#7167AC"/>
<path d="M15.2818 21.4226C13.1979 21.3555 11.1141 21.2946 9.03023 21.2093C8.58633 21.191 8.1301 21.1057 7.7047 20.9778C6.69359 20.6731 6.24969 19.875 6.11406 18.9245C5.95993 17.8522 5.85512 16.7677 5.84279 15.6832C5.83046 14.227 5.92294 12.7648 6.00308 11.3025C6.04008 10.675 6.20654 10.0535 6.55796 9.51737C7.05734 8.74359 7.84033 8.48161 8.7158 8.43286C12.7787 8.20134 16.8478 8.18915 20.9107 8.38412C21.3607 8.40849 21.8108 8.43896 22.2609 8.4877C23.272 8.60955 24.0056 9.13353 24.2831 10.1084C24.4865 10.8334 24.6283 11.595 24.653 12.3505C24.7085 13.9894 24.6961 15.6345 24.6592 17.2795C24.6407 17.9619 24.5235 18.6504 24.3571 19.3206C24.0796 20.4538 23.2905 21.0753 22.1191 21.1728C21.1141 21.252 20.1092 21.3068 19.1043 21.3251C17.8342 21.3494 16.558 21.3312 15.2818 21.3312C15.2818 21.3555 15.2818 21.3921 15.2818 21.4226ZM18.4322 14.6231C16.706 13.7335 15.0352 12.8745 13.3459 12.0032C13.3459 13.7701 13.3459 15.4761 13.3459 17.2308C15.0475 16.3595 16.7183 15.5065 18.4322 14.6231Z" fill="#7167AC"/>
</g>
<defs>
<filter id="filter0_i_71_610" x="0" y="0" width="32.7251" height="32.3734" filterUnits="userSpaceOnUse" color-interpolation-filters="sRGB">
<feFlood flood-opacity="0" result="BackgroundImageFix"/>
<feBlend mode="normal" in="SourceGraphic" in2="BackgroundImageFix" result="shape"/>
<feColorMatrix in="SourceAlpha" type="matrix" values="0 0 0 0 0 0 0 0 0 0 0 0 0 0 0 0 0 0 127 0" result="hardAlpha"/>
<feOffset dx="2" dy="2"/>
<feGaussianBlur stdDeviation="1"/>
<feComposite in2="hardAlpha" operator="arithmetic" k2="-1" k3="1"/>
<feColorMatrix type="matrix" values="0 0 0 0 0 0 0 0 0 0 0 0 0 0 0 0 0 0 0.25 0"/>
<feBlend mode="normal" in2="shape" result="effect1_innerShadow_71_610"/>
</filter>
</defs>
</svg>
